<svg width="74" height="47" viewBox="0 0 74 47" fill="none" xmlns="http://www.w3.org/2000/svg">
<mask id="path-1-outside-1_2089_1564" maskUnits="userSpaceOnUse" x="-1" y="-1" width="76" height="49" fill="black">
<rect fill="white" x="-1" y="-1" width="76" height="49"/>
<path d="M18.24 46.72C14.68 46.72 11.56 45.76 8.88 43.84C6.2 41.92 4.1 39.22 2.58 35.74C1.1 32.26 0.36 28.22 0.36 23.62C0.36 18.98 1.1 14.94 2.58 11.5C4.06 8.06 6.14 5.38 8.82 3.46C11.5 1.54 14.62 0.579998 18.18 0.579998C21.82 0.579998 24.96 1.54 27.6 3.46C30.28 5.38 32.38 8.08 33.9 11.56C35.42 15 36.18 19.02 36.18 23.62C36.18 28.22 35.42 32.26 33.9 35.74C32.42 39.18 30.34 41.88 27.66 43.84C24.98 45.76 21.84 46.72 18.24 46.72ZM18.3 39.28C20.34 39.28 22.08 38.66 23.52 37.42C24.96 36.14 26.06 34.34 26.82 32.02C27.62 29.66 28.02 26.86 28.02 23.62C28.02 20.38 27.62 17.6 26.82 15.28C26.06 12.92 24.94 11.12 23.46 9.88C22.02 8.64 20.26 8.02 18.18 8.02C16.18 8.02 14.46 8.64 13.02 9.88C11.58 11.12 10.46 12.92 9.66 15.28C8.9 17.6 8.52 20.38 8.52 23.62C8.52 26.82 8.9 29.6 9.66 31.96C10.46 34.28 11.58 36.08 13.02 37.36C14.5 38.64 16.26 39.28 18.3 39.28ZM57.6005 46.72C54.5605 46.72 51.8605 46.08 49.5005 44.8C47.1805 43.48 45.3605 41.72 44.0405 39.52C42.7205 37.28 42.0605 34.74 42.0605 31.9C42.0605 30.46 42.2005 29.02 42.4805 27.58C42.8005 26.14 43.3605 24.6 44.1605 22.96C45.0005 21.32 46.2005 19.5 47.7605 17.5L60.2405 1.3H69.9605L54.7805 20.8L53.4605 19.36C54.0205 18.92 54.6005 18.58 55.2005 18.34C55.8005 18.06 56.4005 17.86 57.0005 17.74C57.6405 17.62 58.3005 17.56 58.9805 17.56C61.7005 17.56 64.1205 18.18 66.2405 19.42C68.3605 20.66 70.0205 22.36 71.2205 24.52C72.4605 26.64 73.0805 29.04 73.0805 31.72C73.0805 34.6 72.4205 37.18 71.1005 39.46C69.7805 41.7 67.9405 43.48 65.5805 44.8C63.2605 46.08 60.6005 46.72 57.6005 46.72ZM57.6005 39.34C58.9605 39.34 60.1805 39.04 61.2605 38.44C62.3805 37.8 63.2605 36.9 63.9005 35.74C64.5805 34.58 64.9205 33.28 64.9205 31.84C64.9205 30.32 64.5805 29.02 63.9005 27.94C63.2605 26.82 62.4005 25.94 61.3205 25.3C60.2405 24.66 59.0005 24.34 57.6005 24.34C56.2405 24.34 55.0005 24.66 53.8805 25.3C52.7605 25.94 51.8605 26.82 51.1805 27.94C50.5405 29.02 50.2205 30.32 50.2205 31.84C50.2205 33.28 50.5405 34.58 51.1805 35.74C51.8605 36.9 52.7605 37.8 53.8805 38.44C55.0005 39.04 56.2405 39.34 57.6005 39.34Z"/>
</mask>
<path d="M8.88 43.84L8.29762 44.6529L8.88 43.84ZM2.58 35.74L1.65972 36.1314L1.6636 36.1403L2.58 35.74ZM2.58 11.5L1.66141 11.1048L2.58 11.5ZM8.82 3.46L8.23762 2.64708H8.23761L8.82 3.46ZM27.6 3.46L27.0118 4.26875L27.0176 4.27291L27.6 3.46ZM33.9 11.56L32.9836 11.9603L32.9853 11.9642L33.9 11.56ZM33.9 35.74L32.9836 35.3397L32.9814 35.3448L33.9 35.74ZM27.66 43.84L28.2424 44.653L28.2503 44.6472L27.66 43.84ZM23.52 37.42L24.1725 38.1778L24.1785 38.1726L24.1844 38.1674L23.52 37.42ZM26.82 32.02L25.8729 31.6989L25.8697 31.7087L26.82 32.02ZM26.82 15.28L25.8681 15.5865L25.8713 15.5963L25.8746 15.606L26.82 15.28ZM23.46 9.88L22.8074 10.6378L22.8178 10.6465L23.46 9.88ZM13.02 9.88L12.3675 9.12223V9.12223L13.02 9.88ZM9.66 15.28L8.71288 14.9589L8.70969 14.9687L9.66 15.28ZM9.66 31.96L8.70814 32.2665L8.71128 32.2763L8.71463 32.286L9.66 31.96ZM13.02 37.36L12.3556 38.1075L12.3658 38.1164L13.02 37.36ZM18.24 45.72C14.8713 45.72 11.9588 44.8156 9.46239 43.0271L8.29762 44.6529C11.1612 46.7044 14.4887 47.72 18.24 47.72V45.72ZM9.46239 43.0271C6.94994 41.2271 4.95541 38.6801 3.4964 35.3397L1.6636 36.1403C3.24459 39.7599 5.45006 42.6129 8.29762 44.6529L9.46239 43.0271ZM3.50024 35.3486C2.08295 32.0161 1.36 28.1139 1.36 23.62H-0.64C-0.64 28.3261 0.117051 32.5039 1.65976 36.1314L3.50024 35.3486ZM1.36 23.62C1.36 19.0844 2.0835 15.1843 3.49859 11.8952L1.66141 11.1048C0.116503 14.6957 -0.64 18.8756 -0.64 23.62H1.36ZM3.49859 11.8952C4.91663 8.59923 6.88968 6.07306 9.40239 4.27291L8.23761 2.64708C5.39032 4.68694 3.20337 7.52077 1.66141 11.1048L3.49859 11.8952ZM9.40239 4.27291C11.8988 2.48444 14.8113 1.58 18.18 1.58V-0.420002C14.4287 -0.420002 11.1012 0.595558 8.23762 2.64708L9.40239 4.27291ZM18.18 1.58C21.6341 1.58 24.5623 2.48723 27.0118 4.26873L28.1882 2.65126C25.3577 0.592765 22.0059 -0.420002 18.18 -0.420002V1.58ZM27.0176 4.27291C29.5301 6.07287 31.5246 8.61991 32.9836 11.9603L34.8164 11.1597C33.2354 7.54009 31.0299 4.68712 28.1824 2.64708L27.0176 4.27291ZM32.9853 11.9642C34.438 15.2518 35.18 19.1289 35.18 23.62H37.18C37.18 18.9111 36.402 14.7482 34.8147 11.1558L32.9853 11.9642ZM35.18 23.62C35.18 28.1107 34.4381 32.0097 32.9836 35.3397L34.8164 36.1403C36.4019 32.5103 37.18 28.3293 37.18 23.62H35.18ZM32.9814 35.3448C31.5628 38.6421 29.5877 41.1913 27.0697 43.0328L28.2503 44.6472C31.0924 42.5687 33.2772 39.7179 34.8186 36.1352L32.9814 35.3448ZM27.0776 43.0271C24.5832 44.8142 21.6513 45.72 18.24 45.72V47.72C22.0287 47.72 25.3768 46.7058 28.2424 44.6529L27.0776 43.0271ZM18.3 40.28C20.5605 40.28 22.5371 39.586 24.1725 38.1778L22.8675 36.6622C21.6229 37.734 20.1196 38.28 18.3 38.28V40.28ZM24.1844 38.1674C25.7875 36.7424 26.9697 34.7752 27.7703 32.3313L25.8697 31.7087C25.1503 33.9048 24.1325 35.5376 22.8556 36.6726L24.1844 38.1674ZM27.7671 32.341C28.6108 29.8519 29.02 26.9382 29.02 23.62H27.02C27.02 26.7818 26.6292 29.4681 25.8729 31.699L27.7671 32.341ZM29.02 23.62C29.02 20.3025 28.611 17.4064 27.7654 14.954L25.8746 15.606C26.629 17.7936 27.02 20.4575 27.02 23.62H29.02ZM27.7719 14.9735C26.9703 12.4843 25.7625 10.5045 24.1022 9.11348L22.8178 10.6465C24.1175 11.7355 25.1497 13.3557 25.8681 15.5865L27.7719 14.9735ZM24.1125 9.12223C22.4734 7.71075 20.4751 7.02 18.18 7.02V9.02C20.0449 9.02 21.5666 9.56924 22.8075 10.6378L24.1125 9.12223ZM18.18 7.02C15.9542 7.02 13.9991 7.71726 12.3675 9.12223L13.6725 10.6378C14.9209 9.56274 16.4058 9.02 18.18 9.02V7.02ZM12.3675 9.12223C10.7561 10.5098 9.55291 12.481 8.71293 14.959L10.6071 15.601C11.3671 13.359 12.4039 11.7302 13.6725 10.6378L12.3675 9.12223ZM8.70969 14.9687C7.90801 17.4159 7.52 20.3067 7.52 23.62H9.52C9.52 20.4533 9.892 17.7841 10.6103 15.5913L8.70969 14.9687ZM7.52 23.62C7.52 26.8955 7.90852 29.7835 8.70814 32.2665L10.6119 31.6535C9.89148 29.4165 9.52 26.7445 9.52 23.62H7.52ZM8.71463 32.286C9.55557 34.7247 10.7569 36.6863 12.3556 38.1074L13.6844 36.6126C12.4031 35.4737 11.3644 33.8353 10.6054 31.634L8.71463 32.286ZM12.3658 38.1164C14.0358 39.5607 16.0309 40.28 18.3 40.28V38.28C16.4891 38.28 14.9642 37.7193 13.6742 36.6036L12.3658 38.1164ZM49.5005 44.8L49.0059 45.6692L49.0148 45.6742L49.0237 45.679L49.5005 44.8ZM44.0405 39.52L43.1789 40.0277L43.183 40.0345L44.0405 39.52ZM42.4805 27.58L41.5043 27.3631L41.5014 27.3761L41.4989 27.3891L42.4805 27.58ZM44.1605 22.96L43.2704 22.5041L43.266 22.5128L43.2617 22.5216L44.1605 22.96ZM47.7605 17.5L48.549 18.115L48.5527 18.1103L47.7605 17.5ZM60.2405 1.3V0.299996H59.7485L59.4483 0.689718L60.2405 1.3ZM69.9605 1.3L70.7496 1.91427L72.0062 0.299996H69.9605V1.3ZM54.7805 20.8L54.0433 21.4757L54.8428 22.3479L55.5696 21.4143L54.7805 20.8ZM53.4605 19.36L52.8426 18.5737L51.9942 19.2403L52.7233 20.0357L53.4605 19.36ZM55.2005 18.34L55.5719 19.2685L55.5979 19.2581L55.6234 19.2462L55.2005 18.34ZM57.0005 17.74L56.8162 16.7571L56.8044 16.7594L57.0005 17.74ZM66.2405 19.42L65.7356 20.2832L66.2405 19.42ZM71.2205 24.52L70.3463 25.0056L70.3517 25.0153L70.3573 25.0249L71.2205 24.52ZM71.1005 39.46L71.962 39.9677L71.9659 39.961L71.1005 39.46ZM65.5805 44.8L66.0636 45.6756L66.0686 45.6728L65.5805 44.8ZM61.2605 38.44L61.7461 39.3142L61.7566 39.3082L61.2605 38.44ZM63.9005 35.74L63.0378 35.2343L63.0312 35.2455L63.0249 35.2569L63.9005 35.74ZM63.9005 27.94L63.0322 28.4361L63.0428 28.4547L63.0542 28.4728L63.9005 27.94ZM53.8805 25.3L53.3843 24.4318L53.8805 25.3ZM51.1805 27.94L50.3256 27.421L50.3202 27.4302L51.1805 27.94ZM51.1805 35.74L50.3049 36.2231L50.3112 36.2345L50.3178 36.2457L51.1805 35.74ZM53.8805 38.44L53.3843 39.3082L53.3962 39.315L53.4082 39.3215L53.8805 38.44ZM57.6005 45.72C54.7047 45.72 52.1724 45.1116 49.9772 43.921L49.0237 45.679C51.5485 47.0484 54.4163 47.72 57.6005 47.72V45.72ZM49.995 43.9308C47.8182 42.6923 46.1258 41.052 44.898 39.0055L43.183 40.0345C44.5951 42.388 46.5428 44.2677 49.0059 45.6692L49.995 43.9308ZM44.902 39.0123C43.6809 36.9402 43.0605 34.5784 43.0605 31.9H41.0605C41.0605 34.9016 41.76 37.6199 43.1789 40.0277L44.902 39.0123ZM43.0605 31.9C43.0605 30.5253 43.1941 29.1492 43.4621 27.7709L41.4989 27.3891C41.2069 28.8908 41.0605 30.3947 41.0605 31.9H43.0605ZM43.4567 27.7969C43.7562 26.4491 44.2859 24.9838 45.0592 23.3984L43.2617 22.5216C42.435 24.2162 41.8448 25.8309 41.5043 27.3631L43.4567 27.7969ZM45.0505 23.4159C45.8533 21.8485 47.0144 20.0824 48.549 18.115L46.972 16.885C45.3865 18.9176 44.1476 20.7915 43.2704 22.5041L45.0505 23.4159ZM48.5527 18.1103L61.0327 1.91027L59.4483 0.689718L46.9683 16.8897L48.5527 18.1103ZM60.2405 2.3H69.9605V0.299996H60.2405V2.3ZM69.1714 0.685719L53.9914 20.1857L55.5696 21.4143L70.7496 1.91427L69.1714 0.685719ZM55.5176 20.1243L54.1976 18.6843L52.7233 20.0357L54.0433 21.4757L55.5176 20.1243ZM54.0783 20.1463C54.5709 19.7593 55.0689 19.4697 55.5719 19.2685L54.8291 17.4115C54.1321 17.6903 53.47 18.0807 52.8426 18.5737L54.0783 20.1463ZM55.6234 19.2462C56.1569 18.9972 56.681 18.8237 57.1966 18.7206L56.8044 16.7594C56.1199 16.8963 55.4441 17.1228 54.7776 17.4338L55.6234 19.2462ZM57.1848 18.7229C57.7614 18.6148 58.3596 18.56 58.9805 18.56V16.56C58.2414 16.56 57.5196 16.6252 56.8162 16.7571L57.1848 18.7229ZM58.9805 18.56C61.5426 18.56 63.7848 19.1422 65.7356 20.2832L66.7454 18.5568C64.4561 17.2178 61.8583 16.56 58.9805 16.56V18.56ZM65.7356 20.2832C67.6999 21.4321 69.2328 23.0013 70.3463 25.0056L72.0946 24.0344C70.8082 21.7187 69.021 19.8879 66.7454 18.5568L65.7356 20.2832ZM70.3573 25.0249C71.4996 26.9779 72.0805 29.2008 72.0805 31.72H74.0805C74.0805 28.8792 73.4213 26.3021 72.0837 24.0151L70.3573 25.0249ZM72.0805 31.72C72.0805 34.4409 71.4588 36.8452 70.235 38.959L71.9659 39.961C73.3821 37.5148 74.0805 34.7591 74.0805 31.72H72.0805ZM70.2389 38.9523C69.0126 41.0334 67.3042 42.6901 65.0923 43.9272L66.0686 45.6728C68.5768 44.2699 70.5484 42.3666 71.962 39.9677L70.2389 38.9523ZM65.0974 43.9244C62.944 45.1125 60.4542 45.72 57.6005 45.72V47.72C60.7468 47.72 63.577 47.0475 66.0635 45.6756L65.0974 43.9244ZM57.6005 40.34C59.1129 40.34 60.5029 40.0048 61.7461 39.3142L60.7748 37.5658C59.858 38.0752 58.8081 38.34 57.6005 38.34V40.34ZM61.7566 39.3082C63.0405 38.5746 64.0499 37.5393 64.776 36.2231L63.0249 35.2569C62.4711 36.2607 61.7204 37.0254 60.7643 37.5718L61.7566 39.3082ZM64.7632 36.2457C65.5395 34.9215 65.9205 33.4447 65.9205 31.84H63.9205C63.9205 33.1153 63.6215 34.2385 63.0378 35.2343L64.7632 36.2457ZM65.9205 31.84C65.9205 30.1679 65.545 28.675 64.7467 27.4072L63.0542 28.4728C63.616 29.365 63.9205 30.4721 63.9205 31.84H65.9205ZM64.7687 27.4439C64.0453 26.1778 63.0635 25.1705 61.8303 24.4397L60.8107 26.1603C61.7374 26.7095 62.4757 27.4622 63.0322 28.4361L64.7687 27.4439ZM61.8303 24.4397C60.5787 23.698 59.1587 23.34 57.6005 23.34V25.34C58.8423 25.34 59.9023 25.622 60.8107 26.1603L61.8303 24.4397ZM57.6005 23.34C56.0763 23.34 54.6637 23.7007 53.3843 24.4318L54.3766 26.1682C55.3372 25.6193 56.4047 25.34 57.6005 25.34V23.34ZM53.3843 24.4318C52.1147 25.1573 51.0922 26.1585 50.3257 27.421L52.0353 28.459C52.6287 27.4815 53.4062 26.7227 54.3766 26.1682L53.3843 24.4318ZM50.3202 27.4302C49.5712 28.6941 49.2205 30.1784 49.2205 31.84H51.2205C51.2205 30.4616 51.5097 29.3459 52.0408 28.4498L50.3202 27.4302ZM49.2205 31.84C49.2205 33.4339 49.5763 34.9025 50.3049 36.2231L52.056 35.2569C51.5047 34.2575 51.2205 33.1261 51.2205 31.84H49.2205ZM50.3178 36.2457C51.0823 37.5499 52.106 38.5778 53.3843 39.3082L54.3766 37.5718C53.4149 37.0222 52.6387 36.2501 52.0432 35.2343L50.3178 36.2457ZM53.4082 39.3215C54.6836 40.0047 56.0876 40.34 57.6005 40.34V38.34C56.3933 38.34 55.3173 38.0753 54.3527 37.5585L53.4082 39.3215Z" fill="#E4D4FF" mask="url(#path-1-outside-1_2089_1564)"/>
</svg>
