<svg width="73" height="47" viewBox="0 0 74 48" fill="none" xmlns="http://www.w3.org/2000/svg">
    <mask id="path-1-outside-1_1936_734" maskUnits="userSpaceOnUse" x="-1" y="-1" width="75" height="49" fill="black">
        <rect fill="white" x="-1" y="-1" width="75" height="49"/>
        <path d="M18.24 46.72C14.68 46.72 11.56 45.76 8.88 43.84C6.2 41.92 4.1 39.22 2.58 35.74C1.1 32.26 0.36 28.22 0.36 23.62C0.36 18.98 1.1 14.94 2.58 11.5C4.06 8.06 6.14 5.38 8.82 3.46C11.5 1.54 14.62 0.579998 18.18 0.579998C21.82 0.579998 24.96 1.54 27.6 3.46C30.28 5.38 32.38 8.08 33.9 11.56C35.42 15 36.18 19.02 36.18 23.62C36.18 28.22 35.42 32.26 33.9 35.74C32.42 39.18 30.34 41.88 27.66 43.84C24.98 45.76 21.84 46.72 18.24 46.72ZM18.3 39.28C20.34 39.28 22.08 38.66 23.52 37.42C24.96 36.14 26.06 34.34 26.82 32.02C27.62 29.66 28.02 26.86 28.02 23.62C28.02 20.38 27.62 17.6 26.82 15.28C26.06 12.92 24.94 11.12 23.46 9.88C22.02 8.64 20.26 8.02 18.18 8.02C16.18 8.02 14.46 8.64 13.02 9.88C11.58 11.12 10.46 12.92 9.66 15.28C8.9 17.6 8.52 20.38 8.52 23.62C8.52 26.82 8.9 29.6 9.66 31.96C10.46 34.28 11.58 36.08 13.02 37.36C14.5 38.64 16.26 39.28 18.3 39.28ZM42.2405 46V39.82L54.3605 27.16C56.7605 24.64 58.6005 22.64 59.8805 21.16C61.2005 19.64 62.1205 18.34 62.6405 17.26C63.1605 16.18 63.4205 15.08 63.4205 13.96C63.4205 12.08 62.8205 10.6 61.6205 9.52C60.4605 8.44 58.9605 7.9 57.1205 7.9C55.2005 7.9 53.5405 8.46 52.1405 9.58C50.7405 10.66 49.7205 12.26 49.0805 14.38L41.9405 12.16C42.4205 9.8 43.4005 7.76 44.8805 6.04C46.3605 4.28 48.1605 2.94 50.2805 2.02C52.4405 1.06 54.7205 0.579998 57.1205 0.579998C60.0005 0.579998 62.5205 1.1 64.6805 2.14C66.8805 3.18 68.5805 4.64 69.7805 6.52C71.0205 8.4 71.6405 10.6 71.6405 13.12C71.6405 14.72 71.3405 16.3 70.7405 17.86C70.1405 19.42 69.2405 21.02 68.0405 22.66C66.8405 24.26 65.2805 26.06 63.3605 28.06L52.8605 39.1H72.2405V46H42.2405Z"/>
    </mask>
    <path d="M8.88 43.84L8.29762 44.6529L8.88 43.84ZM2.58 35.74L1.65972 36.1314L1.6636 36.1403L2.58 35.74ZM2.58 11.5L1.66141 11.1048L2.58 11.5ZM8.82 3.46L8.23762 2.64708H8.23761L8.82 3.46ZM27.6 3.46L27.0118 4.26875L27.0176 4.27291L27.6 3.46ZM33.9 11.56L32.9836 11.9603L32.9853 11.9642L33.9 11.56ZM33.9 35.74L32.9836 35.3397L32.9814 35.3448L33.9 35.74ZM27.66 43.84L28.2424 44.653L28.2503 44.6472L27.66 43.84ZM23.52 37.42L24.1725 38.1778L24.1785 38.1726L24.1844 38.1674L23.52 37.42ZM26.82 32.02L25.8729 31.6989L25.8697 31.7087L26.82 32.02ZM26.82 15.28L25.8681 15.5865L25.8713 15.5963L25.8746 15.606L26.82 15.28ZM23.46 9.88L22.8074 10.6378L22.8178 10.6465L23.46 9.88ZM13.02 9.88L12.3675 9.12223V9.12223L13.02 9.88ZM9.66 15.28L8.71288 14.9589L8.70969 14.9687L9.66 15.28ZM9.66 31.96L8.70814 32.2665L8.71128 32.2763L8.71463 32.286L9.66 31.96ZM13.02 37.36L12.3556 38.1075L12.3658 38.1164L13.02 37.36ZM18.24 45.72C14.8713 45.72 11.9588 44.8156 9.46239 43.0271L8.29762 44.6529C11.1612 46.7044 14.4887 47.72 18.24 47.72V45.72ZM9.46239 43.0271C6.94994 41.2271 4.95541 38.6801 3.4964 35.3397L1.6636 36.1403C3.24459 39.7599 5.45006 42.6129 8.29762 44.6529L9.46239 43.0271ZM3.50024 35.3486C2.08295 32.0161 1.36 28.1139 1.36 23.62H-0.64C-0.64 28.3261 0.117051 32.5039 1.65976 36.1314L3.50024 35.3486ZM1.36 23.62C1.36 19.0844 2.0835 15.1843 3.49859 11.8952L1.66141 11.1048C0.116503 14.6957 -0.64 18.8756 -0.64 23.62H1.36ZM3.49859 11.8952C4.91663 8.59923 6.88968 6.07306 9.40239 4.27291L8.23761 2.64708C5.39032 4.68694 3.20337 7.52077 1.66141 11.1048L3.49859 11.8952ZM9.40239 4.27291C11.8988 2.48444 14.8113 1.58 18.18 1.58V-0.420002C14.4287 -0.420002 11.1012 0.595558 8.23762 2.64708L9.40239 4.27291ZM18.18 1.58C21.6341 1.58 24.5623 2.48723 27.0118 4.26873L28.1882 2.65126C25.3577 0.592765 22.0059 -0.420002 18.18 -0.420002V1.58ZM27.0176 4.27291C29.5301 6.07287 31.5246 8.61991 32.9836 11.9603L34.8164 11.1597C33.2354 7.54009 31.0299 4.68712 28.1824 2.64708L27.0176 4.27291ZM32.9853 11.9642C34.438 15.2518 35.18 19.1289 35.18 23.62H37.18C37.18 18.9111 36.402 14.7482 34.8147 11.1558L32.9853 11.9642ZM35.18 23.62C35.18 28.1107 34.4381 32.0097 32.9836 35.3397L34.8164 36.1403C36.4019 32.5103 37.18 28.3293 37.18 23.62H35.18ZM32.9814 35.3448C31.5628 38.6421 29.5877 41.1913 27.0697 43.0328L28.2503 44.6472C31.0924 42.5687 33.2772 39.7179 34.8186 36.1352L32.9814 35.3448ZM27.0776 43.0271C24.5832 44.8142 21.6513 45.72 18.24 45.72V47.72C22.0287 47.72 25.3768 46.7058 28.2424 44.6529L27.0776 43.0271ZM18.3 40.28C20.5605 40.28 22.5371 39.586 24.1725 38.1778L22.8675 36.6622C21.6229 37.734 20.1196 38.28 18.3 38.28V40.28ZM24.1844 38.1674C25.7875 36.7424 26.9697 34.7752 27.7703 32.3313L25.8697 31.7087C25.1503 33.9048 24.1325 35.5376 22.8556 36.6726L24.1844 38.1674ZM27.7671 32.341C28.6108 29.8519 29.02 26.9382 29.02 23.62H27.02C27.02 26.7818 26.6292 29.4681 25.8729 31.699L27.7671 32.341ZM29.02 23.62C29.02 20.3025 28.611 17.4064 27.7654 14.954L25.8746 15.606C26.629 17.7936 27.02 20.4575 27.02 23.62H29.02ZM27.7719 14.9735C26.9703 12.4843 25.7625 10.5045 24.1022 9.11348L22.8178 10.6465C24.1175 11.7355 25.1497 13.3557 25.8681 15.5865L27.7719 14.9735ZM24.1125 9.12223C22.4734 7.71075 20.4751 7.02 18.18 7.02V9.02C20.0449 9.02 21.5666 9.56924 22.8075 10.6378L24.1125 9.12223ZM18.18 7.02C15.9542 7.02 13.9991 7.71726 12.3675 9.12223L13.6725 10.6378C14.9209 9.56274 16.4058 9.02 18.18 9.02V7.02ZM12.3675 9.12223C10.7561 10.5098 9.55291 12.481 8.71293 14.959L10.6071 15.601C11.3671 13.359 12.4039 11.7302 13.6725 10.6378L12.3675 9.12223ZM8.70969 14.9687C7.90801 17.4159 7.52 20.3067 7.52 23.62H9.52C9.52 20.4533 9.892 17.7841 10.6103 15.5913L8.70969 14.9687ZM7.52 23.62C7.52 26.8955 7.90852 29.7835 8.70814 32.2665L10.6119 31.6535C9.89148 29.4165 9.52 26.7445 9.52 23.62H7.52ZM8.71463 32.286C9.55557 34.7247 10.7569 36.6863 12.3556 38.1074L13.6844 36.6126C12.4031 35.4737 11.3644 33.8353 10.6054 31.634L8.71463 32.286ZM12.3658 38.1164C14.0358 39.5607 16.0309 40.28 18.3 40.28V38.28C16.4891 38.28 14.9642 37.7193 13.6742 36.6036L12.3658 38.1164ZM42.2405 46H41.2405V47H42.2405V46ZM42.2405 39.82L41.5181 39.1285L41.2405 39.4185V39.82H42.2405ZM54.3605 27.16L55.0828 27.8515L55.0846 27.8497L54.3605 27.16ZM59.8805 21.16L59.1254 20.5043L59.1241 20.5058L59.8805 21.16ZM62.6405 17.26L61.7395 16.8262V16.8262L62.6405 17.26ZM61.6205 9.52L60.9391 10.2519L60.9452 10.2576L60.9515 10.2633L61.6205 9.52ZM52.1405 9.58L52.7513 10.3718L52.7583 10.3664L52.7652 10.3609L52.1405 9.58ZM49.0805 14.38L48.7836 15.3349L49.7464 15.6343L50.0378 14.669L49.0805 14.38ZM41.9405 12.16L40.9605 11.9607L40.7804 12.8465L41.6436 13.1149L41.9405 12.16ZM44.8805 6.04L45.6385 6.69228L45.6458 6.6836L44.8805 6.04ZM50.2805 2.02L50.6786 2.93738L50.6866 2.93381L50.2805 2.02ZM64.6805 2.14L64.2466 3.04102L64.2531 3.04407L64.6805 2.14ZM69.7805 6.52L68.9375 7.05803L68.9416 7.06434L68.9457 7.07059L69.7805 6.52ZM68.0405 22.66L68.8405 23.26L68.8475 23.2505L68.0405 22.66ZM63.3605 28.06L62.6391 27.3675L62.6359 27.3708L63.3605 28.06ZM52.8605 39.1L52.1359 38.4108L50.5293 40.1H52.8605V39.1ZM72.2405 39.1H73.2405V38.1H72.2405V39.1ZM72.2405 46V47H73.2405V46H72.2405ZM43.2405 46V39.82H41.2405V46H43.2405ZM42.9628 40.5115L55.0828 27.8515L53.6381 26.4685L41.5181 39.1285L42.9628 40.5115ZM55.0846 27.8497C57.4886 25.3255 59.3413 23.3121 60.6368 21.8141L59.1241 20.5058C57.8596 21.9679 56.0324 23.9545 53.6363 26.4703L55.0846 27.8497ZM60.6355 21.8157C61.9801 20.2674 62.9656 18.8899 63.5415 17.6938L61.7395 16.8262C61.2753 17.7901 60.4209 19.0126 59.1254 20.5043L60.6355 21.8157ZM63.5415 17.6938C64.122 16.4882 64.4205 15.2406 64.4205 13.96H62.4205C62.4205 14.9194 62.199 15.8718 61.7395 16.8262L63.5415 17.6938ZM64.4205 13.96C64.4205 11.8478 63.7355 10.0781 62.2894 8.7767L60.9515 10.2633C61.9055 11.1219 62.4205 12.3122 62.4205 13.96H64.4205ZM62.3019 8.7881C60.9272 7.50826 59.1698 6.9 57.1205 6.9V8.9C58.7511 8.9 59.9937 9.37173 60.9391 10.2519L62.3019 8.7881ZM57.1205 6.9C54.9907 6.9 53.1061 7.52686 51.5158 8.79913L52.7652 10.3609C53.9748 9.39314 55.4103 8.9 57.1205 8.9V6.9ZM51.5297 8.78822C49.927 10.0246 48.8081 11.8222 48.1231 14.091L50.0378 14.669C50.6329 12.6978 51.554 11.2954 52.7513 10.3718L51.5297 8.78822ZM49.3774 13.4251L42.2374 11.2051L41.6436 13.1149L48.7836 15.3349L49.3774 13.4251ZM42.9204 12.3593C43.3685 10.1561 44.2768 8.27472 45.6385 6.69224L44.1225 5.38776C42.5241 7.24527 41.4724 9.44386 40.9605 11.9607L42.9204 12.3593ZM45.6458 6.6836C47.0257 5.04265 48.6998 3.79606 50.6786 2.93734L49.8824 1.10265C47.6212 2.08394 45.6952 3.51735 44.1151 5.3964L45.6458 6.6836ZM50.6866 2.93381C52.7167 2.03153 54.8582 1.58 57.1205 1.58V-0.420002C54.5828 -0.420002 52.1642 0.0884695 49.8743 1.10619L50.6866 2.93381ZM57.1205 1.58C59.8801 1.58 62.2465 2.07798 64.2467 3.041L65.1143 1.239C62.7944 0.122022 60.1208 -0.420002 57.1205 -0.420002V1.58ZM64.2531 3.04407C66.299 4.01121 67.848 5.35109 68.9375 7.05803L70.6234 5.98196C69.3129 3.92891 67.462 2.34879 65.1078 1.23593L64.2531 3.04407ZM68.9457 7.07059C70.0654 8.76817 70.6405 10.7716 70.6405 13.12H72.6405C72.6405 10.4284 71.9756 8.03183 70.6152 5.9694L68.9457 7.07059ZM70.6405 13.12C70.6405 14.5918 70.3651 16.0504 69.8071 17.501L71.6738 18.219C72.3159 16.5496 72.6405 14.8482 72.6405 13.12H70.6405ZM69.8071 17.501C69.2448 18.9631 68.3921 20.486 67.2334 22.0695L68.8475 23.2505C70.0889 21.554 71.0362 19.8769 71.6738 18.219L69.8071 17.501ZM67.2405 22.06C66.072 23.6179 64.5409 25.3864 62.6391 27.3675L64.0819 28.7525C66.0201 26.7336 67.6089 24.9021 68.8405 23.26L67.2405 22.06ZM62.6359 27.3708L52.1359 38.4108L53.5851 39.7892L64.0851 28.7492L62.6359 27.3708ZM52.8605 40.1H72.2405V38.1H52.8605V40.1ZM71.2405 39.1V46H73.2405V39.1H71.2405ZM72.2405 45H42.2405V47H72.2405V45Z" fill="#A7A7A7" mask="url(#path-1-outside-1_1936_734)"/>
</svg>
