<svg width="77" height="47" viewBox="0 0 78 48" fill="none" xmlns="http://www.w3.org/2000/svg">
    <mask id="path-1-outside-1_1936_736" maskUnits="userSpaceOnUse" x="-1" y="-1" width="79" height="49" fill="black">
        <rect fill="white" x="-1" y="-1" width="79" height="49"/>
        <path d="M18.24 46.72C14.68 46.72 11.56 45.76 8.88 43.84C6.2 41.92 4.1 39.22 2.58 35.74C1.1 32.26 0.36 28.22 0.36 23.62C0.36 18.98 1.1 14.94 2.58 11.5C4.06 8.06 6.14 5.38 8.82 3.46C11.5 1.54 14.62 0.579998 18.18 0.579998C21.82 0.579998 24.96 1.54 27.6 3.46C30.28 5.38 32.38 8.08 33.9 11.56C35.42 15 36.18 19.02 36.18 23.62C36.18 28.22 35.42 32.26 33.9 35.74C32.42 39.18 30.34 41.88 27.66 43.84C24.98 45.76 21.84 46.72 18.24 46.72ZM18.3 39.28C20.34 39.28 22.08 38.66 23.52 37.42C24.96 36.14 26.06 34.34 26.82 32.02C27.62 29.66 28.02 26.86 28.02 23.62C28.02 20.38 27.62 17.6 26.82 15.28C26.06 12.92 24.94 11.12 23.46 9.88C22.02 8.64 20.26 8.02 18.18 8.02C16.18 8.02 14.46 8.64 13.02 9.88C11.58 11.12 10.46 12.92 9.66 15.28C8.9 17.6 8.52 20.38 8.52 23.62C8.52 26.82 8.9 29.6 9.66 31.96C10.46 34.28 11.58 36.08 13.02 37.36C14.5 38.64 16.26 39.28 18.3 39.28ZM62.1605 46V36.16H41.6405V29.32L61.6805 1.3H70.2005V29.32H76.7405V36.16H70.2005V46H62.1605ZM47.6405 32.26L46.2005 29.32H62.1605V7.72L64.2605 8.38L47.6405 32.26Z"/>
    </mask>
    <path d="M8.88 43.84L8.29762 44.6529L8.88 43.84ZM2.58 35.74L1.65972 36.1314L1.6636 36.1403L2.58 35.74ZM2.58 11.5L1.66141 11.1048L2.58 11.5ZM8.82 3.46L8.23762 2.64708H8.23761L8.82 3.46ZM27.6 3.46L27.0118 4.26875L27.0176 4.27291L27.6 3.46ZM33.9 11.56L32.9836 11.9603L32.9853 11.9642L33.9 11.56ZM33.9 35.74L32.9836 35.3397L32.9814 35.3448L33.9 35.74ZM27.66 43.84L28.2424 44.653L28.2503 44.6472L27.66 43.84ZM23.52 37.42L24.1725 38.1778L24.1785 38.1726L24.1844 38.1674L23.52 37.42ZM26.82 32.02L25.8729 31.6989L25.8697 31.7087L26.82 32.02ZM26.82 15.28L25.8681 15.5865L25.8713 15.5963L25.8746 15.606L26.82 15.28ZM23.46 9.88L22.8074 10.6378L22.8178 10.6465L23.46 9.88ZM13.02 9.88L12.3675 9.12223V9.12223L13.02 9.88ZM9.66 15.28L8.71288 14.9589L8.70969 14.9687L9.66 15.28ZM9.66 31.96L8.70814 32.2665L8.71128 32.2763L8.71463 32.286L9.66 31.96ZM13.02 37.36L12.3556 38.1075L12.3658 38.1164L13.02 37.36ZM18.24 45.72C14.8713 45.72 11.9588 44.8156 9.46239 43.0271L8.29762 44.6529C11.1612 46.7044 14.4887 47.72 18.24 47.72V45.72ZM9.46239 43.0271C6.94994 41.2271 4.95541 38.6801 3.4964 35.3397L1.6636 36.1403C3.24459 39.7599 5.45006 42.6129 8.29762 44.6529L9.46239 43.0271ZM3.50024 35.3486C2.08295 32.0161 1.36 28.1139 1.36 23.62H-0.64C-0.64 28.3261 0.117051 32.5039 1.65976 36.1314L3.50024 35.3486ZM1.36 23.62C1.36 19.0844 2.0835 15.1843 3.49859 11.8952L1.66141 11.1048C0.116503 14.6957 -0.64 18.8756 -0.64 23.62H1.36ZM3.49859 11.8952C4.91663 8.59923 6.88968 6.07306 9.40239 4.27291L8.23761 2.64708C5.39032 4.68694 3.20337 7.52077 1.66141 11.1048L3.49859 11.8952ZM9.40239 4.27291C11.8988 2.48444 14.8113 1.58 18.18 1.58V-0.420002C14.4287 -0.420002 11.1012 0.595558 8.23762 2.64708L9.40239 4.27291ZM18.18 1.58C21.6341 1.58 24.5623 2.48723 27.0118 4.26873L28.1882 2.65126C25.3577 0.592765 22.0059 -0.420002 18.18 -0.420002V1.58ZM27.0176 4.27291C29.5301 6.07287 31.5246 8.61991 32.9836 11.9603L34.8164 11.1597C33.2354 7.54009 31.0299 4.68712 28.1824 2.64708L27.0176 4.27291ZM32.9853 11.9642C34.438 15.2518 35.18 19.1289 35.18 23.62H37.18C37.18 18.9111 36.402 14.7482 34.8147 11.1558L32.9853 11.9642ZM35.18 23.62C35.18 28.1107 34.4381 32.0097 32.9836 35.3397L34.8164 36.1403C36.4019 32.5103 37.18 28.3293 37.18 23.62H35.18ZM32.9814 35.3448C31.5628 38.6421 29.5877 41.1913 27.0697 43.0328L28.2503 44.6472C31.0924 42.5687 33.2772 39.7179 34.8186 36.1352L32.9814 35.3448ZM27.0776 43.0271C24.5832 44.8142 21.6513 45.72 18.24 45.72V47.72C22.0287 47.72 25.3768 46.7058 28.2424 44.6529L27.0776 43.0271ZM18.3 40.28C20.5605 40.28 22.5371 39.586 24.1725 38.1778L22.8675 36.6622C21.6229 37.734 20.1196 38.28 18.3 38.28V40.28ZM24.1844 38.1674C25.7875 36.7424 26.9697 34.7752 27.7703 32.3313L25.8697 31.7087C25.1503 33.9048 24.1325 35.5376 22.8556 36.6726L24.1844 38.1674ZM27.7671 32.341C28.6108 29.8519 29.02 26.9382 29.02 23.62H27.02C27.02 26.7818 26.6292 29.4681 25.8729 31.699L27.7671 32.341ZM29.02 23.62C29.02 20.3025 28.611 17.4064 27.7654 14.954L25.8746 15.606C26.629 17.7936 27.02 20.4575 27.02 23.62H29.02ZM27.7719 14.9735C26.9703 12.4843 25.7625 10.5045 24.1022 9.11348L22.8178 10.6465C24.1175 11.7355 25.1497 13.3557 25.8681 15.5865L27.7719 14.9735ZM24.1125 9.12223C22.4734 7.71075 20.4751 7.02 18.18 7.02V9.02C20.0449 9.02 21.5666 9.56924 22.8075 10.6378L24.1125 9.12223ZM18.18 7.02C15.9542 7.02 13.9991 7.71726 12.3675 9.12223L13.6725 10.6378C14.9209 9.56274 16.4058 9.02 18.18 9.02V7.02ZM12.3675 9.12223C10.7561 10.5098 9.55291 12.481 8.71293 14.959L10.6071 15.601C11.3671 13.359 12.4039 11.7302 13.6725 10.6378L12.3675 9.12223ZM8.70969 14.9687C7.90801 17.4159 7.52 20.3067 7.52 23.62H9.52C9.52 20.4533 9.892 17.7841 10.6103 15.5913L8.70969 14.9687ZM7.52 23.62C7.52 26.8955 7.90852 29.7835 8.70814 32.2665L10.6119 31.6535C9.89148 29.4165 9.52 26.7445 9.52 23.62H7.52ZM8.71463 32.286C9.55557 34.7247 10.7569 36.6863 12.3556 38.1074L13.6844 36.6126C12.4031 35.4737 11.3644 33.8353 10.6054 31.634L8.71463 32.286ZM12.3658 38.1164C14.0358 39.5607 16.0309 40.28 18.3 40.28V38.28C16.4891 38.28 14.9642 37.7193 13.6742 36.6036L12.3658 38.1164ZM62.1605 46H61.1605V47H62.1605V46ZM62.1605 36.16H63.1605V35.16H62.1605V36.16ZM41.6405 36.16H40.6405V37.16H41.6405V36.16ZM41.6405 29.32L40.8271 28.7383L40.6405 28.9992V29.32H41.6405ZM61.6805 1.3V0.299996H61.1662L60.8671 0.718264L61.6805 1.3ZM70.2005 1.3H71.2005V0.299996H70.2005V1.3ZM70.2005 29.32H69.2005V30.32H70.2005V29.32ZM76.7405 29.32H77.7405V28.32H76.7405V29.32ZM76.7405 36.16V37.16H77.7405V36.16H76.7405ZM70.2005 36.16V35.16H69.2005V36.16H70.2005ZM70.2005 46V47H71.2005V46H70.2005ZM47.6405 32.26L46.7424 32.6999L47.4902 34.2265L48.4612 32.8312L47.6405 32.26ZM46.2005 29.32V28.32H44.5972L45.3024 29.7599L46.2005 29.32ZM62.1605 29.32V30.32H63.1605V29.32H62.1605ZM62.1605 7.72L62.4603 6.766L61.1605 6.35749V7.72H62.1605ZM64.2605 8.38L65.0812 8.95124L65.8588 7.83409L64.5603 7.426L64.2605 8.38ZM63.1605 46V36.16H61.1605V46H63.1605ZM62.1605 35.16H41.6405V37.16H62.1605V35.16ZM42.6405 36.16V29.32H40.6405V36.16H42.6405ZM42.4538 29.9017L62.4939 1.88173L60.8671 0.718264L40.8271 28.7383L42.4538 29.9017ZM61.6805 2.3H70.2005V0.299996H61.6805V2.3ZM69.2005 1.3V29.32H71.2005V1.3H69.2005ZM70.2005 30.32H76.7405V28.32H70.2005V30.32ZM75.7405 29.32V36.16H77.7405V29.32H75.7405ZM76.7405 35.16H70.2005V37.16H76.7405V35.16ZM69.2005 36.16V46H71.2005V36.16H69.2005ZM70.2005 45H62.1605V47H70.2005V45ZM48.5385 31.8201L47.0985 28.8801L45.3024 29.7599L46.7424 32.6999L48.5385 31.8201ZM46.2005 30.32H62.1605V28.32H46.2005V30.32ZM63.1605 29.32V7.72H61.1605V29.32H63.1605ZM61.8606 8.67399L63.9606 9.33399L64.5603 7.426L62.4603 6.766L61.8606 8.67399ZM63.4397 7.80875L46.8197 31.6888L48.4612 32.8312L65.0812 8.95124L63.4397 7.80875Z" fill="#A7A7A7" mask="url(#path-1-outside-1_1936_736)"/>
</svg>
