<svg width="74" height="47" viewBox="0 0 75 48" fill="none" xmlns="http://www.w3.org/2000/svg">
    <mask id="path-1-outside-1_1936_735" maskUnits="userSpaceOnUse" x="-1" y="-1" width="76" height="49" fill="black">
        <rect fill="white" x="-1" y="-1" width="76" height="49"/>
        <path d="M18.24 46.72C14.68 46.72 11.56 45.76 8.88 43.84C6.2 41.92 4.1 39.22 2.58 35.74C1.1 32.26 0.36 28.22 0.36 23.62C0.36 18.98 1.1 14.94 2.58 11.5C4.06 8.06 6.14 5.38 8.82 3.46C11.5 1.54 14.62 0.579998 18.18 0.579998C21.82 0.579998 24.96 1.54 27.6 3.46C30.28 5.38 32.38 8.08 33.9 11.56C35.42 15 36.18 19.02 36.18 23.62C36.18 28.22 35.42 32.26 33.9 35.74C32.42 39.18 30.34 41.88 27.66 43.84C24.98 45.76 21.84 46.72 18.24 46.72ZM18.3 39.28C20.34 39.28 22.08 38.66 23.52 37.42C24.96 36.14 26.06 34.34 26.82 32.02C27.62 29.66 28.02 26.86 28.02 23.62C28.02 20.38 27.62 17.6 26.82 15.28C26.06 12.92 24.94 11.12 23.46 9.88C22.02 8.64 20.26 8.02 18.18 8.02C16.18 8.02 14.46 8.64 13.02 9.88C11.58 11.12 10.46 12.92 9.66 15.28C8.9 17.6 8.52 20.38 8.52 23.62C8.52 26.82 8.9 29.6 9.66 31.96C10.46 34.28 11.58 36.08 13.02 37.36C14.5 38.64 16.26 39.28 18.3 39.28ZM57.0605 46.72C54.6205 46.72 52.3005 46.28 50.1005 45.4C47.9405 44.48 46.0805 43.2 44.5205 41.56C43.0005 39.88 41.9605 37.9 41.4005 35.62L48.5405 33.1C49.2605 35.14 50.3605 36.7 51.8405 37.78C53.3205 38.82 55.0605 39.34 57.0605 39.34C58.6605 39.34 60.0405 39.04 61.2005 38.44C62.4005 37.84 63.3405 36.98 64.0205 35.86C64.7005 34.7 65.0405 33.34 65.0405 31.78C65.0405 30.22 64.7005 28.9 64.0205 27.82C63.3805 26.7 62.4605 25.84 61.2605 25.24C60.0605 24.64 58.6405 24.34 57.0005 24.34C56.2405 24.34 55.4405 24.42 54.6005 24.58C53.8005 24.74 53.0805 24.98 52.4405 25.3L50.5805 21.4L62.1605 8.2H43.9205V1.3H71.3405V7.72L59.7005 21.34L59.8205 18.28C62.5005 18.32 64.8405 18.9 66.8405 20.02C68.8405 21.14 70.4005 22.68 71.5205 24.64C72.6405 26.6 73.2005 28.9 73.2005 31.54C73.2005 34.42 72.5005 37.02 71.1005 39.34C69.7005 41.62 67.7805 43.42 65.3405 44.74C62.9005 46.06 60.1405 46.72 57.0605 46.72Z"/>
    </mask>
    <path d="M8.88 43.84L8.29762 44.6529L8.88 43.84ZM2.58 35.74L1.65972 36.1314L1.6636 36.1403L2.58 35.74ZM2.58 11.5L1.66141 11.1048L2.58 11.5ZM8.82 3.46L8.23762 2.64708H8.23761L8.82 3.46ZM27.6 3.46L27.0118 4.26875L27.0176 4.27291L27.6 3.46ZM33.9 11.56L32.9836 11.9603L32.9853 11.9642L33.9 11.56ZM33.9 35.74L32.9836 35.3397L32.9814 35.3448L33.9 35.74ZM27.66 43.84L28.2424 44.653L28.2503 44.6472L27.66 43.84ZM23.52 37.42L24.1725 38.1778L24.1785 38.1726L24.1844 38.1674L23.52 37.42ZM26.82 32.02L25.8729 31.6989L25.8697 31.7087L26.82 32.02ZM26.82 15.28L25.8681 15.5865L25.8713 15.5963L25.8746 15.606L26.82 15.28ZM23.46 9.88L22.8074 10.6378L22.8178 10.6465L23.46 9.88ZM13.02 9.88L12.3675 9.12223V9.12223L13.02 9.88ZM9.66 15.28L8.71288 14.9589L8.70969 14.9687L9.66 15.28ZM9.66 31.96L8.70814 32.2665L8.71128 32.2763L8.71463 32.286L9.66 31.96ZM13.02 37.36L12.3556 38.1075L12.3658 38.1164L13.02 37.36ZM18.24 45.72C14.8713 45.72 11.9588 44.8156 9.46239 43.0271L8.29762 44.6529C11.1612 46.7044 14.4887 47.72 18.24 47.72V45.72ZM9.46239 43.0271C6.94994 41.2271 4.95541 38.6801 3.4964 35.3397L1.6636 36.1403C3.24459 39.7599 5.45006 42.6129 8.29762 44.6529L9.46239 43.0271ZM3.50024 35.3486C2.08295 32.0161 1.36 28.1139 1.36 23.62H-0.64C-0.64 28.3261 0.117051 32.5039 1.65976 36.1314L3.50024 35.3486ZM1.36 23.62C1.36 19.0844 2.0835 15.1843 3.49859 11.8952L1.66141 11.1048C0.116503 14.6957 -0.64 18.8756 -0.64 23.62H1.36ZM3.49859 11.8952C4.91663 8.59923 6.88968 6.07306 9.40239 4.27291L8.23761 2.64708C5.39032 4.68694 3.20337 7.52077 1.66141 11.1048L3.49859 11.8952ZM9.40239 4.27291C11.8988 2.48444 14.8113 1.58 18.18 1.58V-0.420002C14.4287 -0.420002 11.1012 0.595558 8.23762 2.64708L9.40239 4.27291ZM18.18 1.58C21.6341 1.58 24.5623 2.48723 27.0118 4.26873L28.1882 2.65126C25.3577 0.592765 22.0059 -0.420002 18.18 -0.420002V1.58ZM27.0176 4.27291C29.5301 6.07287 31.5246 8.61991 32.9836 11.9603L34.8164 11.1597C33.2354 7.54009 31.0299 4.68712 28.1824 2.64708L27.0176 4.27291ZM32.9853 11.9642C34.438 15.2518 35.18 19.1289 35.18 23.62H37.18C37.18 18.9111 36.402 14.7482 34.8147 11.1558L32.9853 11.9642ZM35.18 23.62C35.18 28.1107 34.4381 32.0097 32.9836 35.3397L34.8164 36.1403C36.4019 32.5103 37.18 28.3293 37.18 23.62H35.18ZM32.9814 35.3448C31.5628 38.6421 29.5877 41.1913 27.0697 43.0328L28.2503 44.6472C31.0924 42.5687 33.2772 39.7179 34.8186 36.1352L32.9814 35.3448ZM27.0776 43.0271C24.5832 44.8142 21.6513 45.72 18.24 45.72V47.72C22.0287 47.72 25.3768 46.7058 28.2424 44.6529L27.0776 43.0271ZM18.3 40.28C20.5605 40.28 22.5371 39.586 24.1725 38.1778L22.8675 36.6622C21.6229 37.734 20.1196 38.28 18.3 38.28V40.28ZM24.1844 38.1674C25.7875 36.7424 26.9697 34.7752 27.7703 32.3313L25.8697 31.7087C25.1503 33.9048 24.1325 35.5376 22.8556 36.6726L24.1844 38.1674ZM27.7671 32.341C28.6108 29.8519 29.02 26.9382 29.02 23.62H27.02C27.02 26.7818 26.6292 29.4681 25.8729 31.699L27.7671 32.341ZM29.02 23.62C29.02 20.3025 28.611 17.4064 27.7654 14.954L25.8746 15.606C26.629 17.7936 27.02 20.4575 27.02 23.62H29.02ZM27.7719 14.9735C26.9703 12.4843 25.7625 10.5045 24.1022 9.11348L22.8178 10.6465C24.1175 11.7355 25.1497 13.3557 25.8681 15.5865L27.7719 14.9735ZM24.1125 9.12223C22.4734 7.71075 20.4751 7.02 18.18 7.02V9.02C20.0449 9.02 21.5666 9.56924 22.8075 10.6378L24.1125 9.12223ZM18.18 7.02C15.9542 7.02 13.9991 7.71726 12.3675 9.12223L13.6725 10.6378C14.9209 9.56274 16.4058 9.02 18.18 9.02V7.02ZM12.3675 9.12223C10.7561 10.5098 9.55291 12.481 8.71293 14.959L10.6071 15.601C11.3671 13.359 12.4039 11.7302 13.6725 10.6378L12.3675 9.12223ZM8.70969 14.9687C7.90801 17.4159 7.52 20.3067 7.52 23.62H9.52C9.52 20.4533 9.892 17.7841 10.6103 15.5913L8.70969 14.9687ZM7.52 23.62C7.52 26.8955 7.90852 29.7835 8.70814 32.2665L10.6119 31.6535C9.89148 29.4165 9.52 26.7445 9.52 23.62H7.52ZM8.71463 32.286C9.55557 34.7247 10.7569 36.6863 12.3556 38.1074L13.6844 36.6126C12.4031 35.4737 11.3644 33.8353 10.6054 31.634L8.71463 32.286ZM12.3658 38.1164C14.0358 39.5607 16.0309 40.28 18.3 40.28V38.28C16.4891 38.28 14.9642 37.7193 13.6742 36.6036L12.3658 38.1164ZM50.1005 45.4L49.7086 46.32L49.7188 46.3244L49.7291 46.3285L50.1005 45.4ZM44.5205 41.56L43.7789 42.2309L43.7873 42.2402L43.7959 42.2492L44.5205 41.56ZM41.4005 35.62L41.0676 34.677L40.2132 34.9786L40.4293 35.8585L41.4005 35.62ZM48.5405 33.1L49.4835 32.7672L49.1506 31.8242L48.2076 32.157L48.5405 33.1ZM51.8405 37.78L51.251 38.5878L51.2582 38.5931L51.2655 38.5982L51.8405 37.78ZM61.2005 38.44L60.7532 37.5455L60.741 37.5518L61.2005 38.44ZM64.0205 35.86L64.8753 36.379L64.8793 36.3724L64.8832 36.3657L64.0205 35.86ZM64.0205 27.82L63.1522 28.3161L63.1628 28.3347L63.1742 28.3528L64.0205 27.82ZM61.2605 25.24L60.8133 26.1344L61.2605 25.24ZM54.6005 24.58L54.4133 23.5976L54.4044 23.5994L54.6005 24.58ZM52.4405 25.3L51.5379 25.7305L51.9764 26.65L52.8877 26.1944L52.4405 25.3ZM50.5805 21.4L49.8287 20.7405L49.3943 21.2358L49.6779 21.8305L50.5805 21.4ZM62.1605 8.2L62.9122 8.85947L64.368 7.2H62.1605V8.2ZM43.9205 8.2H42.9205V9.2H43.9205V8.2ZM43.9205 1.3V0.299996H42.9205V1.3H43.9205ZM71.3405 1.3H72.3405V0.299996H71.3405V1.3ZM71.3405 7.72L72.1007 8.36969L72.3405 8.0891V7.72H71.3405ZM59.7005 21.34L58.7012 21.3008L58.5883 24.1805L60.4607 21.9897L59.7005 21.34ZM59.8205 18.28L59.8354 17.2801L58.8595 17.2655L58.8212 18.2408L59.8205 18.28ZM71.5205 24.64L70.6522 25.1361L71.5205 24.64ZM71.1005 39.34L71.9527 39.8633L71.9567 39.8567L71.1005 39.34ZM65.3405 44.74L65.8163 45.6195L65.3405 44.74ZM57.0605 45.72C54.7438 45.72 52.5502 45.3029 50.4719 44.4715L49.7291 46.3285C52.0507 47.2571 54.4971 47.72 57.0605 47.72V45.72ZM50.4923 44.48C48.453 43.6114 46.7075 42.4083 45.245 40.8708L43.7959 42.2492C45.4534 43.9917 47.4279 45.3486 49.7086 46.32L50.4923 44.48ZM45.262 40.8891C43.8573 39.3365 42.8936 37.5066 42.3716 35.3815L40.4293 35.8585C41.0274 38.2934 42.1436 40.4235 43.7789 42.2309L45.262 40.8891ZM41.7333 36.563L48.8733 34.043L48.2076 32.157L41.0676 34.677L41.7333 36.563ZM47.5975 33.4328C48.3722 35.628 49.5802 37.3685 51.251 38.5878L52.4299 36.9722C51.1408 36.0315 50.1487 34.652 49.4835 32.7672L47.5975 33.4328ZM51.2655 38.5982C52.9316 39.7689 54.8774 40.34 57.0605 40.34V38.34C55.2435 38.34 53.7093 37.8711 52.4154 36.9618L51.2655 38.5982ZM57.0605 40.34C58.7849 40.34 60.3294 40.0164 61.6599 39.3282L60.741 37.5518C59.7515 38.0636 58.5361 38.34 57.0605 38.34V40.34ZM61.6477 39.3344C63.0119 38.6523 64.095 37.664 64.8753 36.379L63.1657 35.341C62.5859 36.296 61.789 37.0277 60.7533 37.5456L61.6477 39.3344ZM64.8832 36.3657C65.6666 35.0292 66.0405 33.4889 66.0405 31.78H64.0405C64.0405 33.1911 63.7343 34.3708 63.1578 35.3543L64.8832 36.3657ZM66.0405 31.78C66.0405 30.0735 65.6674 28.5589 64.8667 27.2872L63.1742 28.3528C63.7335 29.2411 64.0405 30.3665 64.0405 31.78H66.0405ZM64.8887 27.3239C64.1467 26.0253 63.0768 25.0301 61.7077 24.3456L60.8133 26.1344C61.8442 26.6499 62.6142 27.3747 63.1522 28.3161L64.8887 27.3239ZM61.7077 24.3456C60.3413 23.6624 58.7617 23.34 57.0005 23.34V25.34C58.5192 25.34 59.7796 25.6176 60.8133 26.1344L61.7077 24.3456ZM57.0005 23.34C56.1705 23.34 55.3075 23.4273 54.4134 23.5977L54.7876 25.5623C55.5734 25.4127 56.3105 25.34 57.0005 25.34V23.34ZM54.4044 23.5994C53.5291 23.7745 52.723 24.0407 51.9933 24.4056L52.8877 26.1944C53.438 25.9193 54.0718 25.7055 54.7966 25.5606L54.4044 23.5994ZM53.3431 24.8695L51.4831 20.9695L49.6779 21.8305L51.5379 25.7305L53.3431 24.8695ZM51.3322 22.0595L62.9122 8.85947L61.4087 7.54053L49.8287 20.7405L51.3322 22.0595ZM62.1605 7.2H43.9205V9.2H62.1605V7.2ZM44.9205 8.2V1.3H42.9205V8.2H44.9205ZM43.9205 2.3H71.3405V0.299996H43.9205V2.3ZM70.3405 1.3V7.72H72.3405V1.3H70.3405ZM70.5803 7.07031L58.9403 20.6903L60.4607 21.9897L72.1007 8.36969L70.5803 7.07031ZM60.6997 21.3792L60.8197 18.3192L58.8212 18.2408L58.7012 21.3008L60.6997 21.3792ZM59.8055 19.2799C62.3477 19.3178 64.5195 19.8664 66.3519 20.8925L67.3291 19.1475C65.1614 17.9336 62.6532 17.3222 59.8354 17.2801L59.8055 19.2799ZM66.3519 20.8925C68.1961 21.9253 69.6237 23.3363 70.6522 25.1361L72.3887 24.1439C71.1772 22.0237 69.4849 20.3547 67.3291 19.1475L66.3519 20.8925ZM70.6522 25.1361C71.6722 26.9212 72.2005 29.0443 72.2005 31.54H74.2005C74.2005 28.7557 73.6087 26.2788 72.3887 24.1439L70.6522 25.1361ZM72.2005 31.54C72.2005 34.2498 71.5442 36.6691 70.2443 38.8233L71.9567 39.8567C73.4567 37.3709 74.2005 34.5902 74.2005 31.54H72.2005ZM70.2483 38.8167C68.9437 40.9413 67.156 42.6209 64.8647 43.8605L65.8163 45.6195C68.4049 44.2191 70.4572 42.2987 71.9526 39.8633L70.2483 38.8167ZM64.8647 43.8605C62.5864 45.093 59.993 45.72 57.0605 45.72V47.72C60.288 47.72 63.2146 47.027 65.8163 45.6195L64.8647 43.8605Z" fill="#A7A7A7" mask="url(#path-1-outside-1_1936_735)"/>
</svg>
