<svg width="74" height="47" viewBox="0 0 74 47" fill="none" xmlns="http://www.w3.org/2000/svg">
<mask id="path-1-outside-1_2089_1548" maskUnits="userSpaceOnUse" x="-1" y="-1" width="76" height="49" fill="black">
<rect fill="white" x="-1" y="-1" width="76" height="49"/>
<path d="M18.24 46.72C14.68 46.72 11.56 45.76 8.88 43.84C6.2 41.92 4.1 39.22 2.58 35.74C1.1 32.26 0.36 28.22 0.36 23.62C0.36 18.98 1.1 14.94 2.58 11.5C4.06 8.06 6.14 5.38 8.82 3.46C11.5 1.54 14.62 0.579998 18.18 0.579998C21.82 0.579998 24.96 1.54 27.6 3.46C30.28 5.38 32.38 8.08 33.9 11.56C35.42 15 36.18 19.02 36.18 23.62C36.18 28.22 35.42 32.26 33.9 35.74C32.42 39.18 30.34 41.88 27.66 43.84C24.98 45.76 21.84 46.72 18.24 46.72ZM18.3 39.28C20.34 39.28 22.08 38.66 23.52 37.42C24.96 36.14 26.06 34.34 26.82 32.02C27.62 29.66 28.02 26.86 28.02 23.62C28.02 20.38 27.62 17.6 26.82 15.28C26.06 12.92 24.94 11.12 23.46 9.88C22.02 8.64 20.26 8.02 18.18 8.02C16.18 8.02 14.46 8.64 13.02 9.88C11.58 11.12 10.46 12.92 9.66 15.28C8.9 17.6 8.52 20.38 8.52 23.62C8.52 26.82 8.9 29.6 9.66 31.96C10.46 34.28 11.58 36.08 13.02 37.36C14.5 38.64 16.26 39.28 18.3 39.28ZM57.3005 46.72C54.9405 46.72 52.6805 46.28 50.5205 45.4C48.4005 44.52 46.5605 43.28 45.0005 41.68C43.4805 40.04 42.4405 38.1 41.8805 35.86L48.9605 33.34C49.6405 35.38 50.7405 36.9 52.2605 37.9C53.7805 38.86 55.4605 39.34 57.3005 39.34C58.8205 39.34 60.1605 39.02 61.3205 38.38C62.5205 37.7 63.4405 36.78 64.0805 35.62C64.7205 34.42 65.0405 33.04 65.0405 31.48C65.0405 29.92 64.7005 28.56 64.0205 27.4C63.3805 26.24 62.4805 25.34 61.3205 24.7C60.1605 24.02 58.8205 23.68 57.3005 23.68C55.7405 23.68 54.3205 24.02 53.0405 24.7C51.8005 25.38 50.9005 26.36 50.3405 27.64L43.6805 26.14L47.2205 1.3H71.5805V8.2H50.4605L53.5205 4.66L51.0005 23.38L48.6605 21.46C49.7805 19.82 51.1405 18.62 52.7405 17.86C54.3805 17.1 56.3605 16.72 58.6805 16.72C61.6405 16.72 64.2005 17.36 66.3605 18.64C68.5605 19.92 70.2605 21.66 71.4605 23.86C72.6605 26.06 73.2605 28.6 73.2605 31.48C73.2605 34.36 72.5605 36.96 71.1605 39.28C69.7605 41.6 67.8605 43.42 65.4605 44.74C63.0605 46.06 60.3405 46.72 57.3005 46.72Z"/>
</mask>
<path d="M8.88 43.84L8.29762 44.6529L8.88 43.84ZM2.58 35.74L1.65972 36.1314L1.6636 36.1403L2.58 35.74ZM2.58 11.5L1.66141 11.1048L2.58 11.5ZM8.82 3.46L8.23762 2.64708H8.23761L8.82 3.46ZM27.6 3.46L27.0118 4.26875L27.0176 4.27291L27.6 3.46ZM33.9 11.56L32.9836 11.9603L32.9853 11.9642L33.9 11.56ZM33.9 35.74L32.9836 35.3397L32.9814 35.3448L33.9 35.74ZM27.66 43.84L28.2424 44.653L28.2503 44.6472L27.66 43.84ZM23.52 37.42L24.1725 38.1778L24.1785 38.1726L24.1844 38.1674L23.52 37.42ZM26.82 32.02L25.8729 31.6989L25.8697 31.7087L26.82 32.02ZM26.82 15.28L25.8681 15.5865L25.8713 15.5963L25.8746 15.606L26.82 15.28ZM23.46 9.88L22.8074 10.6378L22.8178 10.6465L23.46 9.88ZM13.02 9.88L12.3675 9.12223V9.12223L13.02 9.88ZM9.66 15.28L8.71288 14.9589L8.70969 14.9687L9.66 15.28ZM9.66 31.96L8.70814 32.2665L8.71128 32.2763L8.71463 32.286L9.66 31.96ZM13.02 37.36L12.3556 38.1075L12.3658 38.1164L13.02 37.36ZM18.24 45.72C14.8713 45.72 11.9588 44.8156 9.46239 43.0271L8.29762 44.6529C11.1612 46.7044 14.4887 47.72 18.24 47.72V45.72ZM9.46239 43.0271C6.94994 41.2271 4.95541 38.6801 3.4964 35.3397L1.6636 36.1403C3.24459 39.7599 5.45006 42.6129 8.29762 44.6529L9.46239 43.0271ZM3.50024 35.3486C2.08295 32.0161 1.36 28.1139 1.36 23.62H-0.64C-0.64 28.3261 0.117051 32.5039 1.65976 36.1314L3.50024 35.3486ZM1.36 23.62C1.36 19.0844 2.0835 15.1843 3.49859 11.8952L1.66141 11.1048C0.116503 14.6957 -0.64 18.8756 -0.64 23.62H1.36ZM3.49859 11.8952C4.91663 8.59923 6.88968 6.07306 9.40239 4.27291L8.23761 2.64708C5.39032 4.68694 3.20337 7.52077 1.66141 11.1048L3.49859 11.8952ZM9.40239 4.27291C11.8988 2.48444 14.8113 1.58 18.18 1.58V-0.420002C14.4287 -0.420002 11.1012 0.595558 8.23762 2.64708L9.40239 4.27291ZM18.18 1.58C21.6341 1.58 24.5623 2.48723 27.0118 4.26873L28.1882 2.65126C25.3577 0.592765 22.0059 -0.420002 18.18 -0.420002V1.58ZM27.0176 4.27291C29.5301 6.07287 31.5246 8.61991 32.9836 11.9603L34.8164 11.1597C33.2354 7.54009 31.0299 4.68712 28.1824 2.64708L27.0176 4.27291ZM32.9853 11.9642C34.438 15.2518 35.18 19.1289 35.18 23.62H37.18C37.18 18.9111 36.402 14.7482 34.8147 11.1558L32.9853 11.9642ZM35.18 23.62C35.18 28.1107 34.4381 32.0097 32.9836 35.3397L34.8164 36.1403C36.4019 32.5103 37.18 28.3293 37.18 23.62H35.18ZM32.9814 35.3448C31.5628 38.6421 29.5877 41.1913 27.0697 43.0328L28.2503 44.6472C31.0924 42.5687 33.2772 39.7179 34.8186 36.1352L32.9814 35.3448ZM27.0776 43.0271C24.5832 44.8142 21.6513 45.72 18.24 45.72V47.72C22.0287 47.72 25.3768 46.7058 28.2424 44.6529L27.0776 43.0271ZM18.3 40.28C20.5605 40.28 22.5371 39.586 24.1725 38.1778L22.8675 36.6622C21.6229 37.734 20.1196 38.28 18.3 38.28V40.28ZM24.1844 38.1674C25.7875 36.7424 26.9697 34.7752 27.7703 32.3313L25.8697 31.7087C25.1503 33.9048 24.1325 35.5376 22.8556 36.6726L24.1844 38.1674ZM27.7671 32.341C28.6108 29.8519 29.02 26.9382 29.02 23.62H27.02C27.02 26.7818 26.6292 29.4681 25.8729 31.699L27.7671 32.341ZM29.02 23.62C29.02 20.3025 28.611 17.4064 27.7654 14.954L25.8746 15.606C26.629 17.7936 27.02 20.4575 27.02 23.62H29.02ZM27.7719 14.9735C26.9703 12.4843 25.7625 10.5045 24.1022 9.11348L22.8178 10.6465C24.1175 11.7355 25.1497 13.3557 25.8681 15.5865L27.7719 14.9735ZM24.1125 9.12223C22.4734 7.71075 20.4751 7.02 18.18 7.02V9.02C20.0449 9.02 21.5666 9.56924 22.8075 10.6378L24.1125 9.12223ZM18.18 7.02C15.9542 7.02 13.9991 7.71726 12.3675 9.12223L13.6725 10.6378C14.9209 9.56274 16.4058 9.02 18.18 9.02V7.02ZM12.3675 9.12223C10.7561 10.5098 9.55291 12.481 8.71293 14.959L10.6071 15.601C11.3671 13.359 12.4039 11.7302 13.6725 10.6378L12.3675 9.12223ZM8.70969 14.9687C7.90801 17.4159 7.52 20.3067 7.52 23.62H9.52C9.52 20.4533 9.892 17.7841 10.6103 15.5913L8.70969 14.9687ZM7.52 23.62C7.52 26.8955 7.90852 29.7835 8.70814 32.2665L10.6119 31.6535C9.89148 29.4165 9.52 26.7445 9.52 23.62H7.52ZM8.71463 32.286C9.55557 34.7247 10.7569 36.6863 12.3556 38.1074L13.6844 36.6126C12.4031 35.4737 11.3644 33.8353 10.6054 31.634L8.71463 32.286ZM12.3658 38.1164C14.0358 39.5607 16.0309 40.28 18.3 40.28V38.28C16.4891 38.28 14.9642 37.7193 13.6742 36.6036L12.3658 38.1164ZM50.5205 45.4L50.1371 46.3236L50.1432 46.3261L50.5205 45.4ZM45.0005 41.68L44.267 42.3598L44.2756 42.369L44.2845 42.3781L45.0005 41.68ZM41.8805 35.86L41.5451 34.9179L40.6902 35.2222L40.9103 36.1025L41.8805 35.86ZM48.9605 33.34L49.9092 33.0238L49.5865 32.0557L48.6251 32.3979L48.9605 33.34ZM52.2605 37.9L51.7109 38.7354L51.7186 38.7405L51.7265 38.7455L52.2605 37.9ZM61.3205 38.38L61.8036 39.2556L61.8135 39.25L61.3205 38.38ZM64.0805 35.62L64.956 36.1031L64.9595 36.0969L64.9628 36.0906L64.0805 35.62ZM64.0205 27.4L63.1449 27.8831L63.1512 27.8945L63.1578 27.9057L64.0205 27.4ZM61.3205 24.7L60.8148 25.5627L60.826 25.5693L60.8374 25.5756L61.3205 24.7ZM53.0405 24.7L52.5713 23.8168L52.5596 23.8232L53.0405 24.7ZM50.3405 27.64L50.1207 28.6156L50.9258 28.7969L51.2566 28.0408L50.3405 27.64ZM43.6805 26.14L42.6905 25.9989L42.5602 26.9127L43.4607 27.1156L43.6805 26.14ZM47.2205 1.3V0.299996H46.3529L46.2305 1.15891L47.2205 1.3ZM71.5805 1.3H72.5805V0.299996H71.5805V1.3ZM71.5805 8.2V9.2H72.5805V8.2H71.5805ZM50.4605 8.2L49.7039 7.54604L48.2742 9.2H50.4605V8.2ZM53.5205 4.66L54.5115 4.79341L54.9594 1.46616L52.7639 4.00605L53.5205 4.66ZM51.0005 23.38L50.3662 24.1531L51.7523 25.2904L51.9915 23.5134L51.0005 23.38ZM48.6605 21.46L47.8347 20.896L47.3182 21.6522L48.0262 22.2331L48.6605 21.46ZM52.7405 17.86L52.32 16.9526L52.3114 16.9567L52.7405 17.86ZM66.3605 18.64L65.8506 19.5003L65.8576 19.5043L66.3605 18.64ZM71.4605 23.86L72.3384 23.3811H72.3384L71.4605 23.86ZM71.1605 39.28L70.3043 38.7633L71.1605 39.28ZM65.4605 44.74L64.9786 43.8638L65.4605 44.74ZM57.3005 45.72C55.0683 45.72 52.9365 45.3045 50.8978 44.4739L50.1432 46.3261C52.4244 47.2555 54.8127 47.72 57.3005 47.72V45.72ZM50.9038 44.4764C48.9054 43.6468 47.1794 42.4823 45.7165 40.9819L44.2845 42.3781C45.9415 44.0777 47.8956 45.3932 50.1371 46.3236L50.9038 44.4764ZM45.7339 41.0002C44.3322 39.4878 43.3712 37.6997 42.8506 35.6175L40.9103 36.1025C41.5098 38.5003 42.6288 40.5922 44.267 42.3598L45.7339 41.0002ZM42.2158 36.8021L49.2958 34.2821L48.6251 32.3979L41.5451 34.9179L42.2158 36.8021ZM48.0118 33.6562C48.7493 35.8689 49.9707 37.5906 51.7109 38.7354L52.8101 37.0646C51.5102 36.2094 50.5316 34.8911 49.9092 33.0238L48.0118 33.6562ZM51.7265 38.7455C53.4102 39.8089 55.2761 40.34 57.3005 40.34V38.34C55.6448 38.34 54.1507 37.9111 52.7945 37.0545L51.7265 38.7455ZM57.3005 40.34C58.9643 40.34 60.4751 39.9885 61.8036 39.2556L60.8374 37.5044C59.8459 38.0515 58.6767 38.34 57.3005 38.34V40.34ZM61.8135 39.25C63.1674 38.4828 64.223 37.4318 64.956 36.1031L63.2049 35.1369C62.658 36.1282 61.8736 36.9172 60.8275 37.51L61.8135 39.25ZM64.9628 36.0906C65.6908 34.7257 66.0405 33.1798 66.0405 31.48H64.0405C64.0405 32.9002 63.7502 34.1143 63.1981 35.1494L64.9628 36.0906ZM66.0405 31.48C66.0405 29.7711 65.6666 28.2308 64.8832 26.8943L63.1578 27.9057C63.7343 28.8892 64.0405 30.0689 64.0405 31.48H66.0405ZM64.896 26.9169C64.1649 25.5917 63.1288 24.5556 61.8036 23.8244L60.8374 25.5756C61.8321 26.1244 62.5961 26.8883 63.1449 27.8831L64.896 26.9169ZM61.8262 23.8373C60.4936 23.0561 58.9746 22.68 57.3005 22.68V24.68C58.6664 24.68 59.8273 24.9839 60.8148 25.5627L61.8262 23.8373ZM57.3005 22.68C55.5897 22.68 54.0067 23.0543 52.5713 23.8169L53.5096 25.5831C54.6343 24.9857 55.8913 24.68 57.3005 24.68V22.68ZM52.5596 23.8232C51.1285 24.608 50.074 25.7541 49.4243 27.2392L51.2566 28.0408C51.7269 26.9659 52.4724 26.152 53.5213 25.5768L52.5596 23.8232ZM50.5602 26.6644L43.9002 25.1644L43.4607 27.1156L50.1207 28.6156L50.5602 26.6644ZM44.6705 26.2811L48.2105 1.44108L46.2305 1.15891L42.6905 25.9989L44.6705 26.2811ZM47.2205 2.3H71.5805V0.299996H47.2205V2.3ZM70.5805 1.3V8.2H72.5805V1.3H70.5805ZM71.5805 7.2H50.4605V9.2H71.5805V7.2ZM51.217 8.85395L54.277 5.31395L52.7639 4.00605L49.7039 7.54604L51.217 8.85395ZM52.5294 4.52659L50.0094 23.2466L51.9915 23.5134L54.5115 4.79341L52.5294 4.52659ZM51.6348 22.6069L49.2948 20.6869L48.0262 22.2331L50.3662 24.1531L51.6348 22.6069ZM49.4863 22.024C50.5188 20.5121 51.7482 19.4384 53.1695 18.7633L52.3114 16.9567C50.5327 17.8016 49.0422 19.1279 47.8347 20.896L49.4863 22.024ZM53.1609 18.7673C54.6374 18.0831 56.466 17.72 58.6805 17.72V15.72C56.2549 15.72 54.1236 16.1169 52.32 16.9527L53.1609 18.7673ZM58.6805 17.72C61.4935 17.72 63.8707 18.3269 65.8507 19.5003L66.8703 17.7797C64.5303 16.393 61.7875 15.72 58.6805 15.72V17.72ZM65.8576 19.5043C67.9023 20.694 69.4715 22.3018 70.5826 24.3389L72.3384 23.3811C71.0495 21.0182 69.2186 19.146 66.8634 17.7757L65.8576 19.5043ZM70.5826 24.3389C71.6912 26.3713 72.2605 28.7421 72.2605 31.48H74.2605C74.2605 28.4579 73.6297 25.7487 72.3384 23.3811L70.5826 24.3389ZM72.2605 31.48C72.2605 34.1898 71.6042 36.6091 70.3043 38.7633L72.0167 39.7967C73.5167 37.3109 74.2605 34.5302 74.2605 31.48H72.2605ZM70.3043 38.7633C68.9963 40.9309 67.2261 42.6276 64.9786 43.8638L65.9424 45.6162C68.4949 44.2124 70.5247 42.2691 72.0167 39.7967L70.3043 38.7633ZM64.9786 43.8638C62.7419 45.0939 60.1909 45.72 57.3005 45.72V47.72C60.4901 47.72 63.379 47.0261 65.9424 45.6162L64.9786 43.8638Z" fill="#E4D4FF" mask="url(#path-1-outside-1_2089_1548)"/>
</svg>
