<svg width="238" height="176" viewBox="0 0 238 176" fill="none" xmlns="http://www.w3.org/2000/svg">
    <g clip-path="url(#clip0_1936_940)">
        <path d="M176.71 117.1C196.98 117.12 217.24 117.14 237.51 117.16L236.54 118.08L236.54 57.3101L237.51 58.2301C217.25 58.2501 196.98 58.2701 176.71 58.2901L177.62 57.3101L177.62 118.08L176.71 117.1Z" fill="white"/>
        <path d="M117.83 117.17L117.83 175.19L176.71 175.19L176.71 117.1L177.62 118.08L116.85 118.08L117.83 117.17Z" fill="white"/>
        <path d="M176.71 58.29L176.71 0.220032L117.83 0.220034C117.83 19.4 117.83 38.81 117.83 58.22L116.85 57.31L177.62 57.31L176.71 58.29Z" fill="white"/>
        <path d="M57.1101 117.07C77.3501 117.1 97.5901 117.14 117.83 117.17L116.85 118.08L116.85 57.3101L117.83 58.2201L58.0601 58.2201L58.0601 118.01L57.1201 117.07L57.1101 117.07Z" fill="white"/>
        <path d="M58.0601 118.01L7.37902e-05 118.01L7.62939e-05 175.29L57.1201 175.29C57.1201 155.83 57.1201 136.45 57.1201 117.07L58.0701 118.01L58.0601 118.01Z" fill="white"/>
    </g>
    <defs>
        <clipPath id="clip0_1936_940">
            <rect width="175.07" height="237.51" fill="white" transform="matrix(-4.37114e-08 -1 -1 4.37114e-08 237.51 175.29)"/>
        </clipPath>
    </defs>
</svg>
