<svg width="227" height="53" viewBox="0 0 228 54" fill="none" xmlns="http://www.w3.org/2000/svg">
    <mask id="path-1-outside-1_1945_1350" maskUnits="userSpaceOnUse" x="-1" y="-1" width="229" height="55" fill="black">
        <rect fill="white" x="-1" y="-1" width="229" height="55"/>
        <path d="M18.256 42.576C15.696 42.576 13.328 42.112 11.152 41.184C9.008 40.256 7.12 38.96 5.488 37.296C3.888 35.632 2.64 33.68 1.744 31.44C0.848 29.2 0.4 26.752 0.4 24.096C0.4 21.44 0.832 18.992 1.696 16.752C2.592 14.48 3.84 12.528 5.44 10.896C7.072 9.232 8.976 7.952 11.152 7.056C13.328 6.128 15.696 5.664 18.256 5.664C20.816 5.664 23.104 6.096 25.12 6.96C27.168 7.824 28.896 8.976 30.304 10.416C31.712 11.824 32.72 13.376 33.328 15.072L27.472 17.808C26.8 16.016 25.664 14.544 24.064 13.392C22.464 12.208 20.528 11.616 18.256 11.616C16.016 11.616 14.032 12.144 12.304 13.2C10.608 14.256 9.28 15.712 8.32 17.568C7.392 19.424 6.928 21.6 6.928 24.096C6.928 26.592 7.392 28.784 8.32 30.672C9.28 32.528 10.608 33.984 12.304 35.04C14.032 36.096 16.016 36.624 18.256 36.624C20.528 36.624 22.464 36.048 24.064 34.896C25.664 33.712 26.8 32.224 27.472 30.432L33.328 33.168C32.72 34.864 31.712 36.432 30.304 37.872C28.896 39.28 27.168 40.416 25.12 41.28C23.104 42.144 20.816 42.576 18.256 42.576ZM45.5511 42.576C43.7271 42.576 42.1431 42.272 40.7991 41.664C39.4551 41.056 38.4151 40.192 37.6791 39.072C36.9431 37.92 36.5751 36.592 36.5751 35.088C36.5751 33.648 36.8951 32.368 37.5351 31.248C38.1751 30.096 39.1671 29.136 40.5111 28.368C41.8551 27.6 43.5511 27.056 45.5991 26.736L54.1431 25.344V30.144L46.7991 31.392C45.5511 31.616 44.6231 32.016 44.0151 32.592C43.4071 33.168 43.1031 33.92 43.1031 34.848C43.1031 35.744 43.4391 36.464 44.1111 37.008C44.8151 37.52 45.6791 37.776 46.7031 37.776C48.0151 37.776 49.1671 37.504 50.1591 36.96C51.1831 36.384 51.9671 35.6 52.5111 34.608C53.0871 33.616 53.3751 32.528 53.3751 31.344V24.624C53.3751 23.504 52.9271 22.576 52.0311 21.84C51.1671 21.072 50.0151 20.688 48.5751 20.688C47.2311 20.688 46.0311 21.056 44.9751 21.792C43.9511 22.496 43.1991 23.44 42.7191 24.624L37.5831 22.128C38.0951 20.752 38.8951 19.568 39.9831 18.576C41.1031 17.552 42.4151 16.752 43.9191 16.176C45.4231 15.6 47.0551 15.312 48.8151 15.312C50.9591 15.312 52.8471 15.712 54.4791 16.512C56.1111 17.28 57.3751 18.368 58.2711 19.776C59.1991 21.152 59.6631 22.768 59.6631 24.624V42H53.7111V37.536L55.0551 37.44C54.3831 38.56 53.5831 39.504 52.6551 40.272C51.7271 41.008 50.6711 41.584 49.4871 42C48.3031 42.384 46.9911 42.576 45.5511 42.576ZM49.2951 13.2L46.5591 10.08C47.4551 9.632 48.0791 9.184 48.4311 8.736C48.7831 8.288 48.9591 7.776 48.9591 7.2C48.9591 6.592 48.7191 6.112 48.2391 5.76C47.7591 5.408 47.0871 5.232 46.2231 5.232C45.8391 5.232 45.4391 5.264 45.0231 5.328C44.6071 5.36 44.2071 5.472 43.8231 5.664L43.1031 1.68C43.6471 1.392 44.2871 1.184 45.0231 1.056C45.7591 0.927998 46.5271 0.863997 47.3271 0.863997C49.5031 0.863997 51.2471 1.392 52.5591 2.448C53.9031 3.504 54.5751 4.896 54.5751 6.624C54.5751 7.936 54.0951 9.168 53.1351 10.32C52.2071 11.44 50.9271 12.4 49.2951 13.2ZM65.4749 42V15.888H71.3789V21.936L70.7069 20.928C71.1869 19.04 72.1469 17.632 73.5869 16.704C75.0269 15.776 76.7229 15.312 78.6749 15.312C80.8189 15.312 82.7069 15.872 84.3389 16.992C85.9709 18.112 87.0269 19.584 87.5069 21.408L85.7309 21.552C86.5309 19.472 87.7309 17.92 89.3309 16.896C90.9309 15.84 92.7709 15.312 94.8509 15.312C96.7069 15.312 98.3549 15.728 99.7949 16.56C101.267 17.392 102.419 18.56 103.251 20.064C104.083 21.536 104.499 23.248 104.499 25.2V42H98.2109V26.688C98.2109 25.536 98.0029 24.544 97.5869 23.712C97.1709 22.88 96.5949 22.24 95.8589 21.792C95.1229 21.312 94.2269 21.072 93.1709 21.072C92.1789 21.072 91.2989 21.312 90.5309 21.792C89.7629 22.24 89.1709 22.88 88.7549 23.712C88.3389 24.544 88.1309 25.536 88.1309 26.688V42H81.8429V26.688C81.8429 25.536 81.6349 24.544 81.2189 23.712C80.8029 22.88 80.2109 22.24 79.4429 21.792C78.7069 21.312 77.8269 21.072 76.8029 21.072C75.8109 21.072 74.9309 21.312 74.1629 21.792C73.3949 22.24 72.8029 22.88 72.3869 23.712C71.9709 24.544 71.7629 25.536 71.7629 26.688V42H65.4749ZM118.35 42V15.888H124.254V21.024L123.774 20.112C124.382 18.544 125.374 17.36 126.75 16.56C128.158 15.728 129.79 15.312 131.646 15.312C133.566 15.312 135.262 15.728 136.734 16.56C138.238 17.392 139.406 18.56 140.238 20.064C141.07 21.536 141.486 23.248 141.486 25.2V42H135.198V26.688C135.198 25.536 134.974 24.544 134.526 23.712C134.078 22.88 133.454 22.24 132.654 21.792C131.886 21.312 130.974 21.072 129.918 21.072C128.894 21.072 127.982 21.312 127.182 21.792C126.382 22.24 125.758 22.88 125.31 23.712C124.862 24.544 124.638 25.536 124.638 26.688V42H118.35ZM146.803 42V5.664H153.091V21.024L152.227 20.112C152.835 18.544 153.827 17.36 155.203 16.56C156.611 15.728 158.243 15.312 160.099 15.312C162.019 15.312 163.715 15.728 165.187 16.56C166.691 17.392 167.859 18.56 168.691 20.064C169.523 21.536 169.939 23.248 169.939 25.2V42H163.651V26.688C163.651 25.536 163.427 24.544 162.979 23.712C162.531 22.88 161.907 22.24 161.107 21.792C160.339 21.312 159.427 21.072 158.371 21.072C157.347 21.072 156.435 21.312 155.635 21.792C154.835 22.24 154.211 22.88 153.763 23.712C153.315 24.544 153.091 25.536 153.091 26.688V42H146.803ZM183.176 42.576C181.352 42.576 179.768 42.272 178.424 41.664C177.08 41.056 176.04 40.192 175.304 39.072C174.568 37.92 174.2 36.592 174.2 35.088C174.2 33.648 174.52 32.368 175.16 31.248C175.8 30.096 176.792 29.136 178.136 28.368C179.48 27.6 181.176 27.056 183.224 26.736L191.768 25.344V30.144L184.424 31.392C183.176 31.616 182.248 32.016 181.64 32.592C181.032 33.168 180.728 33.92 180.728 34.848C180.728 35.744 181.064 36.464 181.736 37.008C182.44 37.52 183.304 37.776 184.328 37.776C185.64 37.776 186.792 37.504 187.784 36.96C188.808 36.384 189.592 35.6 190.136 34.608C190.712 33.616 191 32.528 191 31.344V24.624C191 23.504 190.552 22.576 189.656 21.84C188.792 21.072 187.64 20.688 186.2 20.688C184.856 20.688 183.656 21.056 182.6 21.792C181.576 22.496 180.824 23.44 180.344 24.624L175.208 22.128C175.72 20.752 176.52 19.568 177.608 18.576C178.728 17.552 180.04 16.752 181.544 16.176C183.048 15.6 184.68 15.312 186.44 15.312C188.584 15.312 190.472 15.712 192.104 16.512C193.736 17.28 195 18.368 195.896 19.776C196.824 21.152 197.288 22.768 197.288 24.624V42H191.336V37.536L192.68 37.44C192.008 38.56 191.208 39.504 190.28 40.272C189.352 41.008 188.296 41.584 187.112 42C185.928 42.384 184.616 42.576 183.176 42.576ZM182.984 52.896V46.32H189.56V52.896H182.984ZM177.128 11.28L182.744 3.36H190.184L195.848 11.28H189.608L186.488 6.96L183.368 11.28H177.128ZM203.1 42V15.888H209.004V21.024L208.524 20.112C209.132 18.544 210.124 17.36 211.5 16.56C212.908 15.728 214.54 15.312 216.396 15.312C218.316 15.312 220.012 15.728 221.484 16.56C222.988 17.392 224.156 18.56 224.988 20.064C225.82 21.536 226.236 23.248 226.236 25.2V42H219.948V26.688C219.948 25.536 219.724 24.544 219.276 23.712C218.828 22.88 218.204 22.24 217.404 21.792C216.636 21.312 215.724 21.072 214.668 21.072C213.644 21.072 212.732 21.312 211.932 21.792C211.132 22.24 210.508 22.88 210.06 23.712C209.612 24.544 209.388 25.536 209.388 26.688V42H203.1Z"/>
    </mask>
    <path d="M11.152 41.184L10.7548 42.1017L10.7597 42.1038L11.152 41.184ZM5.488 37.296L4.76713 37.9891L4.77406 37.9962L5.488 37.296ZM1.744 31.44L0.815523 31.8114L0.815523 31.8114L1.744 31.44ZM1.696 16.752L0.765701 16.3851L0.762999 16.3921L1.696 16.752ZM5.44 10.896L4.72606 10.1958L4.72593 10.1959L5.44 10.896ZM11.152 7.056L11.5328 7.98075L11.5443 7.97584L11.152 7.056ZM25.12 6.96L24.7261 7.87916L24.7313 7.88136L25.12 6.96ZM30.304 10.416L29.589 11.1152L29.5969 11.1231L30.304 10.416ZM33.328 15.072L33.7513 15.978L34.5768 15.5923L34.2693 14.7345L33.328 15.072ZM27.472 17.808L26.5357 18.1591L26.9154 19.1718L27.8953 18.714L27.472 17.808ZM24.064 13.392L23.4691 14.1959L23.4797 14.2035L24.064 13.392ZM12.304 13.2L11.7825 12.3467L11.7754 12.3511L12.304 13.2ZM8.32 17.568L7.4317 17.1085L7.42557 17.1208L8.32 17.568ZM8.32 30.672L7.42255 31.1131L7.42707 31.1223L7.43178 31.1314L8.32 30.672ZM12.304 35.04L11.7754 35.8889L11.7826 35.8933L12.304 35.04ZM24.064 34.896L24.6484 35.7076L24.6588 35.6998L24.064 34.896ZM27.472 30.432L27.8953 29.526L26.9154 29.0682L26.5357 30.0809L27.472 30.432ZM33.328 33.168L34.2693 33.5055L34.5768 32.6477L33.7513 32.262L33.328 33.168ZM30.304 37.872L31.0112 38.5792L31.019 38.5711L30.304 37.872ZM25.12 41.28L24.7313 40.3586L24.7261 40.3609L25.12 41.28ZM18.256 41.576C15.8196 41.576 13.5864 41.135 11.5443 40.2642L10.7597 42.1038C13.0696 43.089 15.5724 43.576 18.256 43.576V41.576ZM11.5492 40.2663C9.52358 39.3895 7.7432 38.1673 6.20194 36.5958L4.77406 37.9962C6.4968 39.7527 8.49243 41.1225 10.7548 42.1017L11.5492 40.2663ZM6.20883 36.6029C4.70213 35.0359 3.52283 33.1945 2.67248 31.0686L0.815523 31.8114C1.75717 34.1655 3.07387 36.2281 4.76717 37.9891L6.20883 36.6029ZM2.67248 31.0686C1.82828 28.9581 1.4 26.6376 1.4 24.096H-0.6C-0.6 26.8664 -0.132277 29.4419 0.815523 31.8114L2.67248 31.0686ZM1.4 24.096C1.4 21.55 1.81376 19.2255 2.629 17.1119L0.762999 16.3921C-0.149755 18.7585 -0.6 21.33 -0.6 24.096H1.4ZM2.62627 17.1189C3.47662 14.9626 4.65399 13.1262 6.15407 11.5961L4.72593 10.1959C3.02601 11.9298 1.70738 13.9974 0.765727 16.3851L2.62627 17.1189ZM6.15394 11.5962C7.69027 10.0298 9.48061 8.82567 11.5328 7.98068L10.7713 6.13132C8.47139 7.07832 6.45373 8.43424 4.72606 10.1958L6.15394 11.5962ZM11.5443 7.97584C13.5864 7.10495 15.8196 6.664 18.256 6.664V4.664C15.5724 4.664 13.0696 5.15104 10.7597 6.13615L11.5443 7.97584ZM18.256 6.664C20.703 6.664 22.8536 7.07665 24.7261 7.87914L25.5139 6.04085C23.3544 5.11535 20.929 4.664 18.256 4.664V6.664ZM24.7313 7.88136C26.6696 8.69908 28.2831 9.77956 29.589 11.1151L31.019 9.71688C29.5089 8.17244 27.6664 6.94892 25.5087 6.03863L24.7313 7.88136ZM29.5969 11.1231C30.9116 12.4378 31.8335 13.8665 32.3867 15.4095L34.2693 14.7345C33.6065 12.8855 32.5124 11.2102 31.0111 9.70889L29.5969 11.1231ZM32.9047 14.166L27.0487 16.902L27.8953 18.714L33.7513 15.978L32.9047 14.166ZM28.4083 17.4569C27.6648 15.4742 26.4034 13.8441 24.6483 12.5805L23.4797 14.2035C24.9246 15.2439 25.9352 16.5578 26.5357 18.1591L28.4083 17.4569ZM24.6588 12.5882C22.8629 11.2592 20.7106 10.616 18.256 10.616V12.616C20.3454 12.616 22.0651 13.1568 23.4692 14.1958L24.6588 12.5882ZM18.256 10.616C15.8521 10.616 13.6839 11.1848 11.7826 12.3467L12.8255 14.0533C14.3801 13.1032 16.1799 12.616 18.256 12.616V10.616ZM11.7754 12.3511C9.91954 13.5067 8.47049 15.1004 7.43178 17.1086L9.20822 18.0274C10.0895 16.3236 11.2965 15.0053 12.8326 14.0489L11.7754 12.3511ZM7.42557 17.1208C6.41544 19.141 5.928 21.4759 5.928 24.096H7.928C7.928 21.7241 8.36856 19.707 9.21443 18.0152L7.42557 17.1208ZM5.928 24.096C5.928 26.7167 6.41562 29.0645 7.42255 31.1131L9.21745 30.2309C8.36838 28.5035 7.928 26.4673 7.928 24.096H5.928ZM7.43178 31.1314C8.47049 33.1396 9.91954 34.7333 11.7754 35.8889L12.8326 34.1911C11.2965 33.2347 10.0895 31.9164 9.20822 30.2126L7.43178 31.1314ZM11.7826 35.8933C13.6839 37.0552 15.8521 37.624 18.256 37.624V35.624C16.1799 35.624 14.3801 35.1368 12.8255 34.1867L11.7826 35.8933ZM18.256 37.624C20.7046 37.624 22.8531 37.0001 24.6483 35.7075L23.4797 34.0845C22.0749 35.0959 20.3514 35.624 18.256 35.624V37.624ZM24.6588 35.6998C26.4074 34.4059 27.6658 32.7633 28.4083 30.7831L26.5357 30.0809C25.9342 31.6847 24.9206 33.0181 23.4692 34.0922L24.6588 35.6998ZM27.0487 31.338L32.9047 34.074L33.7513 32.262L27.8953 29.526L27.0487 31.338ZM32.3867 32.8305C31.8327 34.3759 30.9083 35.8236 29.589 37.1729L31.019 38.5711C32.5157 37.0404 33.6074 35.3521 34.2693 33.5055L32.3867 32.8305ZM29.5969 37.1649C28.2902 38.4715 26.6741 39.539 24.7313 40.3586L25.5087 42.2014C27.6619 41.293 29.5018 40.0885 31.0111 38.5791L29.5969 37.1649ZM24.7261 40.3609C22.8536 41.1633 20.703 41.576 18.256 41.576V43.576C20.929 43.576 23.3544 43.1247 25.5139 42.1991L24.7261 40.3609ZM40.7991 41.664L40.387 42.5751L40.387 42.5751L40.7991 41.664ZM37.6791 39.072L36.8364 39.6104L36.8434 39.6212L37.6791 39.072ZM37.5351 31.248L38.4034 31.7442L38.4093 31.7336L37.5351 31.248ZM40.5111 28.368L41.0073 29.2362L41.0073 29.2362L40.5111 28.368ZM45.5991 26.736L45.7535 27.724L45.7599 27.723L45.5991 26.736ZM54.1431 25.344H55.1431V24.1679L53.9823 24.357L54.1431 25.344ZM54.1431 30.144L54.3107 31.1299L55.1431 30.9884V30.144H54.1431ZM46.7991 31.392L46.6316 30.4061L46.6225 30.4077L46.7991 31.392ZM44.0151 32.592L43.3274 31.866L43.3274 31.866L44.0151 32.592ZM44.1111 37.008L43.4819 37.7852L43.502 37.8015L43.523 37.8167L44.1111 37.008ZM50.1591 36.96L50.64 37.8369L50.6494 37.8316L50.1591 36.96ZM52.5111 34.608L51.6463 34.1059L51.6402 34.1164L51.6343 34.1272L52.5111 34.608ZM52.0311 21.84L51.3668 22.5874L51.3813 22.6004L51.3964 22.6127L52.0311 21.84ZM44.9751 21.792L45.5417 22.6161L45.5469 22.6124L44.9751 21.792ZM42.7191 24.624L42.282 25.5234L43.244 25.9909L43.6459 24.9997L42.7191 24.624ZM37.5831 22.128L36.6459 21.7793L36.3292 22.6304L37.146 23.0274L37.5831 22.128ZM39.9831 18.576L40.6569 19.315L40.6579 19.314L39.9831 18.576ZM43.9191 16.176L43.5615 15.2421L43.5615 15.2421L43.9191 16.176ZM54.4791 16.512L54.039 17.4099L54.0461 17.4134L54.0533 17.4168L54.4791 16.512ZM58.2711 19.776L57.4275 20.3129L57.4346 20.3241L57.4421 20.3351L58.2711 19.776ZM59.6631 42V43H60.6631V42H59.6631ZM53.7111 42H52.7111V43H53.7111V42ZM53.7111 37.536L53.6399 36.5385L52.7111 36.6049V37.536H53.7111ZM55.0551 37.44L55.9126 37.9545L56.902 36.3055L54.9839 36.4425L55.0551 37.44ZM52.6551 40.272L53.2765 41.0555L53.2847 41.049L53.2927 41.0424L52.6551 40.272ZM49.4871 42L49.7956 42.9512L49.8072 42.9475L49.8186 42.9435L49.4871 42ZM49.2951 13.2L48.5433 13.8593L49.048 14.4348L49.7353 14.0979L49.2951 13.2ZM46.5591 10.08L46.1119 9.18557L44.9529 9.76507L45.8073 10.7393L46.5591 10.08ZM48.2391 5.76L48.8305 4.95359L48.8305 4.95359L48.2391 5.76ZM45.0231 5.328L45.0998 6.32505L45.1377 6.32214L45.1752 6.31637L45.0231 5.328ZM43.8231 5.664L42.8391 5.84184L43.0765 7.15537L44.2703 6.55843L43.8231 5.664ZM43.1031 1.68L42.6352 0.796211L41.989 1.13832L42.1191 1.85784L43.1031 1.68ZM52.5591 2.448L51.9321 3.22706L51.9413 3.23432L52.5591 2.448ZM53.1351 10.32L52.3669 9.67981L52.3651 9.68198L53.1351 10.32ZM45.5511 41.576C43.8365 41.576 42.3989 41.2902 41.2113 40.7529L40.387 42.5751C41.8873 43.2538 43.6177 43.576 45.5511 43.576V41.576ZM41.2113 40.7529C40.0219 40.2148 39.1364 39.4688 38.5148 38.5228L36.8434 39.6212C37.6938 40.9152 38.8883 41.8972 40.387 42.5751L41.2113 40.7529ZM38.5218 38.5336C37.8987 37.5583 37.5751 36.421 37.5751 35.088H35.5751C35.5751 36.763 35.9875 38.2817 36.8364 39.6104L38.5218 38.5336ZM37.5751 35.088C37.5751 33.8013 37.8594 32.696 38.4034 31.7441L36.6669 30.7519C35.9308 32.04 35.5751 33.4947 35.5751 35.088H37.5751ZM38.4093 31.7336C38.9461 30.7673 39.7938 29.9296 41.0073 29.2362L40.015 27.4998C38.5404 28.3424 37.4041 29.4247 36.661 30.7624L38.4093 31.7336ZM41.0073 29.2362C42.2165 28.5453 43.7874 28.0312 45.7535 27.724L45.4447 25.748C43.3148 26.0808 41.4938 26.6547 40.015 27.4998L41.0073 29.2362ZM45.7599 27.723L54.3039 26.331L53.9823 24.357L45.4383 25.749L45.7599 27.723ZM53.1431 25.344V30.144H55.1431V25.344H53.1431ZM53.9756 29.1581L46.6316 30.4061L46.9667 32.3779L54.3107 31.1299L53.9756 29.1581ZM46.6225 30.4077C45.2746 30.6496 44.1322 31.1036 43.3274 31.866L44.7029 33.318C45.114 32.9284 45.8276 32.5823 46.9758 32.3763L46.6225 30.4077ZM43.3274 31.866C42.4974 32.6523 42.1031 33.6782 42.1031 34.848H44.1031C44.1031 34.1618 44.3168 33.6837 44.7029 33.318L43.3274 31.866ZM42.1031 34.848C42.1031 36.0331 42.5657 37.0435 43.4819 37.7852L44.7403 36.2308C44.3125 35.8845 44.1031 35.4549 44.1031 34.848H42.1031ZM43.523 37.8167C44.4265 38.4739 45.5062 38.776 46.7031 38.776V36.776C45.852 36.776 45.2037 36.5661 44.6993 36.1993L43.523 37.8167ZM46.7031 38.776C48.1562 38.776 49.4786 38.4737 50.64 37.8368L49.6783 36.0832C48.8557 36.5343 47.8741 36.776 46.7031 36.776V38.776ZM50.6494 37.8316C51.8296 37.1677 52.7506 36.2511 53.3879 35.0888L51.6343 34.1272C51.1837 34.9489 50.5366 35.6003 49.6689 36.0884L50.6494 37.8316ZM53.3759 35.1101C54.0434 33.9606 54.3751 32.6984 54.3751 31.344H52.3751C52.3751 32.3576 52.1308 33.2714 51.6463 34.1059L53.3759 35.1101ZM54.3751 31.344V24.624H52.3751V31.344H54.3751ZM54.3751 24.624C54.3751 23.1928 53.7837 21.9855 52.6659 21.0673L51.3964 22.6127C52.0706 23.1665 52.3751 23.8152 52.3751 24.624H54.3751ZM52.6955 21.0926C51.6066 20.1246 50.1975 19.688 48.5751 19.688V21.688C49.8327 21.688 50.7277 22.0194 51.3668 22.5874L52.6955 21.0926ZM48.5751 19.688C47.0362 19.688 45.6348 20.1133 44.4033 20.9716L45.5469 22.6124C46.4275 21.9987 47.426 21.688 48.5751 21.688V19.688ZM44.4086 20.968C43.2185 21.7862 42.3438 22.8882 41.7924 24.2483L43.6459 24.9997C44.0545 23.9918 44.6838 23.2058 45.5417 22.616L44.4086 20.968ZM43.1562 23.7246L38.0202 21.2286L37.146 23.0274L42.282 25.5234L43.1562 23.7246ZM38.5203 22.4767C38.9767 21.2504 39.6862 20.2 40.6569 19.315L39.3094 17.837C38.1041 18.936 37.2136 20.2536 36.6459 21.7793L38.5203 22.4767ZM40.6579 19.314C41.6798 18.3797 42.8826 17.6438 44.2768 17.1099L43.5615 15.2421C41.9477 15.8602 40.5264 16.7243 39.3084 17.838L40.6579 19.314ZM44.2768 17.1099C45.6564 16.5815 47.166 16.312 48.8151 16.312V14.312C46.9442 14.312 45.1898 14.6185 43.5615 15.2421L44.2768 17.1099ZM48.8151 16.312C50.8338 16.312 52.5665 16.6881 54.039 17.4099L54.9193 15.6141C53.1278 14.7359 51.0845 14.312 48.8151 14.312V16.312ZM54.0533 17.4168C55.5284 18.111 56.6413 19.0775 57.4275 20.3129L59.1148 19.2391C58.1089 17.6585 56.6938 16.449 54.9049 15.6072L54.0533 17.4168ZM57.4421 20.3351C58.2457 21.5268 58.6631 22.9428 58.6631 24.624H60.6631C60.6631 22.5932 60.1525 20.7772 59.1002 19.2169L57.4421 20.3351ZM58.6631 24.624V42H60.6631V24.624H58.6631ZM59.6631 41H53.7111V43H59.6631V41ZM54.7111 42V37.536H52.7111V42H54.7111ZM53.7824 38.5335L55.1264 38.4375L54.9839 36.4425L53.6399 36.5385L53.7824 38.5335ZM54.1976 36.9255C53.579 37.9566 52.8512 38.8117 52.0176 39.5016L53.2927 41.0424C54.315 40.1963 55.1873 39.1634 55.9126 37.9545L54.1976 36.9255ZM52.0337 39.4885C51.1979 40.1514 50.2411 40.6752 49.1556 41.0565L49.8186 42.9435C51.1012 42.4928 52.2564 41.8646 53.2765 41.0555L52.0337 39.4885ZM49.1786 41.0488C48.1085 41.3958 46.9025 41.576 45.5511 41.576V43.576C47.0798 43.576 48.4978 43.3722 49.7956 42.9512L49.1786 41.0488ZM50.047 12.5407L47.311 9.42068L45.8073 10.7393L48.5433 13.8593L50.047 12.5407ZM47.0063 10.9744C47.9489 10.5032 48.7294 9.97496 49.2174 9.35382L47.6448 8.11818C47.4288 8.39304 46.9614 8.76084 46.1119 9.18557L47.0063 10.9744ZM49.2174 9.35382C49.7095 8.72755 49.9591 7.99739 49.9591 7.2H47.9591C47.9591 7.55461 47.8567 7.84845 47.6448 8.11818L49.2174 9.35382ZM49.9591 7.2C49.9591 6.28153 49.5738 5.4987 48.8305 4.95359L47.6478 6.5664C47.8644 6.7253 47.9591 6.90246 47.9591 7.2H49.9591ZM48.8305 4.95359C48.1171 4.43047 47.2076 4.232 46.2231 4.232V6.232C46.9666 6.232 47.4011 6.38552 47.6478 6.5664L48.8305 4.95359ZM46.2231 4.232C45.7836 4.232 45.3326 4.26861 44.8711 4.33963L45.1752 6.31637C45.5456 6.25938 45.8946 6.232 46.2231 6.232V4.232ZM44.9464 4.33094C44.3977 4.37316 43.8722 4.52143 43.3759 4.76957L44.2703 6.55843C44.5421 6.42257 44.8166 6.34684 45.0998 6.32505L44.9464 4.33094ZM44.8072 5.48616L44.0872 1.50216L42.1191 1.85784L42.8391 5.84184L44.8072 5.48616ZM43.571 2.56379C44.0047 2.33418 44.5407 2.15491 45.1945 2.04121L44.8518 0.0707861C44.0336 0.213085 43.2895 0.449821 42.6352 0.796211L43.571 2.56379ZM45.1945 2.04121C45.8701 1.92372 46.5805 1.864 47.3271 1.864V-0.136003C46.4737 -0.136003 45.6482 -0.0677205 44.8518 0.0707861L45.1945 2.04121ZM47.3271 1.864C49.3425 1.864 50.8441 2.35126 51.9321 3.22701L53.1861 1.66899C51.6502 0.432739 49.6638 -0.136003 47.3271 -0.136003V1.864ZM51.9413 3.23432C53.0409 4.09831 53.5751 5.19892 53.5751 6.624H55.5751C55.5751 4.59308 54.7653 2.90969 53.1769 1.66168L51.9413 3.23432ZM53.5751 6.624C53.5751 7.66896 53.1998 8.68035 52.3669 9.67981L53.9033 10.9602C54.9905 9.65565 55.5751 8.20303 55.5751 6.624H53.5751ZM52.3651 9.68198C51.547 10.6693 50.3906 11.5493 48.855 12.3021L49.7353 14.0979C51.4636 13.2507 52.8673 12.2107 53.9051 10.958L52.3651 9.68198ZM65.4749 42H64.4749V43H65.4749V42ZM65.4749 15.888V14.888H64.4749V15.888H65.4749ZM71.3789 15.888H72.3789V14.888H71.3789V15.888ZM71.3789 21.936L70.5468 22.4907L72.3789 25.2388V21.936H71.3789ZM70.7069 20.928L69.7377 20.6816L69.6281 21.1126L69.8748 21.4827L70.7069 20.928ZM73.5869 16.704L74.1286 17.5446L74.1286 17.5446L73.5869 16.704ZM84.3389 16.992L83.773 17.8165L83.773 17.8165L84.3389 16.992ZM87.5069 21.408L87.5877 22.4047L88.7778 22.3082L88.474 21.1535L87.5069 21.408ZM85.7309 21.552L84.7975 21.193L84.2267 22.6772L85.8117 22.5487L85.7309 21.552ZM89.3309 16.896L89.87 17.7384L89.8817 17.7306L89.3309 16.896ZM99.7949 16.56L99.2946 17.4259L99.3028 17.4306L99.7949 16.56ZM103.251 20.064L102.376 20.5481L102.38 20.5561L103.251 20.064ZM104.499 42V43H105.499V42H104.499ZM98.2109 42H97.2109V43H98.2109V42ZM95.8589 21.792L95.3126 22.6296L95.3256 22.6381L95.3389 22.6462L95.8589 21.792ZM90.5309 21.792L91.0347 22.6558L91.0479 22.6481L91.0609 22.64L90.5309 21.792ZM88.7549 23.712L87.8604 23.2648L87.8604 23.2648L88.7549 23.712ZM88.1309 42V43H89.1309V42H88.1309ZM81.8429 42H80.8429V43H81.8429V42ZM81.2189 23.712L82.1133 23.2648L82.1133 23.2648L81.2189 23.712ZM79.4429 21.792L78.8966 22.6296L78.9175 22.6432L78.939 22.6558L79.4429 21.792ZM74.1629 21.792L74.6667 22.6558L74.6799 22.6481L74.6929 22.64L74.1629 21.792ZM72.3869 23.712L73.2813 24.1592L73.2813 24.1592L72.3869 23.712ZM71.7629 42V43H72.7629V42H71.7629ZM66.4749 42V15.888H64.4749V42H66.4749ZM65.4749 16.888H71.3789V14.888H65.4749V16.888ZM70.3789 15.888V21.936H72.3789V15.888H70.3789ZM72.2109 21.3813L71.5389 20.3733L69.8748 21.4827L70.5468 22.4907L72.2109 21.3813ZM71.676 21.1744C72.103 19.4952 72.9304 18.3167 74.1286 17.5446L73.0452 15.8634C71.3633 16.9473 70.2708 18.5848 69.7377 20.6816L71.676 21.1744ZM74.1286 17.5446C75.3854 16.7346 76.8875 16.312 78.6749 16.312V14.312C76.5583 14.312 74.6684 14.8174 73.0452 15.8634L74.1286 17.5446ZM78.6749 16.312C80.6345 16.312 82.3216 16.8204 83.773 17.8165L84.9047 16.1675C83.0922 14.9236 81.0033 14.312 78.6749 14.312V16.312ZM83.773 17.8165C85.2179 18.8081 86.1241 20.0827 86.5398 21.6625L88.474 21.1535C87.9297 19.0853 86.7239 17.4159 84.9047 16.1675L83.773 17.8165ZM87.4261 20.4113L85.6501 20.5553L85.8117 22.5487L87.5877 22.4047L87.4261 20.4113ZM86.6642 21.911C87.4014 19.9944 88.4792 18.6283 89.8699 17.7383L88.7918 16.0537C86.9826 17.2117 85.6604 18.9496 84.7975 21.193L86.6642 21.911ZM89.8817 17.7306C91.3043 16.7917 92.9493 16.312 94.8509 16.312V14.312C92.5924 14.312 90.5574 14.8883 88.78 16.0614L89.8817 17.7306ZM94.8509 16.312C96.5521 16.312 98.0238 16.6916 99.2946 17.4259L100.295 15.6941C98.686 14.7644 96.8617 14.312 94.8509 14.312V16.312ZM99.3028 17.4306C100.611 18.17 101.632 19.203 102.376 20.5481L104.126 19.5799C103.206 17.917 101.923 16.614 100.287 15.6894L99.3028 17.4306ZM102.38 20.5561C103.115 21.8561 103.499 23.3935 103.499 25.2H105.499C105.499 23.1025 105.051 21.2159 104.121 19.5719L102.38 20.5561ZM103.499 25.2V42H105.499V25.2H103.499ZM104.499 41H98.2109V43H104.499V41ZM99.2109 42V26.688H97.2109V42H99.2109ZM99.2109 26.688C99.2109 25.417 98.9813 24.2648 98.4813 23.2648L96.6924 24.1592C97.0244 24.8232 97.2109 25.655 97.2109 26.688H99.2109ZM98.4813 23.2648C97.9882 22.2785 97.2882 21.4914 96.3788 20.9378L95.3389 22.6462C95.9015 22.9886 96.3536 23.4815 96.6924 24.1592L98.4813 23.2648ZM96.4051 20.9544C95.4764 20.3487 94.3812 20.072 93.1709 20.072V22.072C94.0725 22.072 94.7694 22.2753 95.3126 22.6296L96.4051 20.9544ZM93.1709 20.072C92.01 20.072 90.9428 20.3553 90.0009 20.944L91.0609 22.64C91.6549 22.2687 92.3478 22.072 93.1709 22.072V20.072ZM90.027 20.9282C89.0831 21.4788 88.3591 22.2674 87.8604 23.2648L89.6493 24.1592C89.9826 23.4926 90.4426 23.0012 91.0347 22.6558L90.027 20.9282ZM87.8604 23.2648C87.3604 24.2648 87.1309 25.417 87.1309 26.688H89.1309C89.1309 25.655 89.3173 24.8232 89.6493 24.1592L87.8604 23.2648ZM87.1309 26.688V42H89.1309V26.688H87.1309ZM88.1309 41H81.8429V43H88.1309V41ZM82.8429 42V26.688H80.8429V42H82.8429ZM82.8429 26.688C82.8429 25.417 82.6133 24.2648 82.1133 23.2648L80.3244 24.1592C80.6564 24.8232 80.8429 25.655 80.8429 26.688H82.8429ZM82.1133 23.2648C81.6146 22.2674 80.8906 21.4788 79.9467 20.9282L78.939 22.6558C79.5311 23.0012 79.9911 23.4926 80.3244 24.1592L82.1133 23.2648ZM79.9891 20.9544C79.0652 20.3518 77.9881 20.072 76.8029 20.072V22.072C77.6657 22.072 78.3485 22.2722 78.8966 22.6296L79.9891 20.9544ZM76.8029 20.072C75.642 20.072 74.5748 20.3553 73.6329 20.944L74.6929 22.64C75.2869 22.2687 75.9798 22.072 76.8029 22.072V20.072ZM73.659 20.9282C72.7151 21.4788 71.9911 22.2674 71.4924 23.2648L73.2813 24.1592C73.6146 23.4926 74.0746 23.0012 74.6667 22.6558L73.659 20.9282ZM71.4924 23.2648C70.9924 24.2648 70.7629 25.417 70.7629 26.688H72.7629C72.7629 25.655 72.9493 24.8232 73.2813 24.1592L71.4924 23.2648ZM70.7629 26.688V42H72.7629V26.688H70.7629ZM71.7629 41H65.4749V43H71.7629V41ZM118.35 42H117.35V43H118.35V42ZM118.35 15.888V14.888H117.35V15.888H118.35ZM124.254 15.888H125.254V14.888H124.254V15.888ZM124.254 21.024L123.369 21.4897L125.254 21.024H124.254ZM123.774 20.112L122.842 19.7505L122.677 20.1749L122.889 20.5777L123.774 20.112ZM126.75 16.56L127.253 17.4245L127.259 17.4209L126.75 16.56ZM136.734 16.56L136.242 17.4306L136.25 17.435L136.734 16.56ZM140.238 20.064L139.363 20.5481L139.367 20.5561L140.238 20.064ZM141.486 42V43H142.486V42H141.486ZM135.198 42H134.198V43H135.198V42ZM134.526 23.712L135.406 23.2379L135.406 23.2379L134.526 23.712ZM132.654 21.792L132.124 22.64L132.144 22.6527L132.165 22.6645L132.654 21.792ZM127.182 21.792L127.67 22.6645L127.684 22.6572L127.696 22.6495L127.182 21.792ZM125.31 23.712L126.19 24.1861L126.19 24.1861L125.31 23.712ZM124.638 42V43H125.638V42H124.638ZM119.35 42V15.888H117.35V42H119.35ZM118.35 16.888H124.254V14.888H118.35V16.888ZM123.254 15.888V21.024H125.254V15.888H123.254ZM125.139 20.5583L124.659 19.6463L122.889 20.5777L123.369 21.4897L125.139 20.5583ZM124.706 20.4735C125.237 19.1042 126.084 18.1037 127.252 17.4245L126.247 15.6955C124.663 16.6163 123.527 17.9838 122.842 19.7505L124.706 20.4735ZM127.259 17.4209C128.493 16.6917 129.944 16.312 131.646 16.312V14.312C129.636 14.312 127.823 14.7643 126.241 15.6991L127.259 17.4209ZM131.646 16.312C133.417 16.312 134.939 16.6944 136.242 17.4306L137.226 15.6894C135.584 14.7616 133.715 14.312 131.646 14.312V16.312ZM136.25 17.435C137.589 18.176 138.622 19.2085 139.363 20.5481L141.113 19.5799C140.19 17.9115 138.886 16.608 137.218 15.685L136.25 17.435ZM139.367 20.5561C140.102 21.8561 140.486 23.3935 140.486 25.2H142.486C142.486 23.1025 142.038 21.2159 141.108 19.5719L139.367 20.5561ZM140.486 25.2V42H142.486V25.2H140.486ZM141.486 41H135.198V43H141.486V41ZM136.198 42V26.688H134.198V42H136.198ZM136.198 26.688C136.198 25.4064 135.948 24.2443 135.406 23.2379L133.645 24.1861C134 24.8437 134.198 25.6656 134.198 26.688H136.198ZM135.406 23.2379C134.871 22.244 134.114 21.4633 133.142 20.9195L132.165 22.6645C132.794 23.0167 133.285 23.516 133.645 24.1861L135.406 23.2379ZM133.184 20.944C132.232 20.3491 131.13 20.072 129.918 20.072V22.072C130.818 22.072 131.54 22.2749 132.124 22.64L133.184 20.944ZM129.918 20.072C128.731 20.072 127.638 20.3523 126.667 20.9345L127.696 22.6495C128.326 22.2717 129.057 22.072 129.918 22.072V20.072ZM126.693 20.9195C125.722 21.4633 124.965 22.244 124.429 23.2379L126.19 24.1861C126.551 23.516 127.042 23.0167 127.67 22.6645L126.693 20.9195ZM124.429 23.2379C123.888 24.2442 123.638 25.4064 123.638 26.688H125.638C125.638 25.6656 125.836 24.8437 126.19 24.1861L124.429 23.2379ZM123.638 26.688V42H125.638V26.688H123.638ZM124.638 41H118.35V43H124.638V41ZM146.803 42H145.803V43H146.803V42ZM146.803 5.664V4.664H145.803V5.664H146.803ZM153.091 5.664H154.091V4.664H153.091V5.664ZM153.091 21.024L152.365 21.7117L154.091 23.5336V21.024H153.091ZM152.227 20.112L151.295 19.7505L151.066 20.3404L151.501 20.7997L152.227 20.112ZM155.203 16.56L155.706 17.4245L155.712 17.4209L155.203 16.56ZM165.187 16.56L164.695 17.4306L164.703 17.435L165.187 16.56ZM168.691 20.064L167.816 20.5481L167.82 20.5561L168.691 20.064ZM169.939 42V43H170.939V42H169.939ZM163.651 42H162.651V43H163.651V42ZM162.979 23.712L163.859 23.2379L163.859 23.2379L162.979 23.712ZM161.107 21.792L160.577 22.64L160.597 22.6527L160.618 22.6645L161.107 21.792ZM155.635 21.792L156.124 22.6645L156.137 22.6572L156.149 22.6495L155.635 21.792ZM153.763 23.712L154.643 24.1861L154.643 24.1861L153.763 23.712ZM153.091 42V43H154.091V42H153.091ZM147.803 42V5.664H145.803V42H147.803ZM146.803 6.664H153.091V4.664H146.803V6.664ZM152.091 5.664V21.024H154.091V5.664H152.091ZM153.817 20.3363L152.953 19.4243L151.501 20.7997L152.365 21.7117L153.817 20.3363ZM153.159 20.4735C153.69 19.1042 154.537 18.1037 155.706 17.4245L154.7 15.6955C153.117 16.6163 151.98 17.9838 151.295 19.7505L153.159 20.4735ZM155.712 17.4209C156.946 16.6917 158.397 16.312 160.099 16.312V14.312C158.089 14.312 156.276 14.7643 154.694 15.6991L155.712 17.4209ZM160.099 16.312C161.87 16.312 163.392 16.6944 164.695 17.4306L165.679 15.6894C164.038 14.7616 162.168 14.312 160.099 14.312V16.312ZM164.703 17.435C166.042 18.176 167.075 19.2085 167.816 20.5481L169.566 19.5799C168.643 17.9115 167.34 16.608 165.671 15.685L164.703 17.435ZM167.82 20.5561C168.555 21.8561 168.939 23.3935 168.939 25.2H170.939C170.939 23.1025 170.491 21.2159 169.562 19.5719L167.82 20.5561ZM168.939 25.2V42H170.939V25.2H168.939ZM169.939 41H163.651V43H169.939V41ZM164.651 42V26.688H162.651V42H164.651ZM164.651 26.688C164.651 25.4064 164.401 24.2443 163.859 23.2379L162.099 24.1861C162.453 24.8437 162.651 25.6656 162.651 26.688H164.651ZM163.859 23.2379C163.324 22.244 162.567 21.4633 161.596 20.9195L160.618 22.6645C161.247 23.0167 161.738 23.516 162.099 24.1861L163.859 23.2379ZM161.637 20.944C160.685 20.3491 159.583 20.072 158.371 20.072V22.072C159.271 22.072 159.993 22.2749 160.577 22.64L161.637 20.944ZM158.371 20.072C157.184 20.072 156.091 20.3523 155.121 20.9345L156.149 22.6495C156.779 22.2717 157.51 22.072 158.371 22.072V20.072ZM155.146 20.9195C154.175 21.4633 153.418 22.244 152.883 23.2379L154.643 24.1861C155.004 23.516 155.495 23.0167 156.124 22.6645L155.146 20.9195ZM152.883 23.2379C152.341 24.2442 152.091 25.4064 152.091 26.688H154.091C154.091 25.6656 154.289 24.8437 154.643 24.1861L152.883 23.2379ZM152.091 26.688V42H154.091V26.688H152.091ZM153.091 41H146.803V43H153.091V41ZM178.424 41.664L178.012 42.5751L178.012 42.5751L178.424 41.664ZM175.304 39.072L174.461 39.6104L174.468 39.6212L175.304 39.072ZM175.16 31.248L176.028 31.7442L176.034 31.7336L175.16 31.248ZM178.136 28.368L178.632 29.2362L178.632 29.2362L178.136 28.368ZM183.224 26.736L183.379 27.724L183.385 27.723L183.224 26.736ZM191.768 25.344H192.768V24.1679L191.607 24.357L191.768 25.344ZM191.768 30.144L191.936 31.1299L192.768 30.9884V30.144H191.768ZM184.424 31.392L184.257 30.4061L184.247 30.4077L184.424 31.392ZM181.64 32.592L180.952 31.866L180.952 31.866L181.64 32.592ZM181.736 37.008L181.107 37.7852L181.127 37.8015L181.148 37.8167L181.736 37.008ZM187.784 36.96L188.265 37.8369L188.274 37.8316L187.784 36.96ZM190.136 34.608L189.271 34.1059L189.265 34.1164L189.259 34.1272L190.136 34.608ZM189.656 21.84L188.992 22.5874L189.006 22.6004L189.021 22.6127L189.656 21.84ZM182.6 21.792L183.167 22.6161L183.172 22.6124L182.6 21.792ZM180.344 24.624L179.907 25.5234L180.869 25.9909L181.271 24.9997L180.344 24.624ZM175.208 22.128L174.271 21.7793L173.954 22.6304L174.771 23.0274L175.208 22.128ZM177.608 18.576L178.282 19.315L178.283 19.314L177.608 18.576ZM181.544 16.176L181.186 15.2421L181.186 15.2421L181.544 16.176ZM192.104 16.512L191.664 17.4099L191.671 17.4134L191.678 17.4168L192.104 16.512ZM195.896 19.776L195.052 20.3129L195.06 20.3241L195.067 20.3351L195.896 19.776ZM197.288 42V43H198.288V42H197.288ZM191.336 42H190.336V43H191.336V42ZM191.336 37.536L191.265 36.5385L190.336 36.6049V37.536H191.336ZM192.68 37.44L193.538 37.9545L194.527 36.3055L192.609 36.4425L192.68 37.44ZM190.28 40.272L190.902 41.0555L190.91 41.049L190.918 41.0424L190.28 40.272ZM187.112 42L187.421 42.9512L187.432 42.9475L187.444 42.9435L187.112 42ZM182.984 52.896H181.984V53.896H182.984V52.896ZM182.984 46.32V45.32H181.984V46.32H182.984ZM189.56 46.32H190.56V45.32H189.56V46.32ZM189.56 52.896V53.896H190.56V52.896H189.56ZM177.128 11.28L176.312 10.7016L175.193 12.28H177.128V11.28ZM182.744 3.36V2.36H182.227L181.928 2.78157L182.744 3.36ZM190.184 3.36L190.998 2.77829L190.698 2.36H190.184V3.36ZM195.848 11.28V12.28H197.793L196.662 10.6983L195.848 11.28ZM189.608 11.28L188.797 11.8655L189.097 12.28H189.608V11.28ZM186.488 6.96L187.299 6.37451L186.488 5.25203L185.677 6.37451L186.488 6.96ZM183.368 11.28V12.28H183.879L184.179 11.8655L183.368 11.28ZM183.176 41.576C181.462 41.576 180.024 41.2902 178.836 40.7529L178.012 42.5751C179.512 43.2538 181.243 43.576 183.176 43.576V41.576ZM178.836 40.7529C177.647 40.2148 176.761 39.4688 176.14 38.5228L174.468 39.6212C175.319 40.9152 176.513 41.8972 178.012 42.5751L178.836 40.7529ZM176.147 38.5336C175.524 37.5583 175.2 36.421 175.2 35.088H173.2C173.2 36.763 173.613 38.2817 174.461 39.6104L176.147 38.5336ZM175.2 35.088C175.2 33.8013 175.484 32.696 176.028 31.7441L174.292 30.7519C173.556 32.04 173.2 33.4947 173.2 35.088H175.2ZM176.034 31.7336C176.571 30.7673 177.419 29.9296 178.632 29.2362L177.64 27.4998C176.165 28.3424 175.029 29.4247 174.286 30.7624L176.034 31.7336ZM178.632 29.2362C179.841 28.5453 181.412 28.0312 183.379 27.724L183.07 25.748C180.94 26.0808 179.119 26.6547 177.64 27.4998L178.632 29.2362ZM183.385 27.723L191.929 26.331L191.607 24.357L183.063 25.749L183.385 27.723ZM190.768 25.344V30.144H192.768V25.344H190.768ZM191.601 29.1581L184.257 30.4061L184.592 32.3779L191.936 31.1299L191.601 29.1581ZM184.247 30.4077C182.9 30.6496 181.757 31.1036 180.952 31.866L182.328 33.318C182.739 32.9284 183.453 32.5823 184.601 32.3763L184.247 30.4077ZM180.952 31.866C180.122 32.6523 179.728 33.6782 179.728 34.848H181.728C181.728 34.1618 181.942 33.6837 182.328 33.318L180.952 31.866ZM179.728 34.848C179.728 36.0331 180.191 37.0435 181.107 37.7852L182.365 36.2308C181.938 35.8845 181.728 35.4549 181.728 34.848H179.728ZM181.148 37.8167C182.052 38.4739 183.131 38.776 184.328 38.776V36.776C183.477 36.776 182.829 36.5661 182.324 36.1993L181.148 37.8167ZM184.328 38.776C185.781 38.776 187.104 38.4737 188.265 37.8368L187.303 36.0832C186.481 36.5343 185.499 36.776 184.328 36.776V38.776ZM188.274 37.8316C189.455 37.1677 190.376 36.2511 191.013 35.0888L189.259 34.1272C188.809 34.9489 188.162 35.6003 187.294 36.0884L188.274 37.8316ZM191.001 35.1101C191.668 33.9606 192 32.6984 192 31.344H190C190 32.3576 189.756 33.2714 189.271 34.1059L191.001 35.1101ZM192 31.344V24.624H190V31.344H192ZM192 24.624C192 23.1928 191.409 21.9855 190.291 21.0673L189.021 22.6127C189.696 23.1665 190 23.8152 190 24.624H192ZM190.32 21.0926C189.232 20.1246 187.823 19.688 186.2 19.688V21.688C187.458 21.688 188.353 22.0194 188.992 22.5874L190.32 21.0926ZM186.2 19.688C184.661 19.688 183.26 20.1133 182.028 20.9716L183.172 22.6124C184.052 21.9987 185.051 21.688 186.2 21.688V19.688ZM182.034 20.968C180.843 21.7862 179.969 22.8882 179.417 24.2483L181.271 24.9997C181.679 23.9918 182.309 23.2058 183.167 22.616L182.034 20.968ZM180.781 23.7246L175.645 21.2286L174.771 23.0274L179.907 25.5234L180.781 23.7246ZM176.145 22.4767C176.602 21.2504 177.311 20.2 178.282 19.315L176.934 17.837C175.729 18.936 174.839 20.2536 174.271 21.7793L176.145 22.4767ZM178.283 19.314C179.305 18.3797 180.508 17.6438 181.902 17.1099L181.186 15.2421C179.573 15.8602 178.151 16.7243 176.933 17.838L178.283 19.314ZM181.902 17.1099C183.281 16.5815 184.791 16.312 186.44 16.312V14.312C184.569 14.312 182.815 14.6185 181.186 15.2421L181.902 17.1099ZM186.44 16.312C188.459 16.312 190.191 16.6881 191.664 17.4099L192.544 15.6141C190.753 14.7359 188.709 14.312 186.44 14.312V16.312ZM191.678 17.4168C193.153 18.111 194.266 19.0775 195.052 20.3129L196.74 19.2391C195.734 17.6585 194.319 16.449 192.53 15.6072L191.678 17.4168ZM195.067 20.3351C195.871 21.5268 196.288 22.9428 196.288 24.624H198.288C198.288 22.5932 197.778 20.7772 196.725 19.2169L195.067 20.3351ZM196.288 24.624V42H198.288V24.624H196.288ZM197.288 41H191.336V43H197.288V41ZM192.336 42V37.536H190.336V42H192.336ZM191.407 38.5335L192.751 38.4375L192.609 36.4425L191.265 36.5385L191.407 38.5335ZM191.823 36.9255C191.204 37.9566 190.476 38.8117 189.643 39.5016L190.918 41.0424C191.94 40.1963 192.812 39.1634 193.538 37.9545L191.823 36.9255ZM189.659 39.4885C188.823 40.1514 187.866 40.6752 186.781 41.0565L187.444 42.9435C188.726 42.4928 189.881 41.8646 190.902 41.0555L189.659 39.4885ZM186.804 41.0488C185.733 41.3958 184.527 41.576 183.176 41.576V43.576C184.705 43.576 186.123 43.3722 187.421 42.9512L186.804 41.0488ZM183.984 52.896V46.32H181.984V52.896H183.984ZM182.984 47.32H189.56V45.32H182.984V47.32ZM188.56 46.32V52.896H190.56V46.32H188.56ZM189.56 51.896H182.984V53.896H189.56V51.896ZM177.944 11.8584L183.56 3.93843L181.928 2.78157L176.312 10.7016L177.944 11.8584ZM182.744 4.36H190.184V2.36H182.744V4.36ZM189.371 3.9417L195.035 11.8617L196.662 10.6983L190.998 2.77829L189.371 3.9417ZM195.848 10.28H189.608V12.28H195.848V10.28ZM190.419 10.6945L187.299 6.37451L185.677 7.54549L188.797 11.8655L190.419 10.6945ZM185.677 6.37451L182.557 10.6945L184.179 11.8655L187.299 7.54549L185.677 6.37451ZM183.368 10.28H177.128V12.28H183.368V10.28ZM203.1 42H202.1V43H203.1V42ZM203.1 15.888V14.888H202.1V15.888H203.1ZM209.004 15.888H210.004V14.888H209.004V15.888ZM209.004 21.024L208.119 21.4897L210.004 21.024H209.004ZM208.524 20.112L207.592 19.7505L207.427 20.1749L207.639 20.5777L208.524 20.112ZM211.5 16.56L212.003 17.4245L212.009 17.4209L211.5 16.56ZM221.484 16.56L220.992 17.4306L221 17.435L221.484 16.56ZM224.988 20.064L224.113 20.5481L224.117 20.5561L224.988 20.064ZM226.236 42V43H227.236V42H226.236ZM219.948 42H218.948V43H219.948V42ZM219.276 23.712L220.156 23.2379L220.156 23.2379L219.276 23.712ZM217.404 21.792L216.874 22.64L216.894 22.6527L216.915 22.6645L217.404 21.792ZM211.932 21.792L212.42 22.6645L212.434 22.6572L212.446 22.6495L211.932 21.792ZM210.06 23.712L210.94 24.1861L210.94 24.1861L210.06 23.712ZM209.388 42V43H210.388V42H209.388ZM204.1 42V15.888H202.1V42H204.1ZM203.1 16.888H209.004V14.888H203.1V16.888ZM208.004 15.888V21.024H210.004V15.888H208.004ZM209.889 20.5583L209.409 19.6463L207.639 20.5777L208.119 21.4897L209.889 20.5583ZM209.456 20.4735C209.987 19.1042 210.834 18.1037 212.002 17.4245L210.997 15.6955C209.413 16.6163 208.277 17.9838 207.592 19.7505L209.456 20.4735ZM212.009 17.4209C213.243 16.6917 214.694 16.312 216.396 16.312V14.312C214.386 14.312 212.573 14.7643 210.991 15.6991L212.009 17.4209ZM216.396 16.312C218.167 16.312 219.689 16.6944 220.992 17.4306L221.976 15.6894C220.334 14.7616 218.465 14.312 216.396 14.312V16.312ZM221 17.435C222.339 18.176 223.372 19.2085 224.113 20.5481L225.863 19.5799C224.94 17.9115 223.636 16.608 221.968 15.685L221 17.435ZM224.117 20.5561C224.852 21.8561 225.236 23.3935 225.236 25.2H227.236C227.236 23.1025 226.788 21.2159 225.858 19.5719L224.117 20.5561ZM225.236 25.2V42H227.236V25.2H225.236ZM226.236 41H219.948V43H226.236V41ZM220.948 42V26.688H218.948V42H220.948ZM220.948 26.688C220.948 25.4064 220.698 24.2443 220.156 23.2379L218.395 24.1861C218.75 24.8437 218.948 25.6656 218.948 26.688H220.948ZM220.156 23.2379C219.621 22.244 218.864 21.4633 217.892 20.9195L216.915 22.6645C217.544 23.0167 218.035 23.516 218.395 24.1861L220.156 23.2379ZM217.934 20.944C216.982 20.3491 215.88 20.072 214.668 20.072V22.072C215.568 22.072 216.29 22.2749 216.874 22.64L217.934 20.944ZM214.668 20.072C213.481 20.072 212.388 20.3523 211.417 20.9345L212.446 22.6495C213.076 22.2717 213.807 22.072 214.668 22.072V20.072ZM211.443 20.9195C210.472 21.4633 209.715 22.244 209.179 23.2379L210.94 24.1861C211.301 23.516 211.792 23.0167 212.42 22.6645L211.443 20.9195ZM209.179 23.2379C208.638 24.2442 208.388 25.4064 208.388 26.688H210.388C210.388 25.6656 210.586 24.8437 210.94 24.1861L209.179 23.2379ZM208.388 26.688V42H210.388V26.688H208.388ZM209.388 41H203.1V43H209.388V41Z" fill="white" mask="url(#path-1-outside-1_1945_1350)"/>
</svg>
