<svg width="199" height="50" viewBox="0 0 200 52" fill="none" xmlns="http://www.w3.org/2000/svg">
    <mask id="path-1-outside-1_1936_678" maskUnits="userSpaceOnUse" x="-1" y="-1" width="201" height="52" fill="black">
        <rect fill="white" x="-1" y="-1" width="201" height="52"/>
        <path d="M15.224 39.576C12.952 39.576 10.84 39.16 8.888 38.328C6.968 37.496 5.304 36.344 3.896 34.872C2.52 33.368 1.512 31.624 0.872 29.64L6.296 27.288C7.16 29.336 8.408 30.952 10.04 32.136C11.672 33.288 13.512 33.864 15.56 33.864C16.712 33.864 17.704 33.688 18.536 33.336C19.4 32.952 20.056 32.44 20.504 31.8C20.984 31.16 21.224 30.392 21.224 29.496C21.224 28.44 20.904 27.576 20.264 26.904C19.656 26.2 18.728 25.656 17.48 25.272L10.616 23.064C7.832 22.2 5.736 20.904 4.328 19.176C2.92 17.448 2.216 15.416 2.216 13.08C2.216 11.032 2.712 9.224 3.704 7.656C4.728 6.088 6.136 4.872 7.928 4.008C9.752 3.112 11.832 2.664 14.168 2.664C16.312 2.664 18.28 3.048 20.072 3.816C21.864 4.552 23.4 5.592 24.68 6.936C25.992 8.248 26.968 9.8 27.608 11.592L22.232 13.992C21.528 12.2 20.472 10.824 19.064 9.864C17.656 8.872 16.024 8.376 14.168 8.376C13.08 8.376 12.12 8.568 11.288 8.952C10.456 9.304 9.8 9.816 9.32 10.488C8.872 11.128 8.648 11.896 8.648 12.792C8.648 13.784 8.968 14.664 9.608 15.432C10.248 16.168 11.224 16.744 12.536 17.16L19.112 19.224C21.96 20.152 24.088 21.432 25.496 23.064C26.936 24.696 27.656 26.712 27.656 29.112C27.656 31.16 27.128 32.968 26.072 34.536C25.016 36.104 23.56 37.336 21.704 38.232C19.848 39.128 17.688 39.576 15.224 39.576ZM42.3181 39.576C40.3021 39.576 38.5421 39.128 37.0381 38.232C35.5661 37.336 34.4301 36.088 33.6301 34.488C32.8621 32.888 32.4781 31.016 32.4781 28.872V12.888H38.7661V28.344C38.7661 29.432 38.9741 30.392 39.3901 31.224C39.8381 32.024 40.4621 32.664 41.2621 33.144C42.0941 33.592 43.0221 33.816 44.0461 33.816C45.0701 33.816 45.9821 33.592 46.7821 33.144C47.5821 32.664 48.2061 32.008 48.6541 31.176C49.1021 30.344 49.3261 29.352 49.3261 28.2V12.888H55.6141V39H49.6621V33.864L50.1901 34.776C49.5821 36.376 48.5741 37.576 47.1661 38.376C45.7901 39.176 44.1741 39.576 42.3181 39.576ZM64.6273 49.56C63.9233 49.56 63.2353 49.496 62.5633 49.368C61.8913 49.272 61.2833 49.08 60.7393 48.792V43.56C61.1553 43.656 61.6513 43.752 62.2273 43.848C62.8353 43.944 63.3953 43.992 63.9073 43.992C65.3473 43.992 66.3873 43.656 67.0273 42.984C67.6993 42.344 68.2913 41.48 68.8033 40.392L70.5312 36.36L70.4353 41.64L59.0593 12.888H65.8273L73.7953 34.104H71.3953L79.3153 12.888H86.1313L74.7553 41.64C74.0833 43.304 73.2673 44.728 72.3073 45.912C71.3472 47.096 70.2273 47.992 68.9473 48.6C67.6993 49.24 66.2593 49.56 64.6273 49.56ZM98.1155 39V12.888H104.02V18.024L103.54 17.112C104.148 15.544 105.14 14.36 106.516 13.56C107.924 12.728 109.556 12.312 111.412 12.312C113.332 12.312 115.028 12.728 116.5 13.56C118.004 14.392 119.172 15.56 120.004 17.064C120.836 18.536 121.252 20.248 121.252 22.2V39H114.964V23.688C114.964 22.536 114.74 21.544 114.292 20.712C113.844 19.88 113.22 19.24 112.42 18.792C111.652 18.312 110.74 18.072 109.684 18.072C108.66 18.072 107.748 18.312 106.948 18.792C106.148 19.24 105.524 19.88 105.076 20.712C104.628 21.544 104.404 22.536 104.404 23.688V39H98.1155ZM139.241 49.56C137.289 49.56 135.481 49.24 133.817 48.6C132.153 47.96 130.713 47.064 129.497 45.912C128.313 44.792 127.449 43.464 126.905 41.928L132.761 39.72C133.145 40.936 133.897 41.912 135.017 42.648C136.169 43.416 137.577 43.8 139.241 43.8C140.521 43.8 141.641 43.56 142.601 43.08C143.593 42.6 144.361 41.896 144.905 40.968C145.449 40.072 145.721 38.984 145.721 37.704V31.752L146.921 33.192C146.025 34.76 144.825 35.944 143.321 36.744C141.817 37.544 140.105 37.944 138.185 37.944C135.753 37.944 133.577 37.384 131.657 36.264C129.737 35.144 128.233 33.608 127.145 31.656C126.057 29.704 125.513 27.512 125.513 25.08C125.513 22.616 126.057 20.424 127.145 18.504C128.233 16.584 129.721 15.08 131.609 13.992C133.497 12.872 135.641 12.312 138.041 12.312C139.993 12.312 141.705 12.728 143.177 13.56C144.681 14.36 145.929 15.528 146.921 17.064L146.057 18.648V12.888H152.009V37.704C152.009 39.976 151.449 42.008 150.329 43.8C149.241 45.592 147.737 47 145.817 48.024C143.929 49.048 141.737 49.56 139.241 49.56ZM138.953 32.136C140.297 32.136 141.465 31.848 142.457 31.272C143.481 30.664 144.281 29.832 144.857 28.776C145.433 27.72 145.721 26.504 145.721 25.128C145.721 23.784 145.417 22.584 144.809 21.528C144.233 20.44 143.433 19.592 142.409 18.984C141.417 18.376 140.265 18.072 138.953 18.072C137.641 18.072 136.457 18.376 135.401 18.984C134.345 19.592 133.513 20.44 132.905 21.528C132.329 22.584 132.041 23.784 132.041 25.128C132.041 26.472 132.329 27.672 132.905 28.728C133.513 29.784 134.329 30.616 135.353 31.224C136.409 31.832 137.609 32.136 138.953 32.136ZM157.881 39V2.664H164.169V18.024L163.305 17.112C163.913 15.544 164.905 14.36 166.281 13.56C167.689 12.728 169.321 12.312 171.177 12.312C173.097 12.312 174.793 12.728 176.265 13.56C177.769 14.392 178.937 15.56 179.769 17.064C180.601 18.536 181.017 20.248 181.017 22.2V39H174.729V23.688C174.729 22.536 174.505 21.544 174.057 20.712C173.609 19.88 172.985 19.24 172.185 18.792C171.417 18.312 170.505 18.072 169.449 18.072C168.425 18.072 167.513 18.312 166.713 18.792C165.913 19.24 165.289 19.88 164.841 20.712C164.393 21.544 164.169 22.536 164.169 23.688V39H157.881ZM185.758 39V12.888H192.046V39H185.758ZM192.334 8.28C191.47 8.28 190.734 8.152 190.126 7.896C189.55 7.608 189.054 7.304 188.638 6.984C188.222 6.632 187.806 6.328 187.39 6.072C186.974 5.784 186.494 5.64 185.95 5.64C185.406 5.64 184.99 5.848 184.702 6.264C184.414 6.648 184.27 7.256 184.27 8.088H179.422C179.422 5.528 179.998 3.656 181.15 2.472C182.302 1.256 183.694 0.647999 185.326 0.647999C186.222 0.647999 186.974 0.775999 187.582 1.032C188.19 1.288 188.718 1.592 189.166 1.944C189.614 2.296 190.03 2.6 190.414 2.856C190.83 3.112 191.278 3.24 191.758 3.24C192.398 3.24 192.846 3.032 193.102 2.616C193.358 2.168 193.486 1.576 193.486 0.839999H198.334C198.302 3.272 197.71 5.128 196.558 6.408C195.406 7.656 193.998 8.28 192.334 8.28Z"/>
    </mask>
    <path d="M8.888 38.328L8.49039 39.2456L8.4959 39.2479L8.888 38.328ZM3.896 34.872L3.15819 35.547L3.16569 35.5552L3.17336 35.5632L3.896 34.872ZM0.872 29.64L0.474165 28.7225L-0.358256 29.0835L-0.0797086 29.947L0.872 29.64ZM6.296 27.288L7.21736 26.8993L6.82478 25.9687L5.89817 26.3705L6.296 27.288ZM10.04 32.136L9.45272 32.9455L9.46332 32.953L10.04 32.136ZM18.536 33.336L18.9256 34.257L18.9339 34.2535L18.9421 34.2498L18.536 33.336ZM20.504 31.8L19.704 31.2L19.6942 31.2131L19.6848 31.2265L20.504 31.8ZM20.264 26.904L19.5072 27.5576L19.5231 27.576L19.5399 27.5937L20.264 26.904ZM17.48 25.272L17.1738 26.224L17.1859 26.2278L17.48 25.272ZM10.616 23.064L10.9222 22.112L10.9124 22.1089L10.616 23.064ZM4.328 19.176L5.10324 18.5443L5.10324 18.5443L4.328 19.176ZM3.704 7.656L2.86673 7.10921L2.86278 7.11525L2.85892 7.12136L3.704 7.656ZM7.928 4.008L8.36231 4.90879L8.3689 4.90555L7.928 4.008ZM20.072 3.816L19.6781 4.73514L19.6851 4.73813L19.6921 4.74102L20.072 3.816ZM24.68 6.936L23.9559 7.62565L23.9643 7.63448L23.9729 7.6431L24.68 6.936ZM27.608 11.592L28.0157 12.5051L28.8612 12.1277L28.5497 11.2557L27.608 11.592ZM22.232 13.992L21.3012 14.3577L21.6839 15.3318L22.6397 14.9051L22.232 13.992ZM19.064 9.864L18.488 10.6815L18.4943 10.6859L18.5007 10.6902L19.064 9.864ZM11.288 8.952L11.6776 9.87296L11.6925 9.8667L11.7071 9.85996L11.288 8.952ZM9.32 10.488L8.50623 9.90673L8.50077 9.91454L9.32 10.488ZM9.608 15.432L8.83978 16.0722L8.8465 16.0803L8.8534 16.0882L9.608 15.432ZM12.536 17.16L12.2338 18.1132L12.2365 18.1141L12.536 17.16ZM19.112 19.224L19.4218 18.2731L19.4115 18.2699L19.112 19.224ZM25.496 23.064L24.7388 23.7173L24.7462 23.7256L25.496 23.064ZM26.072 34.536L26.9014 35.0946L26.9014 35.0946L26.072 34.536ZM21.704 38.232L22.1388 39.1326L22.1388 39.1326L21.704 38.232ZM15.224 38.576C13.0771 38.576 11.0995 38.1836 9.2801 37.4081L8.4959 39.2479C10.5805 40.1364 12.8269 40.576 15.224 40.576V38.576ZM9.28561 37.4104C7.48454 36.63 5.93193 35.5538 4.61864 34.1808L3.17336 35.5632C4.67607 37.1342 6.45146 38.362 8.49039 39.2456L9.28561 37.4104ZM4.63381 34.197C3.35693 32.8013 2.42067 31.1836 1.82371 29.333L-0.0797086 29.947C0.603328 32.0644 1.68307 33.9347 3.15819 35.547L4.63381 34.197ZM1.26984 30.5575L6.69384 28.2055L5.89817 26.3705L0.474165 28.7225L1.26984 30.5575ZM5.37464 27.6767C6.30206 29.875 7.65825 31.6435 9.45277 32.9454L10.6272 31.3266C9.15775 30.2605 8.01794 28.797 7.21736 26.8993L5.37464 27.6767ZM9.46332 32.953C11.2685 34.2272 13.311 34.864 15.56 34.864V32.864C13.713 32.864 12.0755 32.3488 10.6167 31.319L9.46332 32.953ZM15.56 34.864C16.8105 34.864 17.9415 34.6733 18.9256 34.257L18.1464 32.415C17.4665 32.7027 16.6135 32.864 15.56 32.864V34.864ZM18.9421 34.2498C19.9372 33.8076 20.7511 33.1909 21.3232 32.3735L19.6848 31.2265C19.3609 31.6891 18.8628 32.0964 18.1299 32.4222L18.9421 34.2498ZM21.304 32.4C21.9293 31.5663 22.224 30.5811 22.224 29.496H20.224C20.224 30.2029 20.0387 30.7537 19.704 31.2L21.304 32.4ZM22.224 29.496C22.224 28.2215 21.83 27.0982 20.9881 26.2143L19.5399 27.5937C19.9781 28.0538 20.224 28.6585 20.224 29.496H22.224ZM21.0208 26.2504C20.25 25.3578 19.1323 24.7341 17.7741 24.3162L17.1859 26.2278C18.3237 26.5779 19.062 27.0422 19.5072 27.5576L21.0208 26.2504ZM17.7862 24.32L10.9222 22.112L10.3098 24.016L17.1738 26.224L17.7862 24.32ZM10.9124 22.1089C8.2593 21.2856 6.3539 20.0792 5.10324 18.5443L3.55277 19.8077C5.1181 21.7288 7.4047 23.1144 10.3196 24.0191L10.9124 22.1089ZM5.10324 18.5443C3.84798 17.0038 3.216 15.1978 3.216 13.08H1.216C1.216 15.6342 1.99202 17.8922 3.55277 19.8077L5.10324 18.5443ZM3.216 13.08C3.216 11.201 3.66862 9.58233 4.54908 8.19064L2.85892 7.12136C1.75538 8.86567 1.216 10.863 1.216 13.08H3.216ZM4.54127 8.20279C5.45942 6.79687 6.72371 5.6988 8.3623 4.90877L7.4937 3.10723C5.54829 4.0452 3.99658 5.37913 2.86673 7.10921L4.54127 8.20279ZM8.3689 4.90555C10.0365 4.08637 11.962 3.664 14.168 3.664V1.664C11.702 1.664 9.46746 2.13763 7.4871 3.11044L8.3689 4.90555ZM14.168 3.664C16.1902 3.664 18.0225 4.02559 19.6781 4.73514L20.4659 2.89685C18.5375 2.07041 16.4338 1.664 14.168 1.664V3.664ZM19.6921 4.74102C21.3599 5.42601 22.777 6.38789 23.9559 7.62565L25.4041 6.24634C24.023 4.79611 22.3681 3.67798 20.4519 2.89098L19.6921 4.74102ZM23.9729 7.6431C25.1775 8.84769 26.0747 10.2721 26.6663 11.9283L28.5497 11.2557C27.8613 9.3279 26.8065 7.64831 25.3871 6.22889L23.9729 7.6431ZM27.2003 10.6789L21.8244 13.0789L22.6397 14.9051L28.0157 12.5051L27.2003 10.6789ZM23.1628 13.6263C22.3952 11.6725 21.2223 10.1252 19.6273 9.03777L18.5007 10.6902C19.7217 11.5228 20.6608 12.7275 21.3012 14.3577L23.1628 13.6263ZM19.64 9.04651C18.0501 7.92639 16.2134 7.376 14.168 7.376V9.376C15.8347 9.376 17.2619 9.8176 18.488 10.6815L19.64 9.04651ZM14.168 7.376C12.9621 7.376 11.8546 7.5891 10.8689 8.04404L11.7071 9.85996C12.3854 9.54689 13.1979 9.376 14.168 9.376V7.376ZM10.8984 8.03103C9.91287 8.44797 9.10353 9.07059 8.50627 9.90676L10.1337 11.0692C10.4965 10.5614 10.9991 10.16 11.6776 9.87296L10.8984 8.03103ZM8.50077 9.91454C7.91841 10.7465 7.648 11.722 7.648 12.792H9.648C9.648 12.07 9.82559 11.5095 10.1392 11.0615L8.50077 9.91454ZM7.648 12.792C7.648 14.0199 8.05129 15.126 8.83978 16.0722L10.3762 14.7918C9.88471 14.202 9.648 13.5481 9.648 12.792H7.648ZM8.8534 16.0882C9.65382 17.0087 10.8151 17.6634 12.2338 18.1132L12.8382 16.2068C11.6329 15.8246 10.8422 15.3273 10.3626 14.7758L8.8534 16.0882ZM12.2365 18.1141L18.8125 20.1781L19.4115 18.2699L12.8355 16.2059L12.2365 18.1141ZM18.8022 20.1748C21.5414 21.0673 23.4878 22.2671 24.7388 23.7172L26.2532 22.4108C24.6882 20.5969 22.3786 19.2367 19.4218 18.2732L18.8022 20.1748ZM24.7462 23.7256C26.008 25.1557 26.656 26.9287 26.656 29.112H28.656C28.656 26.4953 27.864 24.2363 26.2458 22.4024L24.7462 23.7256ZM26.656 29.112C26.656 30.9783 26.1781 32.5883 25.2426 33.9774L26.9014 35.0946C28.0779 33.3477 28.656 31.3417 28.656 29.112H26.656ZM25.2426 33.9774C24.2943 35.3854 22.9806 36.5053 21.2693 37.3314L22.1388 39.1326C24.1394 38.1667 25.7377 36.8226 26.9014 35.0946L25.2426 33.9774ZM21.2693 37.3314C19.5728 38.1504 17.5665 38.576 15.224 38.576V40.576C17.8095 40.576 20.1232 40.1056 22.1388 39.1326L21.2693 37.3314ZM37.0381 38.232L36.5182 39.0862L36.5263 39.0911L37.0381 38.232ZM33.6301 34.488L32.7286 34.9207L32.7321 34.928L32.7357 34.9352L33.6301 34.488ZM32.4781 12.888V11.888H31.4781V12.888H32.4781ZM38.7661 12.888H39.7661V11.888H38.7661V12.888ZM39.3901 31.224L38.4957 31.6712L38.5062 31.6922L38.5176 31.7126L39.3901 31.224ZM41.2621 33.144L40.7476 34.0015L40.7676 34.0135L40.788 34.0245L41.2621 33.144ZM46.7821 33.144L47.2707 34.0165L47.2838 34.0092L47.2966 34.0015L46.7821 33.144ZM48.6541 31.176L49.5346 31.6501L49.5346 31.6501L48.6541 31.176ZM49.3261 12.888V11.888H48.3261V12.888H49.3261ZM55.6141 12.888H56.6141V11.888H55.6141V12.888ZM55.6141 39V40H56.6141V39H55.6141ZM49.6621 39H48.6621V40H49.6621V39ZM49.6621 33.864L50.5276 33.363L48.6621 30.1409V33.864H49.6621ZM50.1901 34.776L51.1249 35.1312L51.2939 34.6866L51.0556 34.275L50.1901 34.776ZM47.1661 38.376L46.6721 37.5065L46.6635 37.5115L47.1661 38.376ZM42.3181 38.576C40.4545 38.576 38.8769 38.1634 37.5499 37.3729L36.5263 39.0911C38.2073 40.0926 40.1497 40.576 42.3181 40.576V38.576ZM37.5581 37.3778C36.253 36.5834 35.2438 35.4793 34.5246 34.0408L32.7357 34.9352C33.6164 36.6966 34.8793 38.0886 36.5182 39.0862L37.5581 37.3778ZM34.5316 34.0553C33.8406 32.6155 33.4781 30.8969 33.4781 28.872H31.4781C31.4781 31.1351 31.8837 33.1605 32.7286 34.9207L34.5316 34.0553ZM33.4781 28.872V12.888H31.4781V28.872H33.4781ZM32.4781 13.888H38.7661V11.888H32.4781V13.888ZM37.7661 12.888V28.344H39.7661V12.888H37.7661ZM37.7661 28.344C37.7661 29.561 37.9994 30.6786 38.4957 31.6712L40.2846 30.7768C39.9488 30.1054 39.7661 29.303 39.7661 28.344H37.7661ZM38.5176 31.7126C39.0523 32.6674 39.8009 33.4335 40.7476 34.0015L41.7766 32.2865C41.1233 31.8945 40.6239 31.3806 40.2626 30.7354L38.5176 31.7126ZM40.788 34.0245C41.7777 34.5574 42.8708 34.816 44.0461 34.816V32.816C43.1734 32.816 42.4105 32.6266 41.7362 32.2635L40.788 34.0245ZM44.0461 34.816C45.2208 34.816 46.3046 34.5575 47.2707 34.0165L46.2935 32.2715C45.6596 32.6265 44.9194 32.816 44.0461 32.816V34.816ZM47.2966 34.0015C48.253 33.4277 49.0025 32.6383 49.5346 31.6501L47.7737 30.7019C47.4098 31.3777 46.9113 31.9003 46.2676 32.2865L47.2966 34.0015ZM49.5346 31.6501C50.0765 30.6437 50.3261 29.4816 50.3261 28.2H48.3261C48.3261 29.2224 48.1278 30.0443 47.7737 30.7019L49.5346 31.6501ZM50.3261 28.2V12.888H48.3261V28.2H50.3261ZM49.3261 13.888H55.6141V11.888H49.3261V13.888ZM54.6141 12.888V39H56.6141V12.888H54.6141ZM55.6141 38H49.6621V40H55.6141V38ZM50.6621 39V33.864H48.6621V39H50.6621ZM48.7967 34.365L49.3247 35.277L51.0556 34.275L50.5276 33.363L48.7967 34.365ZM49.2553 34.4208C48.7249 35.8167 47.8657 36.8283 46.6721 37.5065L47.6601 39.2455C49.2825 38.3237 50.4394 36.9353 51.1249 35.1312L49.2553 34.4208ZM46.6635 37.5115C45.4639 38.209 44.0272 38.576 42.3181 38.576V40.576C44.3211 40.576 46.1164 40.143 47.6687 39.2405L46.6635 37.5115ZM62.5633 49.368L62.7504 48.3857L62.7276 48.3813L62.7047 48.3781L62.5633 49.368ZM60.7393 48.792H59.7393V49.3941L60.2714 49.6758L60.7393 48.792ZM60.7393 43.56L60.9641 42.5856L59.7393 42.3029V43.56H60.7393ZM62.2273 43.848L62.0628 44.8344L62.0713 44.8358L62.2273 43.848ZM67.0273 42.984L66.3376 42.2599L66.3199 42.2767L66.3031 42.2943L67.0273 42.984ZM68.8033 40.392L69.7081 40.8178L69.7155 40.802L69.7224 40.7859L68.8033 40.392ZM70.5312 36.36L71.5311 36.3782L69.6121 35.9661L70.5312 36.36ZM70.4353 41.64L69.5054 42.0079L71.4351 41.6582L70.4353 41.64ZM59.0593 12.888V11.888H57.5882L58.1294 13.2559L59.0593 12.888ZM65.8273 12.888L66.7634 12.5364L66.5199 11.888H65.8273V12.888ZM73.7953 34.104V35.104H75.239L74.7314 33.7524L73.7953 34.104ZM71.3953 34.104L70.4584 33.7543L69.9545 35.104H71.3953V34.104ZM79.3153 12.888V11.888H78.6211L78.3784 12.5383L79.3153 12.888ZM86.1313 12.888L87.0611 13.2559L87.6023 11.888H86.1313V12.888ZM74.7553 41.64L75.6825 42.0145L75.6851 42.0079L74.7553 41.64ZM68.9473 48.6L68.5182 47.6967L68.5045 47.7032L68.4909 47.7102L68.9473 48.6ZM64.6273 48.56C63.9842 48.56 63.3589 48.5016 62.7504 48.3857L62.3761 50.3503C63.1116 50.4904 63.8623 50.56 64.6273 50.56V48.56ZM62.7047 48.3781C62.1351 48.2967 61.6393 48.137 61.2071 47.9082L60.2714 49.6758C60.9272 50.023 61.6474 50.2473 62.4218 50.3579L62.7047 48.3781ZM61.7393 48.792V43.56H59.7393V48.792H61.7393ZM60.5144 44.5344C60.9562 44.6363 61.4734 44.7361 62.0629 44.8344L62.3916 42.8616C61.8291 42.7679 61.3543 42.6757 60.9641 42.5856L60.5144 44.5344ZM62.0713 44.8358C62.7209 44.9383 63.3338 44.992 63.9073 44.992V42.992C63.4567 42.992 62.9496 42.9497 62.3832 42.8602L62.0713 44.8358ZM63.9073 44.992C65.4726 44.992 66.8403 44.6303 67.7514 43.6737L66.3031 42.2943C65.9342 42.6817 65.2219 42.992 63.9073 42.992V44.992ZM67.7169 43.7081C68.5006 42.9618 69.1582 41.9862 69.7081 40.8178L67.8984 39.9662C67.4243 40.9738 66.8979 41.7262 66.3376 42.2599L67.7169 43.7081ZM69.7224 40.7859L71.4504 36.7539L69.6121 35.9661L67.8841 39.9981L69.7224 40.7859ZM69.5314 36.3418L69.4354 41.6218L71.4351 41.6582L71.5311 36.3782L69.5314 36.3418ZM71.3651 41.2721L59.9891 12.5201L58.1294 13.2559L69.5054 42.0079L71.3651 41.2721ZM59.0593 13.888H65.8273V11.888H59.0593V13.888ZM64.8911 13.2396L72.8591 34.4556L74.7314 33.7524L66.7634 12.5364L64.8911 13.2396ZM73.7953 33.104H71.3953V35.104H73.7953V33.104ZM72.3321 34.4537L80.2521 13.2377L78.3784 12.5383L70.4584 33.7543L72.3321 34.4537ZM79.3153 13.888H86.1313V11.888H79.3153V13.888ZM85.2014 12.5201L73.8254 41.2721L75.6851 42.0079L87.0611 13.2559L85.2014 12.5201ZM73.828 41.2655C73.1868 42.8533 72.418 44.1876 71.5305 45.2822L73.084 46.5418C74.1165 45.2684 74.9797 43.7547 75.6825 42.0145L73.828 41.2655ZM71.5305 45.2822C70.6573 46.3592 69.6533 47.1575 68.5182 47.6967L69.3763 49.5033C70.8012 48.8265 72.0372 47.8328 73.084 46.5418L71.5305 45.2822ZM68.4909 47.7102C67.4056 48.2668 66.1265 48.56 64.6273 48.56V50.56C66.392 50.56 67.9929 50.2132 69.4036 49.4898L68.4909 47.7102ZM98.1155 39H97.1155V40H98.1155V39ZM98.1155 12.888V11.888H97.1155V12.888H98.1155ZM104.02 12.888H105.02V11.888H104.02V12.888ZM104.02 18.024L103.135 18.4897L105.02 18.024H104.02ZM103.54 17.112L102.607 16.7505L102.443 17.1749L102.655 17.5777L103.54 17.112ZM106.516 13.56L107.018 14.4245L107.024 14.4209L106.516 13.56ZM116.5 13.56L116.007 14.4306L116.015 14.435L116.5 13.56ZM120.004 17.064L119.128 17.5481L119.133 17.5561L120.004 17.064ZM121.252 39V40H122.252V39H121.252ZM114.964 39H113.964V40H114.964V39ZM114.292 20.712L115.172 20.2379L115.172 20.2379L114.292 20.712ZM112.42 18.792L111.89 19.64L111.91 19.6527L111.931 19.6645L112.42 18.792ZM106.948 18.792L107.436 19.6645L107.449 19.6572L107.462 19.6495L106.948 18.792ZM105.076 20.712L105.956 21.1861L105.956 21.1861L105.076 20.712ZM104.404 39V40H105.404V39H104.404ZM99.1155 39V12.888H97.1155V39H99.1155ZM98.1155 13.888H104.02V11.888H98.1155V13.888ZM103.02 12.888V18.024H105.02V12.888H103.02ZM104.904 17.5583L104.424 16.6463L102.655 17.5777L103.135 18.4897L104.904 17.5583ZM104.472 17.4735C105.003 16.1042 105.85 15.1037 107.018 14.4245L106.013 12.6955C104.429 13.6163 103.292 14.9838 102.607 16.7505L104.472 17.4735ZM107.024 14.4209C108.258 13.6917 109.71 13.312 111.412 13.312V11.312C109.401 11.312 107.589 11.7643 106.007 12.6991L107.024 14.4209ZM111.412 13.312C113.183 13.312 114.705 13.6944 116.007 14.4306L116.992 12.6894C115.35 11.7616 113.48 11.312 111.412 11.312V13.312ZM116.015 14.435C117.355 15.176 118.387 16.2085 119.128 17.5481L120.879 16.5799C119.956 14.9115 118.652 13.608 116.984 12.685L116.015 14.435ZM119.133 17.5561C119.868 18.8561 120.252 20.3935 120.252 22.2H122.252C122.252 20.1025 121.803 18.2159 120.874 16.5719L119.133 17.5561ZM120.252 22.2V39H122.252V22.2H120.252ZM121.252 38H114.964V40H121.252V38ZM115.964 39V23.688H113.964V39H115.964ZM115.964 23.688C115.964 22.4064 115.714 21.2443 115.172 20.2379L113.411 21.1861C113.765 21.8437 113.964 22.6656 113.964 23.688H115.964ZM115.172 20.2379C114.637 19.244 113.879 18.4633 112.908 17.9195L111.931 19.6645C112.56 20.0167 113.05 20.516 113.411 21.1861L115.172 20.2379ZM112.949 17.944C111.998 17.3491 110.895 17.072 109.684 17.072V19.072C110.584 19.072 111.305 19.2749 111.89 19.64L112.949 17.944ZM109.684 17.072C108.496 17.072 107.403 17.3523 106.433 17.9345L107.462 19.6495C108.092 19.2717 108.823 19.072 109.684 19.072V17.072ZM106.459 17.9195C105.488 18.4633 104.73 19.244 104.195 20.2379L105.956 21.1861C106.317 20.516 106.807 20.0167 107.436 19.6645L106.459 17.9195ZM104.195 20.2379C103.653 21.2442 103.404 22.4064 103.404 23.688H105.404C105.404 22.6656 105.602 21.8437 105.956 21.1861L104.195 20.2379ZM103.404 23.688V39H105.404V23.688H103.404ZM104.404 38H98.1155V40H104.404V38ZM133.817 48.6L134.176 47.6667L134.176 47.6667L133.817 48.6ZM129.497 45.912L130.184 45.186L130.184 45.1855L129.497 45.912ZM126.905 41.928L126.552 40.9923L125.635 41.3381L125.962 42.2618L126.905 41.928ZM132.761 39.72L133.714 39.4189L133.396 38.4117L132.408 38.7843L132.761 39.72ZM135.017 42.648L135.571 41.8159L135.566 41.8123L135.017 42.648ZM142.601 43.08L142.165 42.1798L142.153 42.1856L142.601 43.08ZM144.905 40.968L144.05 40.449L144.046 40.4556L144.042 40.4623L144.905 40.968ZM145.721 31.752L146.489 31.1118L144.721 28.99V31.752H145.721ZM146.921 33.192L147.789 33.6881L148.133 33.0853L147.689 32.5518L146.921 33.192ZM143.321 36.744L143.79 37.6269L143.79 37.6269L143.321 36.744ZM131.657 36.264L131.153 37.1278L131.657 36.264ZM127.145 31.656L128.018 31.1691L128.018 31.1691L127.145 31.656ZM127.145 18.504L128.015 18.997L128.015 18.997L127.145 18.504ZM131.609 13.992L132.108 14.8585L132.119 14.8521L131.609 13.992ZM143.177 13.56L142.685 14.4306L142.696 14.4369L142.707 14.4429L143.177 13.56ZM146.921 17.064L147.799 17.5429L148.083 17.0209L147.761 16.5215L146.921 17.064ZM146.057 18.648H145.057L146.935 19.1269L146.057 18.648ZM146.057 12.888V11.888H145.057V12.888H146.057ZM152.009 12.888H153.009V11.888H152.009V12.888ZM150.329 43.8L149.481 43.27L149.474 43.281L150.329 43.8ZM145.817 48.024L145.346 47.1416L145.34 47.145L145.817 48.024ZM142.457 31.272L142.959 32.1368L142.967 32.1319L142.457 31.272ZM144.857 28.776L145.735 29.2549L145.735 29.2549L144.857 28.776ZM144.809 21.528L143.925 21.9959L143.933 22.0116L143.942 22.027L144.809 21.528ZM142.409 18.984L141.886 19.8367L141.898 19.8439L142.409 18.984ZM135.401 18.984L134.902 18.1174L134.902 18.1174L135.401 18.984ZM132.905 21.528L132.032 21.0402L132.027 21.0491L132.905 21.528ZM132.905 28.728L132.027 29.2069L132.032 29.217L132.038 29.227L132.905 28.728ZM135.353 31.224L134.842 32.0839L134.854 32.0906L135.353 31.224ZM139.241 48.56C137.4 48.56 135.715 48.2586 134.176 47.6667L133.458 49.5333C135.247 50.2214 137.178 50.56 139.241 50.56V48.56ZM134.176 47.6667C132.626 47.0706 131.299 46.2424 130.184 45.186L128.809 46.638C130.126 47.8856 131.68 48.8494 133.458 49.5333L134.176 47.6667ZM130.184 45.1855C129.115 44.1743 128.338 42.9809 127.847 41.5942L125.962 42.2618C126.559 43.9471 127.51 45.4097 128.809 46.6385L130.184 45.1855ZM127.257 42.8637L133.113 40.6557L132.408 38.7843L126.552 40.9923L127.257 42.8637ZM131.807 40.0211C132.264 41.4683 133.166 42.6283 134.467 43.4837L135.566 41.8123C134.628 41.1957 134.025 40.4037 133.714 39.4189L131.807 40.0211ZM134.462 43.4801C135.809 44.378 137.42 44.8 139.241 44.8V42.8C137.734 42.8 136.528 42.454 135.571 41.816L134.462 43.4801ZM139.241 44.8C140.646 44.8 141.925 44.536 143.048 43.9744L142.153 42.1856C141.357 42.584 140.395 42.8 139.241 42.8V44.8ZM143.036 43.9802C144.202 43.4161 145.121 42.577 145.767 41.4737L144.042 40.4623C143.601 41.215 142.983 41.7839 142.165 42.1798L143.036 43.9802ZM145.759 41.487C146.417 40.4032 146.721 39.1265 146.721 37.704H144.721C144.721 38.8415 144.48 39.7408 144.05 40.449L145.759 41.487ZM146.721 37.704V31.752H144.721V37.704H146.721ZM144.952 32.3922L146.152 33.8322L147.689 32.5518L146.489 31.1118L144.952 32.3922ZM146.052 32.6959C145.244 34.1102 144.178 35.1552 142.851 35.8611L143.79 37.6269C145.471 36.7328 146.805 35.4098 147.789 33.6881L146.052 32.6959ZM142.851 35.8611C141.509 36.5749 139.962 36.944 138.185 36.944V38.944C140.247 38.944 142.124 38.5131 143.79 37.6269L142.851 35.8611ZM138.185 36.944C135.913 36.944 133.913 36.4227 132.16 35.4002L131.153 37.1278C133.24 38.3453 135.593 38.944 138.185 38.944V36.944ZM132.16 35.4002C130.396 34.371 129.019 32.9655 128.018 31.1691L126.271 32.1429C127.446 34.2504 129.077 35.917 131.153 37.1278L132.16 35.4002ZM128.018 31.1691C127.02 29.3789 126.513 27.357 126.513 25.08H124.513C124.513 27.667 125.093 30.0291 126.271 32.1429L128.018 31.1691ZM126.513 25.08C126.513 22.7682 127.021 20.7497 128.015 18.997L126.275 18.011C125.092 20.0983 124.513 22.4638 124.513 25.08H126.513ZM128.015 18.997C129.016 17.2303 130.377 15.8561 132.108 14.8584L131.109 13.1256C129.065 14.3039 127.449 15.9377 126.275 18.011L128.015 18.997ZM132.119 14.8521C133.838 13.8321 135.803 13.312 138.041 13.312V11.312C135.478 11.312 133.155 11.9119 131.098 13.1319L132.119 14.8521ZM138.041 13.312C139.847 13.312 141.385 13.6957 142.685 14.4306L143.669 12.6894C142.025 11.7603 140.138 11.312 138.041 11.312V13.312ZM142.707 14.4429C144.05 15.157 145.174 16.2029 146.081 17.6065L147.761 16.5215C146.683 14.8531 145.312 13.563 143.646 12.6771L142.707 14.4429ZM146.043 16.5851L145.179 18.1691L146.935 19.1269L147.799 17.5429L146.043 16.5851ZM147.057 18.648V12.888H145.057V18.648H147.057ZM146.057 13.888H152.009V11.888H146.057V13.888ZM151.009 12.888V37.704H153.009V12.888H151.009ZM151.009 37.704C151.009 39.8032 150.494 41.6489 149.481 43.27L151.177 44.33C152.403 42.3671 153.009 40.1488 153.009 37.704H151.009ZM149.474 43.281C148.483 44.9136 147.114 46.1987 145.346 47.1416L146.287 48.9064C148.359 47.8013 149.999 46.2704 151.183 44.319L149.474 43.281ZM145.34 47.145C143.62 48.0776 141.597 48.56 139.241 48.56V50.56C141.876 50.56 144.237 50.0184 146.293 48.903L145.34 47.145ZM138.953 33.136C140.442 33.136 141.79 32.8155 142.959 32.1368L141.954 30.4072C141.139 30.8805 140.151 31.136 138.953 31.136V33.136ZM142.967 32.1319C144.147 31.4312 145.073 30.4669 145.735 29.2549L143.979 28.2971C143.488 29.1971 142.814 29.8968 141.946 30.4121L142.967 32.1319ZM145.735 29.2549C146.402 28.032 146.721 26.647 146.721 25.128H144.721C144.721 26.361 144.464 27.408 143.979 28.2971L145.735 29.2549ZM146.721 25.128C146.721 23.6274 146.379 22.2521 145.675 21.029L143.942 22.027C144.454 22.9159 144.721 23.9406 144.721 25.128H146.721ZM145.692 21.0601C145.033 19.8154 144.107 18.8293 142.919 18.1241L141.898 19.8439C142.758 20.3547 143.432 21.0646 143.925 21.9959L145.692 21.0601ZM142.931 18.1314C141.763 17.4151 140.425 17.072 138.953 17.072V19.072C140.104 19.072 141.071 19.3369 141.886 19.8366L142.931 18.1314ZM138.953 17.072C137.479 17.072 136.121 17.4153 134.902 18.1174L135.9 19.8506C136.792 19.3367 137.802 19.072 138.953 19.072V17.072ZM134.902 18.1174C133.685 18.8177 132.726 19.7982 132.032 21.0402L133.778 22.0158C134.3 21.0818 135.004 20.3663 135.9 19.8506L134.902 18.1174ZM132.027 21.0491C131.362 22.2686 131.041 23.6367 131.041 25.128H133.041C133.041 23.9313 133.296 22.8994 133.783 22.0069L132.027 21.0491ZM131.041 25.128C131.041 26.6193 131.362 27.9874 132.027 29.2069L133.783 28.2491C133.296 27.3566 133.041 26.3247 133.041 25.128H131.041ZM132.038 29.227C132.73 30.4282 133.667 31.386 134.842 32.0839L135.863 30.3641C134.99 29.846 134.296 29.1398 133.771 28.229L132.038 29.227ZM134.854 32.0906C136.077 32.7948 137.452 33.136 138.953 33.136V31.136C137.765 31.136 136.741 30.8692 135.852 30.3574L134.854 32.0906ZM157.881 39H156.881V40H157.881V39ZM157.881 2.664V1.664H156.881V2.664H157.881ZM164.169 2.664H165.169V1.664H164.169V2.664ZM164.169 18.024L163.443 18.7117L165.169 20.5336V18.024H164.169ZM163.305 17.112L162.373 16.7505L162.144 17.3404L162.579 17.7997L163.305 17.112ZM166.281 13.56L166.784 14.4245L166.79 14.4209L166.281 13.56ZM176.265 13.56L175.773 14.4306L175.781 14.435L176.265 13.56ZM179.769 17.064L178.894 17.5481L178.899 17.5561L179.769 17.064ZM181.017 39V40H182.017V39H181.017ZM174.729 39H173.729V40H174.729V39ZM174.057 20.712L174.938 20.2379L174.938 20.2379L174.057 20.712ZM172.185 18.792L171.655 19.64L171.676 19.6527L171.697 19.6645L172.185 18.792ZM166.713 18.792L167.202 19.6645L167.215 19.6572L167.228 19.6495L166.713 18.792ZM164.841 20.712L165.722 21.1861L165.722 21.1861L164.841 20.712ZM164.169 39V40H165.169V39H164.169ZM158.881 39V2.664H156.881V39H158.881ZM157.881 3.664H164.169V1.664H157.881V3.664ZM163.169 2.664V18.024H165.169V2.664H163.169ZM164.895 17.3363L164.031 16.4243L162.579 17.7997L163.443 18.7117L164.895 17.3363ZM164.237 17.4735C164.768 16.1042 165.616 15.1037 166.784 14.4245L165.779 12.6955C164.195 13.6163 163.058 14.9838 162.373 16.7505L164.237 17.4735ZM166.79 14.4209C168.024 13.6917 169.475 13.312 171.177 13.312V11.312C169.167 11.312 167.354 11.7643 165.772 12.6991L166.79 14.4209ZM171.177 13.312C172.948 13.312 174.471 13.6944 175.773 14.4306L176.757 12.6894C175.116 11.7616 173.246 11.312 171.177 11.312V13.312ZM175.781 14.435C177.121 15.176 178.153 16.2085 178.894 17.5481L180.644 16.5799C179.721 14.9115 178.418 13.608 176.749 12.685L175.781 14.435ZM178.899 17.5561C179.633 18.8561 180.017 20.3935 180.017 22.2H182.017C182.017 20.1025 181.569 18.2159 180.64 16.5719L178.899 17.5561ZM180.017 22.2V39H182.017V22.2H180.017ZM181.017 38H174.729V40H181.017V38ZM175.729 39V23.688H173.729V39H175.729ZM175.729 23.688C175.729 22.4064 175.479 21.2443 174.938 20.2379L173.177 21.1861C173.531 21.8437 173.729 22.6656 173.729 23.688H175.729ZM174.938 20.2379C174.402 19.244 173.645 18.4633 172.674 17.9195L171.697 19.6645C172.325 20.0167 172.816 20.516 173.177 21.1861L174.938 20.2379ZM172.715 17.944C171.763 17.3491 170.661 17.072 169.449 17.072V19.072C170.349 19.072 171.071 19.2749 171.655 19.64L172.715 17.944ZM169.449 17.072C168.262 17.072 167.169 17.3523 166.199 17.9345L167.228 19.6495C167.857 19.2717 168.588 19.072 169.449 19.072V17.072ZM166.225 17.9195C165.253 18.4633 164.496 19.244 163.961 20.2379L165.722 21.1861C166.082 20.516 166.573 20.0167 167.202 19.6645L166.225 17.9195ZM163.961 20.2379C163.419 21.2442 163.169 22.4064 163.169 23.688H165.169C165.169 22.6656 165.367 21.8437 165.722 21.1861L163.961 20.2379ZM163.169 23.688V39H165.169V23.688H163.169ZM164.169 38H157.881V40H164.169V38ZM185.758 39H184.758V40H185.758V39ZM185.758 12.888V11.888H184.758V12.888H185.758ZM192.046 12.888H193.046V11.888H192.046V12.888ZM192.046 39V40H193.046V39H192.046ZM190.126 7.896L189.679 8.79043L189.708 8.805L189.738 8.81764L190.126 7.896ZM188.638 6.984L187.992 7.74738L188.01 7.76242L188.029 7.77662L188.638 6.984ZM187.39 6.072L186.821 6.89419L186.843 6.90953L186.866 6.92366L187.39 6.072ZM184.702 6.264L185.502 6.864L185.514 6.84881L185.524 6.83321L184.702 6.264ZM184.27 8.088V9.088H185.27V8.088H184.27ZM179.422 8.088H178.422V9.088H179.422V8.088ZM181.15 2.472L181.867 3.16942L181.876 3.15974L181.15 2.472ZM187.582 1.032L187.194 1.95363L187.194 1.95364L187.582 1.032ZM189.166 1.944L188.548 2.73032L188.548 2.73032L189.166 1.944ZM190.414 2.856L189.86 3.68805L189.875 3.69813L189.89 3.70766L190.414 2.856ZM193.102 2.616L193.954 3.1401L193.962 3.12625L193.97 3.11214L193.102 2.616ZM193.486 0.839999V-0.160001H192.486V0.839999H193.486ZM198.334 0.839999L199.334 0.853156L199.347 -0.160001H198.334V0.839999ZM196.558 6.408L197.293 7.08633L197.302 7.07696L196.558 6.408ZM186.758 39V12.888H184.758V39H186.758ZM185.758 13.888H192.046V11.888H185.758V13.888ZM191.046 12.888V39H193.046V12.888H191.046ZM192.046 38H185.758V40H192.046V38ZM192.334 7.28C191.564 7.28 190.968 7.16531 190.514 6.97436L189.738 8.81764C190.501 9.13868 191.376 9.28 192.334 9.28V7.28ZM190.573 7.00157C190.042 6.73604 189.603 6.4647 189.248 6.19137L188.029 7.77662C188.505 8.14329 189.058 8.47996 189.679 8.79043L190.573 7.00157ZM189.284 6.22061C188.834 5.83983 188.378 5.50547 187.914 5.22034L186.866 6.92366C187.235 7.15052 187.61 7.42417 187.992 7.74738L189.284 6.22061ZM187.959 5.24981C187.363 4.83719 186.682 4.64 185.95 4.64V6.64C186.307 6.64 186.585 6.7308 186.821 6.89419L187.959 5.24981ZM185.95 4.64C185.107 4.64 184.371 4.98593 183.88 5.69479L185.524 6.83321C185.61 6.71007 185.705 6.64 185.95 6.64V4.64ZM183.902 5.664C183.419 6.30784 183.27 7.18158 183.27 8.088H185.27C185.27 7.33042 185.409 6.98816 185.502 6.864L183.902 5.664ZM184.27 7.088H179.422V9.088H184.27V7.088ZM180.422 8.088C180.422 5.64941 180.975 4.08636 181.867 3.16935L180.434 1.77464C179.022 3.22564 178.422 5.40658 178.422 8.088H180.422ZM181.876 3.15974C182.845 2.13715 183.977 1.648 185.326 1.648V-0.352001C183.412 -0.352001 181.76 0.37485 180.424 1.78425L181.876 3.15974ZM185.326 1.648C186.134 1.648 186.745 1.76431 187.194 1.95363L187.97 0.110364C187.204 -0.212312 186.311 -0.352001 185.326 -0.352001V1.648ZM187.194 1.95364C187.733 2.18031 188.181 2.44136 188.548 2.73032L189.784 1.15768C189.256 0.742638 188.648 0.395683 187.97 0.110363L187.194 1.95364ZM188.548 2.73032C189.012 3.09482 189.45 3.41476 189.86 3.68805L190.969 2.02395C190.611 1.78524 190.216 1.49717 189.784 1.15768L188.548 2.73032ZM189.89 3.70766C190.461 4.05884 191.09 4.24 191.758 4.24V2.24C191.467 2.24 191.2 2.16515 190.938 2.00434L189.89 3.70766ZM191.758 4.24C192.624 4.24 193.46 3.94266 193.954 3.1401L192.251 2.0919C192.232 2.12134 192.173 2.24 191.758 2.24V4.24ZM193.97 3.11214C194.342 2.46211 194.486 1.68007 194.486 0.839999H192.486C192.486 1.47193 192.375 1.87389 192.234 2.11986L193.97 3.11214ZM193.486 1.84H198.334V-0.160001H193.486V1.84ZM197.334 0.826842C197.304 3.11558 196.749 4.70144 195.815 5.73903L197.302 7.07696C198.672 5.55455 199.3 3.42842 199.334 0.853156L197.334 0.826842ZM195.823 5.72972C194.856 6.77745 193.713 7.28 192.334 7.28V9.28C194.284 9.28 195.956 8.53454 197.293 7.08628L195.823 5.72972Z" fill="white" mask="url(#path-1-outside-1_1936_678)"/>
</svg>
