<svg width="200" height="41" viewBox="0 0 201 42" fill="none" xmlns="http://www.w3.org/2000/svg">
    <mask id="path-1-outside-1_1906_1398" maskUnits="userSpaceOnUse" x="-1" y="-1" width="202" height="43" fill="black">
        <rect fill="white" x="-1" y="-1" width="202" height="43"/>
        <path d="M18.4 40.576C15.84 40.576 13.472 40.112 11.296 39.184C9.12 38.256 7.216 36.96 5.584 35.296C3.952 33.632 2.672 31.68 1.744 29.44C0.848 27.2 0.4 24.752 0.4 22.096C0.4 19.44 0.832 16.992 1.696 14.752C2.592 12.48 3.84 10.528 5.44 8.896C7.072 7.232 8.976 5.952 11.152 5.056C13.328 4.128 15.696 3.664 18.256 3.664C20.816 3.664 23.104 4.096 25.12 4.96C27.168 5.824 28.896 6.976 30.304 8.416C31.712 9.824 32.72 11.376 33.328 13.072L27.52 15.856C26.848 14 25.712 12.496 24.112 11.344C22.512 10.192 20.56 9.616 18.256 9.616C16.016 9.616 14.032 10.144 12.304 11.2C10.608 12.256 9.28 13.712 8.32 15.568C7.392 17.424 6.928 19.6 6.928 22.096C6.928 24.592 7.408 26.784 8.368 28.672C9.36 30.528 10.72 31.984 12.448 33.04C14.176 34.096 16.16 34.624 18.4 34.624C20.224 34.624 21.904 34.272 23.44 33.568C24.976 32.832 26.208 31.808 27.136 30.496C28.064 29.152 28.528 27.568 28.528 25.744V23.008L31.504 25.6H18.256V20.08H35.056V23.68C35.056 26.432 34.592 28.864 33.664 30.976C32.736 33.088 31.472 34.864 29.872 36.304C28.304 37.712 26.528 38.784 24.544 39.52C22.56 40.224 20.512 40.576 18.4 40.576ZM52.4616 40.576C49.9016 40.576 47.5656 39.984 45.4536 38.8C43.3736 37.616 41.7096 36 40.4616 33.952C39.2456 31.904 38.6376 29.568 38.6376 26.944C38.6376 24.32 39.2456 21.984 40.4616 19.936C41.7096 17.888 43.3736 16.272 45.4536 15.088C47.5336 13.904 49.8696 13.312 52.4616 13.312C55.0216 13.312 57.3416 13.904 59.4216 15.088C61.5016 16.272 63.1496 17.888 64.3656 19.936C65.6136 21.952 66.2376 24.288 66.2376 26.944C66.2376 29.568 65.6136 31.904 64.3656 33.952C63.1176 36 61.4536 37.616 59.3736 38.8C57.2936 39.984 54.9896 40.576 52.4616 40.576ZM52.4616 34.816C53.8696 34.816 55.1016 34.48 56.1576 33.808C57.2456 33.136 58.0936 32.208 58.7016 31.024C59.3416 29.808 59.6616 28.448 59.6616 26.944C59.6616 25.408 59.3416 24.064 58.7016 22.912C58.0936 21.728 57.2456 20.8 56.1576 20.128C55.1016 19.424 53.8696 19.072 52.4616 19.072C51.0216 19.072 49.7576 19.424 48.6696 20.128C47.5816 20.8 46.7176 21.728 46.0776 22.912C45.4696 24.064 45.1656 25.408 45.1656 26.944C45.1656 28.448 45.4696 29.808 46.0776 31.024C46.7176 32.208 47.5816 33.136 48.6696 33.808C49.7576 34.48 51.0216 34.816 52.4616 34.816ZM49.3416 9.28L52.4616 0.975999H60.6216L55.5336 9.28H49.3416ZM83.5821 40.576C80.9901 40.576 78.6541 39.984 76.5741 38.8C74.5261 37.584 72.9101 35.952 71.7261 33.904C70.5421 31.824 69.9501 29.488 69.9501 26.896C69.9501 24.304 70.5421 21.984 71.7261 19.936C72.9101 17.888 74.5261 16.272 76.5741 15.088C78.6541 13.904 80.9901 13.312 83.5821 13.312C85.4381 13.312 87.1661 13.648 88.7661 14.32C90.3661 14.96 91.7421 15.856 92.8941 17.008C94.0781 18.128 94.9261 19.472 95.4381 21.04L89.9181 23.44C89.4381 22.128 88.6221 21.072 87.4701 20.272C86.3501 19.472 85.0541 19.072 83.5821 19.072C82.2061 19.072 80.9741 19.408 79.8861 20.08C78.8301 20.752 77.9981 21.68 77.3901 22.864C76.7821 24.048 76.4781 25.408 76.4781 26.944C76.4781 28.48 76.7821 29.84 77.3901 31.024C77.9981 32.208 78.8301 33.136 79.8861 33.808C80.9741 34.48 82.2061 34.816 83.5821 34.816C85.0861 34.816 86.3981 34.416 87.5181 33.616C88.6381 32.816 89.4381 31.744 89.9181 30.4L95.4381 32.896C94.9261 34.368 94.0941 35.696 92.9421 36.88C91.7901 38.032 90.4141 38.944 88.8141 39.616C87.2141 40.256 85.4701 40.576 83.5821 40.576ZM108.741 40V13.888H114.645V19.024L114.165 18.112C114.773 16.544 115.765 15.36 117.141 14.56C118.549 13.728 120.181 13.312 122.037 13.312C123.957 13.312 125.653 13.728 127.125 14.56C128.629 15.392 129.797 16.56 130.629 18.064C131.461 19.536 131.877 21.248 131.877 23.2V40H125.589V24.688C125.589 23.536 125.365 22.544 124.917 21.712C124.469 20.88 123.845 20.24 123.045 19.792C122.277 19.312 121.365 19.072 120.309 19.072C119.285 19.072 118.373 19.312 117.573 19.792C116.773 20.24 116.149 20.88 115.701 21.712C115.253 22.544 115.029 23.536 115.029 24.688V40H108.741ZM137.194 40V3.664H143.482V19.024L142.618 18.112C143.226 16.544 144.218 15.36 145.594 14.56C147.002 13.728 148.634 13.312 150.49 13.312C152.41 13.312 154.106 13.728 155.578 14.56C157.082 15.392 158.25 16.56 159.082 18.064C159.914 19.536 160.33 21.248 160.33 23.2V40H154.042V24.688C154.042 23.536 153.818 22.544 153.37 21.712C152.922 20.88 152.298 20.24 151.498 19.792C150.73 19.312 149.818 19.072 148.762 19.072C147.738 19.072 146.826 19.312 146.026 19.792C145.226 20.24 144.602 20.88 144.154 21.712C143.706 22.544 143.482 23.536 143.482 24.688V40H137.194ZM165.071 40V13.888H171.359V40H165.071ZM165.119 9.28L160.031 0.975999H168.191L171.311 9.28H165.119ZM176.569 40V13.888H182.473V19.024L181.993 18.112C182.601 16.544 183.593 15.36 184.969 14.56C186.377 13.728 188.009 13.312 189.865 13.312C191.785 13.312 193.481 13.728 194.953 14.56C196.457 15.392 197.625 16.56 198.457 18.064C199.289 19.536 199.705 21.248 199.705 23.2V40H193.417V24.688C193.417 23.536 193.193 22.544 192.745 21.712C192.297 20.88 191.673 20.24 190.873 19.792C190.105 19.312 189.193 19.072 188.137 19.072C187.113 19.072 186.201 19.312 185.401 19.792C184.601 20.24 183.977 20.88 183.529 21.712C183.081 22.544 182.857 23.536 182.857 24.688V40H176.569Z"/>
    </mask>
    <path d="M11.296 39.184L10.9037 40.1038L11.296 39.184ZM1.744 29.44L0.815454 29.8114L0.820144 29.8227L1.744 29.44ZM1.696 14.752L0.765701 14.3851L0.762999 14.3921L1.696 14.752ZM5.44 8.896L4.72606 8.19579L4.72593 8.19593L5.44 8.896ZM11.152 5.056L11.5328 5.98075L11.5443 5.97584L11.152 5.056ZM25.12 4.96L24.7261 5.87916L24.7313 5.88136L25.12 4.96ZM30.304 8.416L29.589 9.11516L29.5969 9.1231L30.304 8.416ZM33.328 13.072L33.7603 13.9738L34.5738 13.5838L34.2693 12.7345L33.328 13.072ZM27.52 15.856L26.5797 16.1964L26.9559 17.2353L27.9522 16.7578L27.52 15.856ZM24.112 11.344L23.5277 12.1555L24.112 11.344ZM12.304 11.2L11.7825 10.3467L11.7754 10.3511L12.304 11.2ZM8.32 15.568L7.4317 15.1085L7.42557 15.1208L8.32 15.568ZM8.368 28.672L7.47661 29.1252L7.48125 29.1344L7.48607 29.1434L8.368 28.672ZM12.448 33.04L12.9695 32.1867H12.9695L12.448 33.04ZM23.44 33.568L23.8567 34.4771L23.8644 34.4735L23.8721 34.4698L23.44 33.568ZM27.136 30.496L27.9525 31.0735L27.9589 31.0642L27.136 30.496ZM28.528 23.008L29.1848 22.2539L27.528 20.8109V23.008H28.528ZM31.504 25.6V26.6H34.1747L32.1608 24.8459L31.504 25.6ZM18.256 25.6H17.256V26.6H18.256V25.6ZM18.256 20.08V19.08H17.256V20.08H18.256ZM35.056 20.08H36.056V19.08H35.056V20.08ZM29.872 36.304L30.5401 37.048L30.541 37.0473L29.872 36.304ZM24.544 39.52L24.8784 40.4624L24.8851 40.46L24.8918 40.4576L24.544 39.52ZM18.4 39.576C15.9636 39.576 13.7304 39.135 11.6883 38.2642L10.9037 40.1038C13.2136 41.089 15.7164 41.576 18.4 41.576V39.576ZM11.6883 38.2642C9.63101 37.3868 7.83675 36.1648 6.29794 34.5958L4.87006 35.9962C6.59525 37.7552 8.60899 39.1252 10.9037 40.1038L11.6883 38.2642ZM6.29794 34.5958C4.75919 33.0269 3.54886 31.1838 2.66786 29.0573L0.820144 29.8227C1.79514 32.1762 3.14481 34.2371 4.87006 35.9962L6.29794 34.5958ZM2.67248 29.0686C1.82828 26.9581 1.4 24.6376 1.4 22.096H-0.6C-0.6 24.8664 -0.132277 27.4419 0.815523 29.8114L2.67248 29.0686ZM1.4 22.096C1.4 19.55 1.81376 17.2255 2.629 15.1119L0.762999 14.3921C-0.149755 16.7585 -0.6 19.33 -0.6 22.096H1.4ZM2.62627 15.1189C3.47662 12.9626 4.65399 11.1262 6.15407 9.59607L4.72593 8.19593C3.02601 9.92984 1.70738 11.9974 0.765728 14.3851L2.62627 15.1189ZM6.15394 9.59621C7.69027 8.02975 9.48061 6.82567 11.5328 5.98068L10.7713 4.13132C8.47139 5.07832 6.45373 6.43424 4.72606 8.19579L6.15394 9.59621ZM11.5443 5.97584C13.5864 5.10495 15.8196 4.664 18.256 4.664V2.664C15.5724 2.664 13.0696 3.15104 10.7597 4.13615L11.5443 5.97584ZM18.256 4.664C20.703 4.664 22.8536 5.07665 24.7261 5.87914L25.5139 4.04085C23.3544 3.11535 20.929 2.664 18.256 2.664V4.664ZM24.7313 5.88136C26.6696 6.69908 28.2831 7.77956 29.589 9.11512L31.019 7.71688C29.5089 6.17244 27.6664 4.94892 25.5087 4.03864L24.7313 5.88136ZM29.5969 9.1231C30.9116 10.4378 31.8335 11.8665 32.3867 13.4095L34.2693 12.7345C33.6065 10.8855 32.5124 9.21021 31.0111 7.70889L29.5969 9.1231ZM32.8958 12.1702L27.0878 14.9542L27.9522 16.7578L33.7603 13.9738L32.8958 12.1702ZM28.4603 15.5156C27.7198 13.4705 26.4599 11.8022 24.6963 10.5325L23.5277 12.1555C24.9641 13.1898 25.9762 14.5295 26.5797 16.1964L28.4603 15.5156ZM24.6963 10.5325C22.8987 9.2382 20.7332 8.616 18.256 8.616V10.616C20.3868 10.616 22.1253 11.1458 23.5277 12.1555L24.6963 10.5325ZM18.256 8.616C15.8521 8.616 13.6839 9.18479 11.7826 10.3467L12.8254 12.0533C14.3801 11.1032 16.1799 10.616 18.256 10.616V8.616ZM11.7754 10.3511C9.91954 11.5067 8.47048 13.1004 7.43178 15.1086L9.20822 16.0274C10.0895 14.3236 11.2965 13.0053 12.8326 12.0489L11.7754 10.3511ZM7.42557 15.1208C6.41544 17.141 5.928 19.4759 5.928 22.096H7.928C7.928 19.7241 8.36856 17.707 9.21443 16.0152L7.42557 15.1208ZM5.928 22.096C5.928 24.7215 6.43352 27.0738 7.47661 29.1252L9.25939 28.2188C8.38248 26.4942 7.928 24.4625 7.928 22.096H5.928ZM7.48607 29.1434C8.55862 31.1501 10.0404 32.7406 11.9266 33.8933L12.9695 32.1867C11.3996 31.2274 10.1614 29.9059 9.24993 28.2006L7.48607 29.1434ZM11.9266 33.8933C13.8279 35.0552 15.9961 35.624 18.4 35.624V33.624C16.3239 33.624 14.5241 33.1368 12.9695 32.1867L11.9266 33.8933ZM18.4 35.624C20.3562 35.624 22.1798 35.2456 23.8567 34.4771L23.0233 32.6589C21.6282 33.2984 20.0918 33.624 18.4 33.624V35.624ZM23.8721 34.4698C25.5522 33.6648 26.9201 32.5329 27.9524 31.0735L26.3196 29.9185C25.4959 31.0831 24.3998 31.9992 23.0079 32.6662L23.8721 34.4698ZM27.9589 31.0642C29.0155 29.5339 29.528 27.7463 29.528 25.744H27.528C27.528 27.3897 27.1125 28.7701 26.3131 29.9278L27.9589 31.0642ZM29.528 25.744V23.008H27.528V25.744H29.528ZM27.8712 23.7621L30.8472 26.3541L32.1608 24.8459L29.1848 22.2539L27.8712 23.7621ZM31.504 24.6H18.256V26.6H31.504V24.6ZM19.256 25.6V20.08H17.256V25.6H19.256ZM18.256 21.08H35.056V19.08H18.256V21.08ZM34.056 20.08V23.68H36.056V20.08H34.056ZM34.056 23.68C34.056 26.3198 33.6111 28.6105 32.7485 30.5737L34.5795 31.3783C35.5729 29.1174 36.056 26.5442 36.056 23.68H34.056ZM32.7485 30.5737C31.8734 32.5653 30.6902 34.2223 29.203 35.5607L30.541 37.0473C32.2538 35.5057 33.5986 33.6107 34.5795 31.3783L32.7485 30.5737ZM29.2039 35.56C27.7299 36.8835 26.0627 37.89 24.1962 38.5824L24.8918 40.4576C26.9933 39.678 28.8781 38.5405 30.5401 37.048L29.2039 35.56ZM24.2096 38.5776C22.3333 39.2433 20.3984 39.576 18.4 39.576V41.576C20.6256 41.576 22.7867 41.2047 24.8784 40.4624L24.2096 38.5776ZM45.4536 38.8L44.9589 39.6691L44.9646 39.6723L45.4536 38.8ZM40.4616 33.952L39.6017 34.4626L39.6077 34.4724L40.4616 33.952ZM40.4616 19.936L39.6076 19.4156L39.6018 19.4255L40.4616 19.936ZM45.4536 15.088L44.9589 14.2189L45.4536 15.088ZM59.4216 15.088L59.9163 14.2189L59.4216 15.088ZM64.3656 19.936L63.5058 20.4465L63.5105 20.4545L63.5154 20.4624L64.3656 19.936ZM64.3656 33.952L65.2196 34.4724L64.3656 33.952ZM59.3736 38.8L59.8683 39.6691L59.3736 38.8ZM56.1576 33.808L55.6321 32.9571L55.6208 32.9643L56.1576 33.808ZM58.7016 31.024L57.8167 30.5582L57.8121 30.5672L58.7016 31.024ZM58.7016 22.912L57.8121 23.3688L57.8195 23.3834L57.8275 23.3976L58.7016 22.912ZM56.1576 20.128L55.6029 20.96L55.6174 20.9697L55.6321 20.9788L56.1576 20.128ZM48.6696 20.128L49.1951 20.9788L49.2041 20.9733L49.2129 20.9676L48.6696 20.128ZM46.0776 22.912L45.1979 22.4365L45.1932 22.4452L46.0776 22.912ZM46.0776 31.024L45.1832 31.4712L45.1903 31.4855L45.1979 31.4995L46.0776 31.024ZM48.6696 33.808L49.1951 32.9572L48.6696 33.808ZM49.3416 9.28L48.4055 8.92828L47.8976 10.28H49.3416V9.28ZM52.4616 0.975999V-0.0240011H51.7691L51.5255 0.624282L52.4616 0.975999ZM60.6216 0.975999L61.4743 1.49845L62.4071 -0.0240011H60.6216V0.975999ZM55.5336 9.28V10.28H56.0937L56.3863 9.80244L55.5336 9.28ZM52.4616 39.576C50.0627 39.576 47.8966 39.0231 45.9426 37.9277L44.9646 39.6723C47.2346 40.9449 49.7405 41.576 52.4616 41.576V39.576ZM45.9483 37.9309C44.016 36.831 42.4755 35.3351 41.3156 33.4316L39.6077 34.4724C40.9437 36.6649 42.7312 38.401 44.9589 39.6691L45.9483 37.9309ZM41.3215 33.4415C40.2064 31.5634 39.6376 29.4071 39.6376 26.944H37.6376C37.6376 29.7289 38.2849 32.2446 39.6018 34.4625L41.3215 33.4415ZM39.6376 26.944C39.6376 24.4809 40.2064 22.3246 41.3215 20.4465L39.6018 19.4255C38.2849 21.6434 37.6376 24.1591 37.6376 26.944H39.6376ZM41.3156 20.4564C42.4755 18.5529 44.016 17.057 45.9483 15.9571L44.9589 14.2189C42.7312 15.487 40.9437 17.2231 39.6077 19.4156L41.3156 20.4564ZM45.9483 15.9571C47.8652 14.8659 50.0283 14.312 52.4616 14.312V12.312C49.711 12.312 47.2021 12.9421 44.9589 14.2189L45.9483 15.9571ZM52.4616 14.312C54.8606 14.312 57.0082 14.8648 58.9269 15.9571L59.9163 14.2189C57.6751 12.9431 55.1826 12.312 52.4616 12.312V14.312ZM58.9269 15.9571C60.8569 17.0557 62.3788 18.5485 63.5058 20.4465L65.2255 19.4255C63.9205 17.2275 62.1463 15.4883 59.9163 14.2189L58.9269 15.9571ZM63.5154 20.4624C64.654 22.3018 65.2376 24.451 65.2376 26.944H67.2376C67.2376 24.125 66.5732 21.6022 65.2159 19.4096L63.5154 20.4624ZM65.2376 26.944C65.2376 29.4023 64.6553 31.555 63.5117 33.4316L65.2196 34.4724C66.572 32.253 67.2376 29.7337 67.2376 26.944H65.2376ZM63.5117 33.4316C62.3517 35.3351 60.8112 36.831 58.8789 37.9309L59.8683 39.6691C62.096 38.401 63.8835 36.6649 65.2196 34.4724L63.5117 33.4316ZM58.8789 37.9309C56.9582 39.0243 54.8263 39.576 52.4616 39.576V41.576C55.153 41.576 57.629 40.9437 59.8683 39.6691L58.8789 37.9309ZM52.4616 35.816C54.0353 35.816 55.4586 35.4381 56.6945 34.6517L55.6208 32.9643C54.7447 33.5219 53.7039 33.816 52.4616 33.816V35.816ZM56.6831 34.6588C57.9326 33.8871 58.9035 32.8199 59.5912 31.4808L57.8121 30.5672C57.2837 31.5961 56.5587 32.3849 55.6321 32.9572L56.6831 34.6588ZM59.5865 31.4897C60.3091 30.1169 60.6616 28.5946 60.6616 26.944H58.6616C58.6616 28.3014 58.3742 29.4991 57.8167 30.5583L59.5865 31.4897ZM60.6616 26.944C60.6616 25.2664 60.3111 23.7498 59.5758 22.4264L57.8275 23.3976C58.3722 24.3781 58.6616 25.5496 58.6616 26.944H60.6616ZM59.5912 22.4552C58.9035 21.1161 57.9326 20.0489 56.6831 19.2772L55.6321 20.9788C56.5587 21.5511 57.2837 22.3399 57.8121 23.3688L59.5912 22.4552ZM56.7123 19.2959C55.4743 18.4706 54.0446 18.072 52.4616 18.072V20.072C53.6946 20.072 54.7289 20.3774 55.6029 20.96L56.7123 19.2959ZM52.4616 18.072C50.8511 18.072 49.3939 18.4683 48.1264 19.2884L49.2129 20.9676C50.1214 20.3797 51.1922 20.072 52.4616 20.072V18.072ZM48.1441 19.2772C46.8993 20.046 45.9166 21.1069 45.1979 22.4365L46.9573 23.3875C47.5187 22.3491 48.2639 21.554 49.1951 20.9788L48.1441 19.2772ZM45.1932 22.4452C44.4968 23.7648 44.1656 25.2744 44.1656 26.944H46.1656C46.1656 25.5416 46.4425 24.3632 46.962 23.3788L45.1932 22.4452ZM44.1656 26.944C44.1656 28.5865 44.4987 30.1021 45.1832 31.4712L46.9721 30.5768C46.4406 29.5139 46.1656 28.3095 46.1656 26.944H44.1656ZM45.1979 31.4995C45.9166 32.8291 46.8993 33.89 48.1441 34.6588L49.1951 32.9572C48.2639 32.382 47.5187 31.5869 46.9573 30.5485L45.1979 31.4995ZM48.1441 34.6588C49.4093 35.4402 50.86 35.816 52.4616 35.816V33.816C51.1832 33.816 50.1059 33.5198 49.1951 32.9572L48.1441 34.6588ZM50.2777 9.63171L53.3977 1.32772L51.5255 0.624282L48.4055 8.92828L50.2777 9.63171ZM52.4616 1.976H60.6216V-0.0240011H52.4616V1.976ZM59.769 0.453552L54.681 8.75755L56.3863 9.80244L61.4743 1.49845L59.769 0.453552ZM55.5336 8.28H49.3416V10.28H55.5336V8.28ZM76.5741 38.8L76.0636 39.6599L76.0715 39.6645L76.0794 39.6691L76.5741 38.8ZM71.7261 33.904L70.857 34.3987L70.8604 34.4045L71.7261 33.904ZM71.7261 19.936L72.5919 20.4365L71.7261 19.936ZM76.5741 15.088L76.0794 14.2189L76.0736 14.2223L76.5741 15.088ZM88.7661 14.32L88.3789 15.242L88.3868 15.2453L88.3947 15.2485L88.7661 14.32ZM92.8941 17.008L92.187 17.7151L92.1968 17.7249L92.2069 17.7345L92.8941 17.008ZM95.4381 21.04L95.8369 21.9571L96.6711 21.5944L96.3887 20.7296L95.4381 21.04ZM89.9181 23.44L88.979 23.7836L89.3436 24.7802L90.3168 24.3571L89.9181 23.44ZM87.4701 20.272L86.8888 21.0858L86.8997 21.0934L87.4701 20.272ZM79.8861 20.08L79.3606 19.2291L79.3493 19.2363L79.8861 20.08ZM77.3901 22.864L76.5006 22.4072L77.3901 22.864ZM77.3901 31.024L76.5006 31.4808L77.3901 31.024ZM79.8861 33.808L79.3492 34.6517L79.3606 34.6588L79.8861 33.808ZM87.5181 33.616L88.0994 34.4297L87.5181 33.616ZM89.9181 30.4L90.3301 29.4888L89.3414 29.0417L88.9764 30.0637L89.9181 30.4ZM95.4381 32.896L96.3826 33.2245L96.6829 32.3614L95.8501 31.9848L95.4381 32.896ZM92.9421 36.88L93.6493 37.5872L93.6589 37.5774L92.9421 36.88ZM88.8141 39.616L89.1855 40.5445L89.1935 40.5413L89.2014 40.538L88.8141 39.616ZM83.5821 39.576C81.1488 39.576 78.9857 39.0221 77.0688 37.9309L76.0794 39.6691C78.3226 40.9459 80.8315 41.576 83.5821 41.576V39.576ZM77.0847 37.9401C75.1828 36.8109 73.6896 35.3022 72.5919 33.4035L70.8604 34.4045C72.1307 36.6018 73.8694 38.3571 76.0636 39.6599L77.0847 37.9401ZM72.5952 33.4093C71.5041 31.4924 70.9501 29.3294 70.9501 26.896H68.9501C68.9501 29.6466 69.5802 32.1556 70.8571 34.3987L72.5952 33.4093ZM70.9501 26.896C70.9501 24.4624 71.5041 22.3181 72.5919 20.4365L70.8604 19.4355C69.5802 21.6499 68.9501 24.1456 68.9501 26.896H70.9501ZM72.5919 20.4365C73.6882 18.5401 75.1783 17.0501 77.0746 15.9537L76.0736 14.2223C73.874 15.4939 72.132 17.2359 70.8604 19.4355L72.5919 20.4365ZM77.0688 15.9571C78.9857 14.8659 81.1488 14.312 83.5821 14.312V12.312C80.8315 12.312 78.3226 12.9421 76.0794 14.2189L77.0688 15.9571ZM83.5821 14.312C85.3145 14.312 86.9098 14.625 88.3789 15.242L89.1534 13.398C87.4224 12.671 85.5618 12.312 83.5821 12.312V14.312ZM88.3947 15.2485C89.8764 15.8411 91.1362 16.6643 92.187 17.7151L93.6012 16.3009C92.348 15.0477 90.8559 14.0789 89.1375 13.3915L88.3947 15.2485ZM92.2069 17.7345C93.2683 18.7385 94.0266 19.9389 94.4875 21.3504L96.3887 20.7296C95.8256 19.0051 94.888 17.5175 93.5813 16.2815L92.2069 17.7345ZM95.0394 20.1229L89.5194 22.5229L90.3168 24.3571L95.8369 21.9571L95.0394 20.1229ZM90.8572 23.0964C90.3062 21.5902 89.361 20.3676 88.0405 19.4506L86.8997 21.0934C87.8833 21.7764 88.5701 22.6658 88.979 23.7836L90.8572 23.0964ZM88.0514 19.4583C86.7497 18.5285 85.2472 18.072 83.5821 18.072V20.072C84.861 20.072 85.9505 20.4155 86.8889 21.0857L88.0514 19.4583ZM83.5821 18.072C82.0352 18.072 80.6186 18.4522 79.3606 19.2292L80.4116 20.9308C81.3297 20.3638 82.3771 20.072 83.5821 20.072V18.072ZM79.3493 19.2363C78.1339 20.0098 77.1843 21.0756 76.5006 22.4072L78.2797 23.3208C78.8119 22.2844 79.5264 21.4942 80.423 20.9237L79.3493 19.2363ZM76.5006 22.4072C75.8095 23.7529 75.4781 25.2737 75.4781 26.944H77.4781C77.4781 25.5423 77.7547 24.3431 78.2797 23.3208L76.5006 22.4072ZM75.4781 26.944C75.4781 28.6143 75.8095 30.1351 76.5006 31.4808L78.2797 30.5672C77.7547 29.5449 77.4781 28.3457 77.4781 26.944H75.4781ZM76.5006 31.4808C77.1843 32.8124 78.1339 33.8782 79.3493 34.6517L80.423 32.9643C79.5264 32.3938 78.8119 31.6036 78.2797 30.5672L76.5006 31.4808ZM79.3606 34.6588C80.6186 35.4358 82.0352 35.816 83.5821 35.816V33.816C82.3771 33.816 81.3297 33.5242 80.4116 32.9572L79.3606 34.6588ZM83.5821 35.816C85.2742 35.816 86.7939 35.3622 88.0994 34.4297L86.9369 32.8023C86.0023 33.4698 84.898 33.816 83.5821 33.816V35.816ZM88.0994 34.4297C89.3918 33.5065 90.3139 32.265 90.8599 30.7363L88.9764 30.0637C88.5623 31.223 87.8844 32.1255 86.9369 32.8023L88.0994 34.4297ZM89.5061 31.3112L95.0261 33.8072L95.8501 31.9848L90.3301 29.4888L89.5061 31.3112ZM94.4936 32.5675C94.0325 33.8931 93.2817 35.097 92.2254 36.1826L93.6589 37.5774C94.9066 36.295 95.8197 34.8429 96.3826 33.2245L94.4936 32.5675ZM92.235 36.1729C91.1806 37.2273 89.9152 38.0689 88.4269 38.694L89.2014 40.538C90.913 39.8191 92.3997 38.8367 93.6492 37.5871L92.235 36.1729ZM88.4427 38.6875C86.9717 39.2759 85.3551 39.576 83.5821 39.576V41.576C85.5851 41.576 87.4566 41.2361 89.1855 40.5445L88.4427 38.6875ZM108.741 40H107.741V41H108.741V40ZM108.741 13.888V12.888H107.741V13.888H108.741ZM114.645 13.888H115.645V12.888H114.645V13.888ZM114.645 19.024L113.76 19.4897L115.645 19.024H114.645ZM114.164 18.112L113.232 17.7505L113.068 18.1749L113.28 18.5777L114.164 18.112ZM117.141 14.56L117.643 15.4245L117.649 15.4209L117.141 14.56ZM127.124 14.56L126.632 15.4306L126.64 15.435L127.124 14.56ZM130.628 18.064L129.753 18.5481L129.758 18.5561L130.628 18.064ZM131.876 40V41H132.876V40H131.876ZM125.589 40H124.589V41H125.589V40ZM124.917 21.712L125.797 21.2379V21.2379L124.917 21.712ZM123.045 19.792L122.515 20.64L122.535 20.6527L122.556 20.6645L123.045 19.792ZM117.573 19.792L118.061 20.6645L118.074 20.6572L118.087 20.6495L117.573 19.792ZM115.701 21.712L116.581 22.1861L115.701 21.712ZM115.029 40V41H116.029V40H115.029ZM109.741 40V13.888H107.741V40H109.741ZM108.741 14.888H114.645V12.888H108.741V14.888ZM113.645 13.888V19.024H115.645V13.888H113.645ZM115.529 18.5583L115.049 17.6463L113.28 18.5777L113.76 19.4897L115.529 18.5583ZM115.097 18.4735C115.628 17.1042 116.475 16.1037 117.643 15.4245L116.638 13.6955C115.054 14.6163 113.917 15.9838 113.232 17.7505L115.097 18.4735ZM117.649 15.4209C118.883 14.6917 120.335 14.312 122.036 14.312V12.312C120.026 12.312 118.214 12.7643 116.632 13.6991L117.649 15.4209ZM122.036 14.312C123.808 14.312 125.33 14.6944 126.632 15.4306L127.617 13.6894C125.975 12.7616 124.105 12.312 122.036 12.312V14.312ZM126.64 15.435C127.98 16.176 129.012 17.2085 129.753 18.5481L131.504 17.5799C130.581 15.9115 129.277 14.608 127.609 13.685L126.64 15.435ZM129.758 18.5561C130.493 19.8561 130.876 21.3935 130.876 23.2H132.876C132.876 21.1025 132.428 19.2159 131.499 17.5719L129.758 18.5561ZM130.876 23.2V40H132.876V23.2H130.876ZM131.876 39H125.589V41H131.876V39ZM126.589 40V24.688H124.589V40H126.589ZM126.589 24.688C126.589 23.4064 126.339 22.2442 125.797 21.2379L124.036 22.1861C124.39 22.8437 124.589 23.6656 124.589 24.688H126.589ZM125.797 21.2379C125.262 20.244 124.504 19.4633 123.533 18.9195L122.556 20.6645C123.185 21.0167 123.675 21.516 124.036 22.1861L125.797 21.2379ZM123.575 18.944C122.623 18.3491 121.52 18.072 120.309 18.072V20.072C121.209 20.072 121.93 20.2749 122.515 20.64L123.575 18.944ZM120.309 18.072C119.121 18.072 118.028 18.3523 117.058 18.9345L118.087 20.6495C118.717 20.2717 119.448 20.072 120.309 20.072V18.072ZM117.084 18.9195C116.113 19.4633 115.355 20.244 114.82 21.2379L116.581 22.1861C116.942 21.516 117.432 21.0167 118.061 20.6645L117.084 18.9195ZM114.82 21.2379C114.278 22.2442 114.029 23.4064 114.029 24.688H116.029C116.029 23.6656 116.227 22.8437 116.581 22.1861L114.82 21.2379ZM114.029 24.688V40H116.029V24.688H114.029ZM115.029 39H108.741V41H115.029V39ZM137.194 40H136.194V41H137.194V40ZM137.194 3.664V2.664H136.194V3.664H137.194ZM143.482 3.664H144.482V2.664H143.482V3.664ZM143.482 19.024L142.756 19.7117L144.482 21.5336V19.024H143.482ZM142.618 18.112L141.685 17.7505L141.457 18.3404L141.892 18.7997L142.618 18.112ZM145.594 14.56L146.096 15.4245L146.102 15.4209L145.594 14.56ZM155.578 14.56L155.086 15.4306L155.094 15.435L155.578 14.56ZM159.082 18.064L158.207 18.5481L158.211 18.5561L159.082 18.064ZM160.33 40V41H161.33V40H160.33ZM154.042 40H153.042V41H154.042V40ZM153.37 21.712L154.25 21.2379V21.2379L153.37 21.712ZM151.498 19.792L150.968 20.64L150.988 20.6527L151.009 20.6645L151.498 19.792ZM146.026 19.792L146.514 20.6645L146.527 20.6572L146.54 20.6495L146.026 19.792ZM144.154 21.712L145.034 22.1861L144.154 21.712ZM143.482 40V41H144.482V40H143.482ZM138.194 40V3.664H136.194V40H138.194ZM137.194 4.664H143.482V2.664H137.194V4.664ZM142.482 3.664V19.024H144.482V3.664H142.482ZM144.208 18.3363L143.344 17.4243L141.892 18.7997L142.756 19.7117L144.208 18.3363ZM143.55 18.4735C144.081 17.1042 144.928 16.1037 146.096 15.4245L145.091 13.6955C143.507 14.6163 142.37 15.9838 141.685 17.7505L143.55 18.4735ZM146.102 15.4209C147.336 14.6917 148.788 14.312 150.49 14.312V12.312C148.479 12.312 146.667 12.7643 145.085 13.6991L146.102 15.4209ZM150.49 14.312C152.261 14.312 153.783 14.6944 155.086 15.4306L156.07 13.6894C154.428 12.7616 152.558 12.312 150.49 12.312V14.312ZM155.094 15.435C156.433 16.176 157.466 17.2085 158.207 18.5481L159.957 17.5799C159.034 15.9115 157.73 14.608 156.062 13.685L155.094 15.435ZM158.211 18.5561C158.946 19.8561 159.33 21.3935 159.33 23.2H161.33C161.33 21.1025 160.881 19.2159 159.952 17.5719L158.211 18.5561ZM159.33 23.2V40H161.33V23.2H159.33ZM160.33 39H154.042V41H160.33V39ZM155.042 40V24.688H153.042V40H155.042ZM155.042 24.688C155.042 23.4064 154.792 22.2442 154.25 21.2379L152.489 22.1861C152.843 22.8437 153.042 23.6656 153.042 24.688H155.042ZM154.25 21.2379C153.715 20.244 152.957 19.4633 151.986 18.9195L151.009 20.6645C151.638 21.0167 152.128 21.516 152.489 22.1861L154.25 21.2379ZM152.028 18.944C151.076 18.3491 149.973 18.072 148.762 18.072V20.072C149.662 20.072 150.383 20.2749 150.968 20.64L152.028 18.944ZM148.762 18.072C147.575 18.072 146.481 18.3523 145.511 18.9345L146.54 20.6495C147.17 20.2717 147.901 20.072 148.762 20.072V18.072ZM145.537 18.9195C144.566 19.4633 143.808 20.244 143.273 21.2379L145.034 22.1861C145.395 21.516 145.885 21.0167 146.514 20.6645L145.537 18.9195ZM143.273 21.2379C142.731 22.2442 142.482 23.4064 142.482 24.688H144.482C144.482 23.6656 144.68 22.8437 145.034 22.1861L143.273 21.2379ZM142.482 24.688V40H144.482V24.688H142.482ZM143.482 39H137.194V41H143.482V39ZM165.071 40H164.071V41H165.071V40ZM165.071 13.888V12.888H164.071V13.888H165.071ZM171.359 13.888H172.359V12.888H171.359V13.888ZM171.359 40V41H172.359V40H171.359ZM165.119 9.28L164.266 9.80244L164.559 10.28H165.119V9.28ZM160.031 0.975999V-0.0240011H158.245L159.178 1.49845L160.031 0.975999ZM168.191 0.975999L169.127 0.624282L168.883 -0.0240011H168.191V0.975999ZM171.311 9.28V10.28H172.755L172.247 8.92828L171.311 9.28ZM166.071 40V13.888H164.071V40H166.071ZM165.071 14.888H171.359V12.888H165.071V14.888ZM170.359 13.888V40H172.359V13.888H170.359ZM171.359 39H165.071V41H171.359V39ZM165.971 8.75755L160.883 0.453552L159.178 1.49845L164.266 9.80244L165.971 8.75755ZM160.031 1.976H168.191V-0.0240011H160.031V1.976ZM167.255 1.32772L170.375 9.63171L172.247 8.92828L169.127 0.624282L167.255 1.32772ZM171.311 8.28H165.119V10.28H171.311V8.28ZM176.569 40H175.569V41H176.569V40ZM176.569 13.888V12.888H175.569V13.888H176.569ZM182.473 13.888H183.473V12.888H182.473V13.888ZM182.473 19.024L181.588 19.4897L183.473 19.024H182.473ZM181.993 18.112L181.06 17.7505L180.896 18.1749L181.108 18.5777L181.993 18.112ZM184.969 14.56L185.471 15.4245L185.477 15.4209L184.969 14.56ZM194.953 14.56L194.461 15.4306L194.469 15.435L194.953 14.56ZM198.457 18.064L197.582 18.5481L197.586 18.5561L198.457 18.064ZM199.705 40V41H200.705V40H199.705ZM193.417 40H192.417V41H193.417V40ZM192.745 21.712L193.625 21.2379V21.2379L192.745 21.712ZM190.873 19.792L190.343 20.64L190.363 20.6527L190.384 20.6645L190.873 19.792ZM185.401 19.792L185.889 20.6645L185.902 20.6572L185.915 20.6495L185.401 19.792ZM183.529 21.712L184.409 22.1861L183.529 21.712ZM182.857 40V41H183.857V40H182.857ZM177.569 40V13.888H175.569V40H177.569ZM176.569 14.888H182.473V12.888H176.569V14.888ZM181.473 13.888V19.024H183.473V13.888H181.473ZM183.358 18.5583L182.878 17.6463L181.108 18.5777L181.588 19.4897L183.358 18.5583ZM182.925 18.4735C183.456 17.1042 184.303 16.1037 185.471 15.4245L184.466 13.6955C182.882 14.6163 181.745 15.9838 181.06 17.7505L182.925 18.4735ZM185.477 15.4209C186.711 14.6917 188.163 14.312 189.865 14.312V12.312C187.854 12.312 186.042 12.7643 184.46 13.6991L185.477 15.4209ZM189.865 14.312C191.636 14.312 193.158 14.6944 194.461 15.4306L195.445 13.6894C193.803 12.7616 191.933 12.312 189.865 12.312V14.312ZM194.469 15.435C195.808 16.176 196.841 17.2085 197.582 18.5481L199.332 17.5799C198.409 15.9115 197.105 14.608 195.437 13.685L194.469 15.435ZM197.586 18.5561C198.321 19.8561 198.705 21.3935 198.705 23.2H200.705C200.705 21.1025 200.256 19.2159 199.327 17.5719L197.586 18.5561ZM198.705 23.2V40H200.705V23.2H198.705ZM199.705 39H193.417V41H199.705V39ZM194.417 40V24.688H192.417V40H194.417ZM194.417 24.688C194.417 23.4064 194.167 22.2442 193.625 21.2379L191.864 22.1861C192.218 22.8437 192.417 23.6656 192.417 24.688H194.417ZM193.625 21.2379C193.09 20.244 192.332 19.4633 191.361 18.9195L190.384 20.6645C191.013 21.0167 191.503 21.516 191.864 22.1861L193.625 21.2379ZM191.403 18.944C190.451 18.3491 189.348 18.072 188.137 18.072V20.072C189.037 20.072 189.758 20.2749 190.343 20.64L191.403 18.944ZM188.137 18.072C186.95 18.072 185.856 18.3523 184.886 18.9345L185.915 20.6495C186.545 20.2717 187.276 20.072 188.137 20.072V18.072ZM184.912 18.9195C183.941 19.4633 183.183 20.244 182.648 21.2379L184.409 22.1861C184.77 21.516 185.26 21.0167 185.889 20.6645L184.912 18.9195ZM182.648 21.2379C182.106 22.2442 181.857 23.4064 181.857 24.688H183.857C183.857 23.6656 184.055 22.8437 184.409 22.1861L182.648 21.2379ZM181.857 24.688V40H183.857V24.688H181.857ZM182.857 39H176.569V41H182.857V39Z" fill="white" mask="url(#path-1-outside-1_1906_1398)"/>
</svg>
