<svg width="534" height="104" viewBox="0 0 534 104" fill="none" xmlns="http://www.w3.org/2000/svg">
    <path d="M42.4 103.2C37.0667 103.2 32.1 102.233 27.5 100.3C22.9 98.3667 18.8667 95.6667 15.4 92.2C11.9333 88.7333 9.23333 84.6667 7.3 80C5.36667 75.3333 4.4 70.2333 4.4 64.7C4.4 59.1667 5.33333 54.0667 7.2 49.4C9.06667 44.6667 11.7 40.6 15.1 37.2C18.5 33.7333 22.4667 31.0667 27 29.2C31.6 27.2667 36.6 26.3 42 26.3C47.4 26.3 52.2333 27.2 56.5 29C60.8333 30.8 64.5 33.2 67.5 36.2C70.5 39.2 72.6333 42.5333 73.9 46.2L60.2 52.8C58.9333 49.2 56.7 46.2333 53.5 43.9C50.3667 41.5 46.5333 40.3 42 40.3C37.6 40.3 33.7333 41.3333 30.4 43.4C27.0667 45.4667 24.4667 48.3333 22.6 52C20.8 55.6 19.9 59.8333 19.9 64.7C19.9 69.5667 20.8667 73.8333 22.8 77.5C24.7333 81.1667 27.3667 84.0333 30.7 86.1C34.1 88.1667 38 89.2 42.4 89.2C45.8 89.2 48.9667 88.5667 51.9 87.3C54.9 85.9667 57.3 84.0667 59.1 81.6C60.9667 79.1333 61.9 76.1667 61.9 72.7V66.5L69 72.5H42V59.5H77.4V67.4C77.4 73.4667 76.4 78.7667 74.4 83.3C72.4 87.7667 69.7 91.5 66.3 94.5C62.9667 97.4333 59.2 99.6333 55 101.1C50.8667 102.5 46.6667 103.2 42.4 103.2ZM124.271 103.2C118.671 103.2 113.471 102.233 108.671 100.3C103.871 98.3667 99.6711 95.6667 96.0711 92.2C92.5378 88.6667 89.7711 84.5667 87.7711 79.9C85.7711 75.2333 84.7711 70.1667 84.7711 64.7C84.7711 59.2333 85.7378 54.1667 87.6711 49.5C89.6711 44.8333 92.4378 40.7667 95.9711 37.3C99.5711 33.8333 103.771 31.1333 108.571 29.2C113.371 27.2667 118.604 26.3 124.271 26.3C129.938 26.3 135.171 27.2667 139.971 29.2C144.771 31.1333 148.938 33.8333 152.471 37.3C156.071 40.7667 158.838 44.8333 160.771 49.5C162.771 54.1667 163.771 59.2333 163.771 64.7C163.771 70.1667 162.771 75.2333 160.771 79.9C158.771 84.5667 155.971 88.6667 152.371 92.2C148.838 95.6667 144.671 98.3667 139.871 100.3C135.071 102.233 129.871 103.2 124.271 103.2ZM124.271 89.2C127.671 89.2 130.804 88.6 133.671 87.4C136.604 86.2 139.171 84.5333 141.371 82.4C143.571 80.2 145.271 77.6 146.471 74.6C147.671 71.6 148.271 68.3 148.271 64.7C148.271 61.1 147.671 57.8333 146.471 54.9C145.271 51.9 143.571 49.3 141.371 47.1C139.171 44.9 136.604 43.2333 133.671 42.1C130.804 40.9 127.671 40.3 124.271 40.3C120.871 40.3 117.704 40.9 114.771 42.1C111.904 43.2333 109.371 44.9 107.171 47.1C104.971 49.3 103.271 51.9 102.071 54.9C100.871 57.8333 100.271 61.1 100.271 64.7C100.271 68.3 100.871 71.6 102.071 74.6C103.271 77.6 104.971 80.2 107.171 82.4C109.371 84.5333 111.904 86.2 114.771 87.4C117.704 88.6 120.871 89.2 124.271 89.2ZM116.871 18.1L122.671 0.0999947H141.971L131.571 18.1H116.871ZM210.164 103.2C204.831 103.2 199.864 102.233 195.264 100.3C190.731 98.3667 186.764 95.6667 183.364 92.2C179.964 88.7333 177.297 84.6667 175.364 80C173.497 75.3333 172.564 70.2333 172.564 64.7C172.564 59.1667 173.497 54.0667 175.364 49.4C177.231 44.6667 179.864 40.6 183.264 37.2C186.664 33.7333 190.631 31.0667 195.164 29.2C199.764 27.2667 204.764 26.3 210.164 26.3C215.564 26.3 220.397 27.2 224.664 29C228.997 30.8 232.664 33.2 235.664 36.2C238.664 39.2 240.797 42.5333 242.064 46.2L228.364 52.8C227.097 49.2 224.864 46.2333 221.664 43.9C218.531 41.5 214.697 40.3 210.164 40.3C205.764 40.3 201.897 41.3333 198.564 43.4C195.231 45.4667 192.631 48.3333 190.764 52C188.964 55.6 188.064 59.8333 188.064 64.7C188.064 69.5667 188.964 73.8333 190.764 77.5C192.631 81.1667 195.231 84.0333 198.564 86.1C201.897 88.1667 205.764 89.2 210.164 89.2C214.697 89.2 218.531 88.0333 221.664 85.7C224.864 83.3 227.097 80.3 228.364 76.7L242.064 83.3C240.797 86.9667 238.664 90.3 235.664 93.3C232.664 96.3 228.997 98.7 224.664 100.5C220.397 102.3 215.564 103.2 210.164 103.2ZM269.979 102V27.5H281.879L321.879 80.2L315.479 81.7V27.5H330.979V102H318.979L279.679 48.9L285.479 47.4V102H269.979ZM344.198 102V27.5H359.698V59.7H388.698V27.5H404.198V102H388.698V73.2H359.698V102H344.198ZM417.44 102V27.5H432.94V102H417.44ZM417.94 18.1L407.54 0.0999947H426.84L432.64 18.1H417.94ZM446.151 102V27.5H458.051L498.051 80.2L491.651 81.7V27.5H507.151V102H495.151L455.851 48.9L461.651 47.4V102H446.151Z" fill="white"/>
    <line y1="17" x2="20" y2="17" stroke="white" stroke-width="2"/>
    <line x1="1" y1="18" x2="0.999999" y2="38" stroke="white" stroke-width="2"/>
    <line y1="-1" x2="20" y2="-1" transform="matrix(1 0 0 -1 0 101)" stroke="white" stroke-width="2"/>
    <line y1="-1" x2="20" y2="-1" transform="matrix(-4.37114e-08 -1 -1 4.37114e-08 0 101)" stroke="white" stroke-width="2"/>
    <line x1="534" y1="102" x2="514" y2="102" stroke="white" stroke-width="2"/>
    <line x1="533" y1="101" x2="533" y2="81" stroke="white" stroke-width="2"/>
    <line y1="-1" x2="20" y2="-1" transform="matrix(-1 0 0 1 534 18)" stroke="white" stroke-width="2"/>
    <line y1="-1" x2="20" y2="-1" transform="matrix(4.37114e-08 1 1 -4.37114e-08 534 18)" stroke="white" stroke-width="2"/>
</svg>
