<svg width="121" height="78" viewBox="0 0 123 78" fill="none" xmlns="http://www.w3.org/2000/svg">
    <mask id="path-1-outside-1_1936_675" maskUnits="userSpaceOnUse" x="-1" y="-1" width="123" height="80" fill="black">
        <rect fill="white" x="-1" y="-1" width="123" height="80"/>
        <path d="M30.4 77.2C24.4667 77.2 19.2667 75.6 14.8 72.4C10.3333 69.2 6.83333 64.7 4.3 58.9C1.83333 53.1 0.6 46.3667 0.6 38.7C0.6 30.9667 1.83333 24.2333 4.3 18.5C6.76667 12.7667 10.2333 8.3 14.7 5.09999C19.1667 1.9 24.3667 0.299997 30.3 0.299997C36.3667 0.299997 41.6 1.9 46 5.09999C50.4667 8.3 53.9667 12.8 56.5 18.6C59.0333 24.3333 60.3 31.0333 60.3 38.7C60.3 46.3667 59.0333 53.1 56.5 58.9C54.0333 64.6333 50.5667 69.1333 46.1 72.4C41.6333 75.6 36.4 77.2 30.4 77.2ZM30.5 64.8C33.9 64.8 36.8 63.7667 39.2 61.7C41.6 59.5667 43.4333 56.5667 44.7 52.7C46.0333 48.7667 46.7 44.1 46.7 38.7C46.7 33.3 46.0333 28.6667 44.7 24.8C43.4333 20.8667 41.5667 17.8667 39.1 15.8C36.7 13.7333 33.7667 12.7 30.3 12.7C26.9667 12.7 24.1 13.7333 21.7 15.8C19.3 17.8667 17.4333 20.8667 16.1 24.8C14.8333 28.6667 14.2 33.3 14.2 38.7C14.2 44.0333 14.8333 48.6667 16.1 52.6C17.4333 56.4667 19.3 59.4667 21.7 61.6C24.1667 63.7333 27.1 64.8 30.5 64.8ZM70.4008 76V65.7L90.6008 44.6C94.6008 40.4 97.6674 37.0667 99.8008 34.6C102.001 32.0667 103.534 29.9 104.401 28.1C105.267 26.3 105.701 24.4667 105.701 22.6C105.701 19.4667 104.701 17 102.701 15.2C100.767 13.4 98.2674 12.5 95.2008 12.5C92.0008 12.5 89.2341 13.4333 86.9008 15.3C84.5674 17.1 82.8674 19.7667 81.8008 23.3L69.9008 19.6C70.7008 15.6667 72.3341 12.2667 74.8008 9.4C77.2674 6.46666 80.2674 4.23333 83.8008 2.7C87.4008 1.1 91.2008 0.299997 95.2008 0.299997C100.001 0.299997 104.201 1.16666 107.801 2.9C111.467 4.63333 114.301 7.06666 116.301 10.2C118.367 13.3333 119.401 17 119.401 21.2C119.401 23.8667 118.901 26.5 117.901 29.1C116.901 31.7 115.401 34.3667 113.401 37.1C111.401 39.7667 108.801 42.7667 105.601 46.1L88.1008 64.5H120.401V76H70.4008Z"/>
    </mask>
    <path d="M14.8 72.4L14.2176 73.2129L14.2176 73.2129L14.8 72.4ZM4.3 58.9L3.37972 59.2914L3.3836 59.3003L4.3 58.9ZM4.3 18.5L3.38141 18.1048L3.38141 18.1048L4.3 18.5ZM14.7 5.09999L14.1176 4.28708L14.1176 4.28708L14.7 5.09999ZM46 5.09999L45.4118 5.90875L45.4176 5.91291L46 5.09999ZM56.5 18.6L55.5836 19.0003L55.5853 19.0042L56.5 18.6ZM56.5 58.9L55.5836 58.4997L55.5814 58.5048L56.5 58.9ZM46.1 72.4L46.6824 73.213L46.6903 73.2072L46.1 72.4ZM39.2 61.7L39.8525 62.4578L39.8585 62.4526L39.8644 62.4474L39.2 61.7ZM44.7 52.7L43.7529 52.3789L43.7497 52.3887L44.7 52.7ZM44.7 24.8L43.7481 25.1065L43.7513 25.1163L43.7546 25.126L44.7 24.8ZM39.1 15.8L38.4474 16.5578L38.4578 16.5665L39.1 15.8ZM21.7 15.8L21.0475 15.0422L21.0475 15.0422L21.7 15.8ZM16.1 24.8L15.1529 24.4789L15.1497 24.4887L16.1 24.8ZM16.1 52.6L15.1481 52.9065L15.1513 52.9163L15.1546 52.926L16.1 52.6ZM21.7 61.6L21.0356 62.3475L21.0458 62.3564L21.7 61.6ZM30.4 76.2C24.658 76.2 19.6655 74.6556 15.3824 71.5871L14.2176 73.2129C18.8679 76.5444 24.2754 78.2 30.4 78.2V76.2ZM15.3824 71.5871C11.0833 68.5071 7.68874 64.1601 5.2164 58.4997L3.3836 59.3003C5.97793 65.2399 9.5834 69.8929 14.2176 73.2129L15.3824 71.5871ZM5.22024 58.5086C2.81628 52.8561 1.6 46.2606 1.6 38.7H-0.4C-0.4 46.4728 0.850385 53.3439 3.37976 59.2914L5.22024 58.5086ZM1.6 38.7C1.6 31.071 2.81683 24.4777 5.21859 18.8952L3.38141 18.1048C0.849837 23.989 -0.4 30.8623 -0.4 38.7H1.6ZM5.21859 18.8952C7.6233 13.3059 10.983 8.99306 15.2824 5.91291L14.1176 4.28708C9.48366 7.60693 5.91004 12.2274 3.38141 18.1048L5.21859 18.8952ZM15.2824 5.91291C19.5655 2.84444 24.558 1.3 30.3 1.3V-0.700003C24.1754 -0.700003 18.7679 0.955557 14.1176 4.28708L15.2824 5.91291ZM30.3 1.3C36.1808 1.3 41.2023 2.84723 45.4118 5.90873L46.5882 4.29126C41.9977 0.952764 36.5525 -0.700003 30.3 -0.700003V1.3ZM45.4176 5.91291C49.7167 8.99287 53.1113 13.3399 55.5836 19.0003L57.4164 18.1997C54.8221 12.2601 51.2166 7.60712 46.5824 4.28708L45.4176 5.91291ZM55.5853 19.0042C58.0513 24.5851 59.3 31.1422 59.3 38.7H61.3C61.3 30.9245 60.0154 24.0816 57.4147 18.1958L55.5853 19.0042ZM59.3 38.7C59.3 46.2574 58.0514 52.8497 55.5836 58.4997L57.4164 59.3003C60.0152 53.3503 61.3 46.4759 61.3 38.7H59.3ZM55.5814 58.5048C53.1762 64.0954 49.8143 68.4447 45.5097 71.5928L46.6903 73.2072C51.319 69.822 54.8905 65.1713 57.4186 59.2952L55.5814 58.5048ZM45.5176 71.5871C41.2365 74.6542 36.2113 76.2 30.4 76.2V78.2C36.5887 78.2 42.0302 76.5458 46.6824 73.2129L45.5176 71.5871ZM30.5 65.8C34.1205 65.8 37.2571 64.6927 39.8525 62.4578L38.5475 60.9422C36.3429 62.8406 33.6796 63.8 30.5 63.8V65.8ZM39.8644 62.4474C42.4275 60.1691 44.3431 57.0019 45.6503 53.0113L43.7497 52.3887C42.5236 56.1315 40.7725 58.9642 38.5356 60.9526L39.8644 62.4474ZM45.6471 53.021C47.0242 48.9586 47.7 44.1782 47.7 38.7H45.7C45.7 44.0218 45.0425 48.5748 43.7529 52.379L45.6471 53.021ZM47.7 38.7C47.7 33.2225 47.0244 28.4731 45.6454 24.474L43.7546 25.126C45.0423 28.8603 45.7 33.3775 45.7 38.7H47.7ZM45.6519 24.4935C44.3436 20.431 42.3892 17.2512 39.7422 15.0335L38.4578 16.5665C40.7442 18.4821 42.5231 21.3023 43.7481 25.1065L45.6519 24.4935ZM39.7525 15.0422C37.1534 12.8041 33.9818 11.7 30.3 11.7V13.7C33.5515 13.7 36.2466 14.6626 38.4475 16.5578L39.7525 15.0422ZM30.3 11.7C26.7408 11.7 23.6391 12.8106 21.0475 15.0422L22.3525 16.5578C24.5609 14.6561 27.1925 13.7 30.3 13.7V11.7ZM21.0475 15.0422C18.4761 17.2564 16.5262 20.4277 15.1529 24.479L17.0471 25.121C18.3404 21.3056 20.1239 18.4769 22.3525 16.5578L21.0475 15.0422ZM15.1497 24.4887C13.8413 28.4826 13.2 33.2267 13.2 38.7H15.2C15.2 33.3733 15.8253 28.8507 17.0503 25.1113L15.1497 24.4887ZM13.2 38.7C13.2 44.1088 13.8419 48.8502 15.1481 52.9065L17.0519 52.2935C15.8248 48.4832 15.2 43.9579 15.2 38.7H13.2ZM15.1546 52.926C16.5289 56.9114 18.4769 60.0729 21.0356 62.3474L22.3644 60.8526C20.1231 58.8604 18.3378 56.0219 17.0454 52.274L15.1546 52.926ZM21.0458 62.3564C23.7025 64.654 26.8709 65.8 30.5 65.8V63.8C27.3291 63.8 24.6309 62.8127 22.3542 60.8436L21.0458 62.3564ZM70.4008 76H69.4008V77H70.4008V76ZM70.4008 65.7L69.6784 65.0085L69.4008 65.2985V65.7H70.4008ZM90.6008 44.6L91.3231 45.2915L91.3249 45.2897L90.6008 44.6ZM99.8008 34.6L99.0457 33.9443L99.0444 33.9458L99.8008 34.6ZM104.401 28.1L103.5 27.6662L103.5 27.6662L104.401 28.1ZM102.701 15.2L102.019 15.9319L102.026 15.9376L102.032 15.9433L102.701 15.2ZM86.9008 15.3L87.5116 16.0918L87.5186 16.0864L87.5255 16.0809L86.9008 15.3ZM81.8008 23.3L81.5039 24.2549L82.4667 24.5543L82.7581 23.589L81.8008 23.3ZM69.9008 19.6L68.9208 19.4007L68.7407 20.2865L69.6039 20.5549L69.9008 19.6ZM74.8008 9.4L75.5588 10.0523L75.5661 10.0436L74.8008 9.4ZM83.8008 2.7L84.1989 3.61738L84.2069 3.61381L83.8008 2.7ZM107.801 2.9L107.367 3.80102L107.373 3.80407L107.801 2.9ZM116.301 10.2L115.458 10.738L115.462 10.7443L115.466 10.7506L116.301 10.2ZM113.401 37.1L114.201 37.7L114.208 37.6905L113.401 37.1ZM105.601 46.1L104.879 45.4075L104.876 45.4108L105.601 46.1ZM88.1008 64.5L87.3762 63.8108L85.7696 65.5H88.1008V64.5ZM120.401 64.5H121.401V63.5H120.401V64.5ZM120.401 76V77H121.401V76H120.401ZM71.4008 76V65.7H69.4008V76H71.4008ZM71.1231 66.3915L91.3231 45.2915L89.8784 43.9085L69.6784 65.0085L71.1231 66.3915ZM91.3249 45.2897C95.3289 41.0855 98.4083 37.7387 100.557 35.2541L99.0444 33.9458C96.9266 36.3946 93.8727 39.7145 89.8766 43.9103L91.3249 45.2897ZM100.556 35.2557C102.78 32.6941 104.379 30.4499 105.302 28.5338L103.5 27.6662C102.689 29.3501 101.221 31.4393 99.0457 33.9443L100.556 35.2557ZM105.302 28.5338C106.229 26.6082 106.701 24.6273 106.701 22.6H104.701C104.701 24.306 104.306 25.9918 103.5 27.6662L105.302 28.5338ZM106.701 22.6C106.701 19.2344 105.616 16.4781 103.37 14.4567L102.032 15.9433C103.786 17.5219 104.701 19.6989 104.701 22.6H106.701ZM103.382 14.4681C101.234 12.4683 98.4768 11.5 95.2008 11.5V13.5C98.0581 13.5 100.301 14.3317 102.019 15.9319L103.382 14.4681ZM95.2008 11.5C91.791 11.5 88.7998 12.5002 86.2761 14.5191L87.5255 16.0809C89.6685 14.3665 92.2106 13.5 95.2008 13.5V11.5ZM86.29 14.5082C83.754 16.4646 81.955 19.3289 80.8435 23.011L82.7581 23.589C83.7799 20.2045 85.3809 17.7354 87.5116 16.0918L86.29 14.5082ZM82.0977 22.3451L70.1977 18.6451L69.6039 20.5549L81.5039 24.2549L82.0977 22.3451ZM70.8807 19.7993C71.6488 16.0228 73.2105 12.7814 75.5588 10.0522L74.0428 8.74776C71.4578 11.7519 69.7527 15.3105 68.9208 19.4007L70.8807 19.7993ZM75.5661 10.0436C77.9327 7.22931 80.8068 5.08939 84.1989 3.61734L83.4027 1.78265C79.7281 3.37727 76.6022 5.70402 74.0354 8.7564L75.5661 10.0436ZM84.2069 3.61381C87.6771 2.07153 91.3385 1.3 95.2008 1.3V-0.700003C91.0631 -0.700003 87.1245 0.128468 83.3946 1.78618L84.2069 3.61381ZM95.2008 1.3C99.8804 1.3 103.927 2.14464 107.367 3.801L108.235 1.999C104.475 0.188687 100.121 -0.700003 95.2008 -0.700003V1.3ZM107.373 3.80407C110.886 5.46454 113.568 7.77775 115.458 10.738L117.144 9.66196C115.033 6.35557 112.049 3.80212 108.228 1.99593L107.373 3.80407ZM115.466 10.7506C117.412 13.7015 118.401 17.1716 118.401 21.2H120.401C120.401 16.8284 119.323 12.9652 117.136 9.6494L115.466 10.7506ZM118.401 21.2C118.401 23.7385 117.925 26.2504 116.967 28.741L118.834 29.459C119.876 26.7496 120.401 23.9948 120.401 21.2H118.401ZM116.967 28.741C116.005 31.2431 114.552 33.8327 112.594 36.5095L114.208 37.6905C116.249 34.9007 117.796 32.1569 118.834 29.459L116.967 28.741ZM112.601 36.5C110.632 39.1246 108.061 42.0931 104.879 45.4075L106.322 46.7925C109.54 43.4402 112.169 40.4087 114.201 37.7L112.601 36.5ZM104.876 45.4108L87.3762 63.8108L88.8254 65.1892L106.325 46.7892L104.876 45.4108ZM88.1008 65.5H120.401V63.5H88.1008V65.5ZM119.401 64.5V76H121.401V64.5H119.401ZM120.401 75H70.4008V77H120.401V75Z" fill="white" mask="url(#path-1-outside-1_1936_675)"/>
</svg>
