<svg width="569" height="132" viewBox="0 0 569 132" fill="none" xmlns="http://www.w3.org/2000/svg">
    <path d="M42 109.2C36.6667 109.2 31.7 108.233 27.1 106.3C22.5667 104.367 18.6 101.667 15.2 98.2C11.8 94.7333 9.13333 90.6667 7.2 86C5.33333 81.3333 4.4 76.2333 4.4 70.7C4.4 65.1667 5.33333 60.0667 7.2 55.4C9.06667 50.6667 11.7 46.6 15.1 43.2C18.5 39.7333 22.4667 37.0667 27 35.2C31.6 33.2667 36.6 32.3 42 32.3C47.4 32.3 52.2333 33.2 56.5 35C60.8333 36.8 64.5 39.2 67.5 42.2C70.5 45.2 72.6333 48.5333 73.9 52.2L60.2 58.8C58.9333 55.2 56.7 52.2333 53.5 49.9C50.3667 47.5 46.5333 46.3 42 46.3C37.6 46.3 33.7333 47.3333 30.4 49.4C27.0667 51.4667 24.4667 54.3333 22.6 58C20.8 61.6 19.9 65.8333 19.9 70.7C19.9 75.5667 20.8 79.8333 22.6 83.5C24.4667 87.1667 27.0667 90.0333 30.4 92.1C33.7333 94.1667 37.6 95.2 42 95.2C46.5333 95.2 50.3667 94.0333 53.5 91.7C56.7 89.3 58.9333 86.3 60.2 82.7L73.9 89.3C72.6333 92.9667 70.5 96.3 67.5 99.3C64.5 102.3 60.8333 104.7 56.5 106.5C52.2333 108.3 47.4 109.2 42 109.2ZM78.3461 108L103.546 33.5H124.146L149.346 108H132.446L127.446 92.8H100.146L95.1461 108H78.3461ZM104.446 79.3H123.146L111.746 44.1H115.946L104.446 79.3ZM114.846 28.1L108.446 20.9C110.379 19.8333 111.679 18.8667 112.346 18C113.079 17.0667 113.446 16 113.446 14.8C113.446 13.5333 112.913 12.5333 111.846 11.8C110.846 11.0667 109.413 10.7 107.546 10.7C106.746 10.7 105.879 10.7667 104.946 10.9C104.079 10.9667 103.279 11.1667 102.546 11.5L100.946 2.19999C102.079 1.66666 103.446 1.26666 105.046 0.999995C106.646 0.666662 108.379 0.499995 110.246 0.499995C115.246 0.499995 119.213 1.66666 122.146 3.99999C125.146 6.33333 126.646 9.46667 126.646 13.4C126.646 16.2667 125.613 18.9667 123.546 21.5C121.479 23.9667 118.579 26.1667 114.846 28.1ZM157.088 108V33.5H172.088L199.988 70.5H192.988L220.088 33.5H235.088V108H219.588V50.6L225.788 52L197.088 89H195.088L167.388 52L172.588 50.6V108H157.088ZM266.268 108V33.5H278.168L318.168 86.2L311.768 87.7V33.5H327.268V108H315.268L275.968 54.9L281.768 53.4V108H266.268ZM340.487 108V33.5H355.987V65.7H384.987V33.5H400.487V108H384.987V79.2H355.987V108H340.487ZM408.229 108L433.429 33.5H454.029L479.229 108H462.329L457.329 92.8H430.029L425.029 108H408.229ZM434.329 79.3H453.029L441.629 44.1H445.829L434.329 79.3ZM436.229 132V117H451.229V132H436.229ZM423.129 24.1L434.729 7.09999H452.629L464.329 24.1H449.929L443.729 15.1L437.529 24.1H423.129ZM486.971 108V33.5H498.871L538.871 86.2L532.471 87.7V33.5H547.971V108H535.971L496.671 54.9L502.471 53.4V108H486.971Z" fill="white"/>
    <line y1="23" x2="20" y2="23" stroke="white" stroke-width="2"/>
    <line x1="1" y1="24" x2="0.999999" y2="44" stroke="white" stroke-width="2"/>
    <line y1="-1" x2="20" y2="-1" transform="matrix(1 0 0 -1 0 107)" stroke="white" stroke-width="2"/>
    <line y1="-1" x2="20" y2="-1" transform="matrix(-4.37114e-08 -1 -1 4.37114e-08 0 107)" stroke="white" stroke-width="2"/>
    <line x1="569" y1="108" x2="549" y2="108" stroke="white" stroke-width="2"/>
    <line x1="568" y1="107" x2="568" y2="87" stroke="white" stroke-width="2"/>
    <line y1="-1" x2="20" y2="-1" transform="matrix(-1 0 0 1 569 24)" stroke="white" stroke-width="2"/>
    <line y1="-1" x2="20" y2="-1" transform="matrix(4.37114e-08 1 1 -4.37114e-08 569 24)" stroke="white" stroke-width="2"/>
</svg>
