<svg width="509" height="103" viewBox="0 0 509 103" fill="none" xmlns="http://www.w3.org/2000/svg">
    <path d="M33.7 102.2C29.0333 102.2 24.6333 101.367 20.5 99.7C16.4333 97.9667 12.9 95.5333 9.9 92.4C6.96667 89.2667 4.76667 85.5667 3.3 81.3L16 75.6C17.8667 79.6667 20.4333 82.8667 23.7 85.2C27.0333 87.5333 30.7 88.7 34.7 88.7C36.8333 88.7 38.6667 88.3667 40.2 87.7C41.7333 87.0333 42.9333 86.1333 43.8 85C44.6667 83.8 45.1 82.4 45.1 80.8C45.1 79.0667 44.5667 77.6 43.5 76.4C42.4333 75.1333 40.7667 74.1333 38.5 73.4L23.9 68.6C17.9667 66.6667 13.5 63.9333 10.5 60.4C7.5 56.8 6 52.5 6 47.5C6 43.1 7.06667 39.2333 9.2 35.9C11.4 32.5667 14.4333 29.9667 18.3 28.1C22.2333 26.2333 26.7333 25.3 31.8 25.3C36.2667 25.3 40.4 26.0667 44.2 27.6C48 29.1333 51.2667 31.3 54 34.1C56.8 36.9 58.9 40.2667 60.3 44.2L47.7 49.9C46.3 46.4333 44.2 43.7333 41.4 41.8C38.6 39.8 35.4 38.8 31.8 38.8C29.7333 38.8 27.9 39.1333 26.3 39.8C24.7 40.4667 23.4667 41.4333 22.6 42.7C21.7333 43.9 21.3 45.3 21.3 46.9C21.3 48.6333 21.8667 50.1667 23 51.5C24.1333 52.7667 25.8333 53.7667 28.1 54.5L42.4 59.1C48.4 61.0333 52.8667 63.7333 55.8 67.2C58.8 70.6667 60.3 74.9 60.3 79.9C60.3 84.2333 59.1667 88.1 56.9 91.5C54.6333 94.8333 51.5 97.4667 47.5 99.4C43.5667 101.267 38.9667 102.2 33.7 102.2ZM100.946 102.2C95.0794 102.2 89.8461 100.967 85.2461 98.5C80.6461 96.0333 77.0128 92.6667 74.3461 88.4C71.7461 84.0667 70.4461 79.1667 70.4461 73.7V26.5H85.9461V72.7C85.9461 75.6333 86.5794 78.3 87.8461 80.7C89.1794 83.0333 90.9794 84.8667 93.2461 86.2C95.5128 87.5333 98.0794 88.2 100.946 88.2C103.879 88.2 106.446 87.5333 108.646 86.2C110.913 84.8667 112.679 83.0333 113.946 80.7C115.279 78.3 115.946 75.6333 115.946 72.7V26.5H131.446V73.7C131.446 79.1667 130.113 84.0667 127.446 88.4C124.846 92.6667 121.246 96.0333 116.646 98.5C112.046 100.967 106.813 102.2 100.946 102.2ZM163.009 101V68.5L138.209 26.5H155.909L173.909 58.1H167.609L185.509 26.5H203.209L178.509 68.4V101H163.009ZM228.866 101V26.5H240.766L280.766 79.2L274.366 80.7V26.5H289.866V101H277.866L238.566 47.9L244.366 46.4V101H228.866ZM338.884 102.2C333.551 102.2 328.584 101.233 323.984 99.3C319.384 97.3667 315.351 94.6667 311.884 91.2C308.418 87.7333 305.718 83.6667 303.784 79C301.851 74.3333 300.884 69.2333 300.884 63.7C300.884 58.1667 301.818 53.0667 303.684 48.4C305.551 43.6667 308.184 39.6 311.584 36.2C314.984 32.7333 318.951 30.0667 323.484 28.2C328.084 26.2667 333.084 25.3 338.484 25.3C343.884 25.3 348.718 26.2 352.984 28C357.318 29.8 360.984 32.2 363.984 35.2C366.984 38.2 369.118 41.5333 370.384 45.2L356.684 51.8C355.418 48.2 353.184 45.2333 349.984 42.9C346.851 40.5 343.018 39.3 338.484 39.3C334.084 39.3 330.218 40.3333 326.884 42.4C323.551 44.4667 320.951 47.3333 319.084 51C317.284 54.6 316.384 58.8333 316.384 63.7C316.384 68.5667 317.351 72.8333 319.284 76.5C321.218 80.1667 323.851 83.0333 327.184 85.1C330.584 87.1667 334.484 88.2 338.884 88.2C342.284 88.2 345.451 87.5667 348.384 86.3C351.384 84.9667 353.784 83.0667 355.584 80.6C357.451 78.1333 358.384 75.1667 358.384 71.7V65.5L365.484 71.5H338.484V58.5H373.884V66.4C373.884 72.4667 372.884 77.7667 370.884 82.3C368.884 86.7667 366.184 90.5 362.784 93.5C359.451 96.4333 355.684 98.6333 351.484 100.1C347.351 101.5 343.151 102.2 338.884 102.2ZM383.455 101V26.5H398.955V58.7H427.955V26.5H443.455V101H427.955V72.2H398.955V101H383.455ZM456.698 101V26.5H472.198V101H456.698ZM472.198 17.1C470.331 17.1 468.764 16.8333 467.498 16.3C466.231 15.7667 465.131 15.1667 464.198 14.5C463.264 13.8333 462.331 13.2333 461.398 12.7C460.531 12.1667 459.531 11.9 458.398 11.9C457.264 11.9 456.398 12.3333 455.798 13.2C455.264 14 454.998 15.1667 454.998 16.7H443.498C443.498 10.9 444.831 6.69999 447.498 4.1C450.098 1.43333 453.164 0.0999937 456.698 0.0999937C458.631 0.0999937 460.231 0.366661 461.498 0.899995C462.831 1.36666 463.998 1.96666 464.998 2.7C465.998 3.36666 466.931 3.96666 467.798 4.5C468.664 4.96666 469.598 5.19999 470.598 5.19999C471.931 5.19999 472.831 4.79999 473.298 4C473.764 3.13333 473.998 1.96666 473.998 0.5H485.498C485.431 6.1 484.064 10.2667 481.398 13C478.798 15.7333 475.731 17.1 472.198 17.1Z" fill="white"/>
    <line y1="16" x2="20" y2="16" stroke="white" stroke-width="2"/>
    <line x1="1" y1="17" x2="0.999999" y2="37" stroke="white" stroke-width="2"/>
    <line y1="-1" x2="20" y2="-1" transform="matrix(1 0 0 -1 0 100)" stroke="white" stroke-width="2"/>
    <line y1="-1" x2="20" y2="-1" transform="matrix(-4.37114e-08 -1 -1 4.37114e-08 0 100)" stroke="white" stroke-width="2"/>
    <line x1="509" y1="101" x2="489" y2="101" stroke="white" stroke-width="2"/>
    <line x1="508" y1="100" x2="508" y2="80" stroke="white" stroke-width="2"/>
    <line y1="-1" x2="20" y2="-1" transform="matrix(-1 0 0 1 509 17)" stroke="white" stroke-width="2"/>
    <line y1="-1" x2="20" y2="-1" transform="matrix(4.37114e-08 1 1 -4.37114e-08 509 17)" stroke="white" stroke-width="2"/>
</svg>
