<svg width="122" height="78" viewBox="0 0 124 78" fill="none" xmlns="http://www.w3.org/2000/svg">
    <mask id="path-1-outside-1_1936_1049" maskUnits="userSpaceOnUse" x="-1" y="-1" width="125" height="80" fill="black">
        <rect fill="white" x="-1" y="-1" width="125" height="80"/>
        <path d="M30.4 77.2C24.4667 77.2 19.2667 75.6 14.8 72.4C10.3333 69.2 6.83333 64.7 4.3 58.9C1.83333 53.1 0.6 46.3667 0.6 38.7C0.6 30.9667 1.83333 24.2333 4.3 18.5C6.76667 12.7667 10.2333 8.3 14.7 5.09999C19.1667 1.9 24.3667 0.299997 30.3 0.299997C36.3667 0.299997 41.6 1.9 46 5.09999C50.4667 8.3 53.9667 12.8 56.5 18.6C59.0333 24.3333 60.3 31.0333 60.3 38.7C60.3 46.3667 59.0333 53.1 56.5 58.9C54.0333 64.6333 50.5667 69.1333 46.1 72.4C41.6333 75.6 36.4 77.2 30.4 77.2ZM30.5 64.8C33.9 64.8 36.8 63.7667 39.2 61.7C41.6 59.5667 43.4333 56.5667 44.7 52.7C46.0333 48.7667 46.7 44.1 46.7 38.7C46.7 33.3 46.0333 28.6667 44.7 24.8C43.4333 20.8667 41.5667 17.8667 39.1 15.8C36.7 13.7333 33.7667 12.7 30.3 12.7C26.9667 12.7 24.1 13.7333 21.7 15.8C19.3 17.8667 17.4333 20.8667 16.1 24.8C14.8333 28.6667 14.2 33.3 14.2 38.7C14.2 44.0333 14.8333 48.6667 16.1 52.6C17.4333 56.4667 19.3 59.4667 21.7 61.6C24.1667 63.7333 27.1 64.8 30.5 64.8ZM95.1008 77.2C91.0341 77.2 87.1674 76.4667 83.5008 75C79.9008 73.4667 76.8008 71.3333 74.2008 68.6C71.6674 65.8 69.9341 62.5 69.0008 58.7L80.9008 54.5C82.1008 57.9 83.9341 60.5 86.4008 62.3C88.8674 64.0333 91.7674 64.9 95.1008 64.9C97.7674 64.9 100.067 64.4 102.001 63.4C104.001 62.4 105.567 60.9667 106.701 59.1C107.834 57.1667 108.401 54.9 108.401 52.3C108.401 49.7 107.834 47.5 106.701 45.7C105.634 43.8333 104.101 42.4 102.101 41.4C100.101 40.4 97.7341 39.9 95.0008 39.9C93.7341 39.9 92.4008 40.0333 91.0008 40.3C89.6674 40.5667 88.4674 40.9667 87.4008 41.5L84.3008 35L103.601 13H73.2008V1.49999H118.901V12.2L99.5008 34.9L99.7008 29.8C104.167 29.8667 108.067 30.8333 111.401 32.7C114.734 34.5667 117.334 37.1333 119.201 40.4C121.067 43.6667 122.001 47.5 122.001 51.9C122.001 56.7 120.834 61.0333 118.501 64.9C116.167 68.7 112.967 71.7 108.901 73.9C104.834 76.1 100.234 77.2 95.1008 77.2Z"/>
    </mask>
    <path d="M14.8 72.4L14.2176 73.2129L14.2176 73.2129L14.8 72.4ZM4.3 58.9L3.37972 59.2914L3.3836 59.3003L4.3 58.9ZM4.3 18.5L3.38141 18.1048L3.38141 18.1048L4.3 18.5ZM14.7 5.09999L14.1176 4.28708L14.1176 4.28708L14.7 5.09999ZM46 5.09999L45.4118 5.90875L45.4176 5.91291L46 5.09999ZM56.5 18.6L55.5836 19.0003L55.5853 19.0042L56.5 18.6ZM56.5 58.9L55.5836 58.4997L55.5814 58.5048L56.5 58.9ZM46.1 72.4L46.6824 73.213L46.6903 73.2072L46.1 72.4ZM39.2 61.7L39.8525 62.4578L39.8585 62.4526L39.8644 62.4474L39.2 61.7ZM44.7 52.7L43.7529 52.3789L43.7497 52.3887L44.7 52.7ZM44.7 24.8L43.7481 25.1065L43.7513 25.1163L43.7546 25.126L44.7 24.8ZM39.1 15.8L38.4474 16.5578L38.4578 16.5665L39.1 15.8ZM21.7 15.8L21.0475 15.0422L21.0475 15.0422L21.7 15.8ZM16.1 24.8L15.1529 24.4789L15.1497 24.4887L16.1 24.8ZM16.1 52.6L15.1481 52.9065L15.1513 52.9163L15.1546 52.926L16.1 52.6ZM21.7 61.6L21.0356 62.3475L21.0458 62.3564L21.7 61.6ZM30.4 76.2C24.658 76.2 19.6655 74.6556 15.3824 71.5871L14.2176 73.2129C18.8679 76.5444 24.2754 78.2 30.4 78.2V76.2ZM15.3824 71.5871C11.0833 68.5071 7.68874 64.1601 5.2164 58.4997L3.3836 59.3003C5.97793 65.2399 9.5834 69.8929 14.2176 73.2129L15.3824 71.5871ZM5.22024 58.5086C2.81628 52.8561 1.6 46.2606 1.6 38.7H-0.4C-0.4 46.4728 0.850385 53.3439 3.37976 59.2914L5.22024 58.5086ZM1.6 38.7C1.6 31.071 2.81683 24.4777 5.21859 18.8952L3.38141 18.1048C0.849837 23.989 -0.4 30.8623 -0.4 38.7H1.6ZM5.21859 18.8952C7.6233 13.3059 10.983 8.99306 15.2824 5.91291L14.1176 4.28708C9.48366 7.60693 5.91004 12.2274 3.38141 18.1048L5.21859 18.8952ZM15.2824 5.91291C19.5655 2.84444 24.558 1.3 30.3 1.3V-0.700003C24.1754 -0.700003 18.7679 0.955557 14.1176 4.28708L15.2824 5.91291ZM30.3 1.3C36.1808 1.3 41.2023 2.84723 45.4118 5.90873L46.5882 4.29126C41.9977 0.952764 36.5525 -0.700003 30.3 -0.700003V1.3ZM45.4176 5.91291C49.7167 8.99287 53.1113 13.3399 55.5836 19.0003L57.4164 18.1997C54.8221 12.2601 51.2166 7.60712 46.5824 4.28708L45.4176 5.91291ZM55.5853 19.0042C58.0513 24.5851 59.3 31.1422 59.3 38.7H61.3C61.3 30.9245 60.0154 24.0816 57.4147 18.1958L55.5853 19.0042ZM59.3 38.7C59.3 46.2574 58.0514 52.8497 55.5836 58.4997L57.4164 59.3003C60.0152 53.3503 61.3 46.4759 61.3 38.7H59.3ZM55.5814 58.5048C53.1762 64.0954 49.8143 68.4447 45.5097 71.5928L46.6903 73.2072C51.319 69.822 54.8905 65.1713 57.4186 59.2952L55.5814 58.5048ZM45.5176 71.5871C41.2365 74.6542 36.2113 76.2 30.4 76.2V78.2C36.5887 78.2 42.0302 76.5458 46.6824 73.2129L45.5176 71.5871ZM30.5 65.8C34.1205 65.8 37.2571 64.6927 39.8525 62.4578L38.5475 60.9422C36.3429 62.8406 33.6796 63.8 30.5 63.8V65.8ZM39.8644 62.4474C42.4275 60.1691 44.3431 57.0019 45.6503 53.0113L43.7497 52.3887C42.5236 56.1315 40.7725 58.9642 38.5356 60.9526L39.8644 62.4474ZM45.6471 53.021C47.0242 48.9586 47.7 44.1782 47.7 38.7H45.7C45.7 44.0218 45.0425 48.5748 43.7529 52.379L45.6471 53.021ZM47.7 38.7C47.7 33.2225 47.0244 28.4731 45.6454 24.474L43.7546 25.126C45.0423 28.8603 45.7 33.3775 45.7 38.7H47.7ZM45.6519 24.4935C44.3436 20.431 42.3892 17.2512 39.7422 15.0335L38.4578 16.5665C40.7442 18.4821 42.5231 21.3023 43.7481 25.1065L45.6519 24.4935ZM39.7525 15.0422C37.1534 12.8041 33.9818 11.7 30.3 11.7V13.7C33.5515 13.7 36.2466 14.6626 38.4475 16.5578L39.7525 15.0422ZM30.3 11.7C26.7408 11.7 23.6391 12.8106 21.0475 15.0422L22.3525 16.5578C24.5609 14.6561 27.1925 13.7 30.3 13.7V11.7ZM21.0475 15.0422C18.4761 17.2564 16.5262 20.4277 15.1529 24.479L17.0471 25.121C18.3404 21.3056 20.1239 18.4769 22.3525 16.5578L21.0475 15.0422ZM15.1497 24.4887C13.8413 28.4826 13.2 33.2267 13.2 38.7H15.2C15.2 33.3733 15.8253 28.8507 17.0503 25.1113L15.1497 24.4887ZM13.2 38.7C13.2 44.1088 13.8419 48.8502 15.1481 52.9065L17.0519 52.2935C15.8248 48.4832 15.2 43.9579 15.2 38.7H13.2ZM15.1546 52.926C16.5289 56.9114 18.4769 60.0729 21.0356 62.3474L22.3644 60.8526C20.1231 58.8604 18.3378 56.0219 17.0454 52.274L15.1546 52.926ZM21.0458 62.3564C23.7025 64.654 26.8709 65.8 30.5 65.8V63.8C27.3291 63.8 24.6309 62.8127 22.3542 60.8436L21.0458 62.3564ZM83.5008 75L83.1089 75.92L83.1191 75.9244L83.1294 75.9285L83.5008 75ZM74.2008 68.6L73.4592 69.2709L73.4676 69.2802L73.4762 69.2892L74.2008 68.6ZM69.0008 58.7L68.668 57.757L67.8135 58.0586L68.0296 58.9385L69.0008 58.7ZM80.9008 54.5L81.8438 54.1672L81.511 53.2242L80.568 53.557L80.9008 54.5ZM86.4008 62.3L85.8113 63.1078L85.8185 63.1131L85.8258 63.1182L86.4008 62.3ZM102.001 63.4L101.554 62.5055L101.541 62.5118L102.001 63.4ZM106.701 59.1L107.556 59.619L107.56 59.6124L107.563 59.6057L106.701 59.1ZM106.701 45.7L105.833 46.1961L105.843 46.2147L105.855 46.2328L106.701 45.7ZM102.101 41.4L101.654 42.2944L101.654 42.2944L102.101 41.4ZM91.0008 40.3L90.8137 39.3176L90.8047 39.3194L91.0008 40.3ZM87.4008 41.5L86.4982 41.9305L86.9367 42.85L87.848 42.3944L87.4008 41.5ZM84.3008 35L83.5491 34.3405L83.1146 34.8358L83.3982 35.4305L84.3008 35ZM103.601 13L104.353 13.6595L105.808 12H103.601V13ZM73.2008 13H72.2008V14H73.2008V13ZM73.2008 1.49999V0.499994H72.2008V1.49999H73.2008ZM118.901 1.49999H119.901V0.499994H118.901V1.49999ZM118.901 12.2L119.661 12.8497L119.901 12.5691V12.2H118.901ZM99.5008 34.9L98.5016 34.8608L98.3886 37.7405L100.261 35.5497L99.5008 34.9ZM99.7008 29.8L99.7157 28.8001L98.7398 28.7855L98.7016 29.7608L99.7008 29.8ZM119.201 40.4L118.333 40.8961L118.333 40.8961L119.201 40.4ZM118.501 64.9L119.353 65.4233L119.357 65.4167L118.501 64.9ZM108.901 73.9L109.377 74.7795L109.377 74.7795L108.901 73.9ZM95.1008 76.2C91.1575 76.2 87.4172 75.4895 83.8722 74.0715L83.1294 75.9285C86.9177 77.4438 90.9108 78.2 95.1008 78.2V76.2ZM83.8926 74.08C80.4133 72.5981 77.4278 70.5416 74.9253 67.9108L73.4762 69.2892C76.1737 72.1251 79.3882 74.3353 83.1089 75.92L83.8926 74.08ZM74.9423 67.9291C72.5243 65.2565 70.8672 62.1066 69.9719 58.4615L68.0296 58.9385C69.001 62.8934 70.8106 66.3435 73.4592 69.2709L74.9423 67.9291ZM69.3336 59.643L81.2336 55.443L80.568 53.557L68.668 57.757L69.3336 59.643ZM79.9578 54.8328C81.2126 58.388 83.1538 61.1685 85.8113 63.1078L86.9903 61.4922C84.7144 59.8315 82.989 57.412 81.8438 54.1672L79.9578 54.8328ZM85.8258 63.1182C88.4786 64.9823 91.5844 65.9 95.1008 65.9V63.9C91.9505 63.9 89.2563 63.0844 86.9757 61.4818L85.8258 63.1182ZM95.1008 65.9C97.8918 65.9 100.356 65.3764 102.46 64.2882L101.541 62.5118C99.7785 63.4236 97.6431 63.9 95.1008 63.9V65.9ZM102.448 64.2944C104.612 63.2123 106.322 61.6507 107.556 59.619L105.846 58.581C104.813 60.2826 103.389 61.5877 101.554 62.5056L102.448 64.2944ZM107.563 59.6057C108.8 57.4959 109.401 55.0489 109.401 52.3H107.401C107.401 54.7511 106.868 56.8374 105.838 58.5943L107.563 59.6057ZM109.401 52.3C109.401 49.5535 108.801 47.1589 107.547 45.1672L105.855 46.2328C106.867 47.8411 107.401 49.8465 107.401 52.3H109.401ZM107.569 45.2039C106.4 43.1587 104.717 41.5901 102.548 40.5056L101.654 42.2944C103.484 43.2099 104.868 44.508 105.833 46.1961L107.569 45.2039ZM102.548 40.5056C100.382 39.4224 97.8554 38.9 95.0008 38.9V40.9C97.6128 40.9 99.8199 41.3776 101.654 42.2944L102.548 40.5056ZM95.0008 38.9C93.6641 38.9 92.2678 39.0407 90.8137 39.3177L91.1879 41.2823C92.5337 41.026 93.8041 40.9 95.0008 40.9V38.9ZM90.8047 39.3194C89.3961 39.6011 88.1099 40.0274 86.9536 40.6056L87.848 42.3944C88.825 41.9059 89.9388 41.5322 91.1969 41.2806L90.8047 39.3194ZM88.3034 41.0695L85.2034 34.5695L83.3982 35.4305L86.4982 41.9305L88.3034 41.0695ZM85.0525 35.6595L104.353 13.6595L102.849 12.3405L83.5491 34.3405L85.0525 35.6595ZM103.601 12H73.2008V14H103.601V12ZM74.2008 13V1.49999H72.2008V13H74.2008ZM73.2008 2.49999H118.901V0.499994H73.2008V2.49999ZM117.901 1.49999V12.2H119.901V1.49999H117.901ZM118.141 11.5503L98.7406 34.2503L100.261 35.5497L119.661 12.8497L118.141 11.5503ZM100.5 34.9392L100.7 29.8392L98.7016 29.7608L98.5016 34.8608L100.5 34.9392ZM99.6859 30.7999C104.015 30.8645 107.746 31.7997 110.912 33.5725L111.889 31.8275C108.388 29.867 104.32 28.8688 99.7157 28.8001L99.6859 30.7999ZM110.912 33.5725C114.09 35.3519 116.557 37.7896 118.333 40.8961L120.069 39.9039C118.111 36.4771 115.379 33.7814 111.889 31.8275L110.912 33.5725ZM118.333 40.8961C120.099 43.9878 121.001 47.6443 121.001 51.9H123.001C123.001 47.3557 122.036 43.3455 120.069 39.9039L118.333 40.8961ZM121.001 51.9C121.001 56.5298 119.878 60.6825 117.645 64.3833L119.357 65.4167C121.79 61.3842 123.001 56.8702 123.001 51.9H121.001ZM117.649 64.3767C115.411 68.0213 112.343 70.9009 108.425 73.0205L109.377 74.7795C113.592 72.4991 116.924 69.3787 119.353 65.4233L117.649 64.3767ZM108.425 73.0205C104.52 75.133 100.087 76.2 95.1008 76.2V78.2C100.382 78.2 105.148 77.067 109.377 74.7795L108.425 73.0205Z" fill="white" mask="url(#path-1-outside-1_1936_1049)"/>
</svg>
