<svg width="97" height="78" viewBox="0 0 100 79" fill="none" xmlns="http://www.w3.org/2000/svg">
    <mask id="path-1-outside-1_1906_1397" maskUnits="userSpaceOnUse" x="-1" y="-1" width="99" height="80" fill="black">
        <rect fill="white" x="-1" y="-1" width="99" height="80"/>
        <path d="M30.4 77.2C24.4667 77.2 19.2667 75.6 14.8 72.4C10.3333 69.2 6.83333 64.7 4.3 58.9C1.83333 53.1 0.6 46.3667 0.6 38.7C0.6 30.9667 1.83333 24.2333 4.3 18.5C6.76667 12.7667 10.2333 8.3 14.7 5.09999C19.1667 1.9 24.3667 0.299997 30.3 0.299997C36.3667 0.299997 41.6 1.9 46 5.09999C50.4667 8.3 53.9667 12.8 56.5 18.6C59.0333 24.3333 60.3 31.0333 60.3 38.7C60.3 46.3667 59.0333 53.1 56.5 58.9C54.0333 64.6333 50.5667 69.1333 46.1 72.4C41.6333 75.6 36.4 77.2 30.4 77.2ZM30.5 64.8C33.9 64.8 36.8 63.7667 39.2 61.7C41.6 59.5667 43.4333 56.5667 44.7 52.7C46.0333 48.7667 46.7 44.1 46.7 38.7C46.7 33.3 46.0333 28.6667 44.7 24.8C43.4333 20.8667 41.5667 17.8667 39.1 15.8C36.7 13.7333 33.7667 12.7 30.3 12.7C26.9667 12.7 24.1 13.7333 21.7 15.8C19.3 17.8667 17.4333 20.8667 16.1 24.8C14.8333 28.6667 14.2 33.3 14.2 38.7C14.2 44.0333 14.8333 48.6667 16.1 52.6C17.4333 56.4667 19.3 59.4667 21.7 61.6C24.1667 63.7333 27.1 64.8 30.5 64.8ZM83.1008 76V13.1H68.7008V1.49999H96.7008V76H83.1008Z"/>
    </mask>
    <path d="M14.8 72.4L14.2176 73.2129L14.8 72.4ZM4.3 58.9L3.37972 59.2914L3.3836 59.3003L4.3 58.9ZM4.3 18.5L3.38141 18.1048L4.3 18.5ZM14.7 5.09999L14.1176 4.28708H14.1176L14.7 5.09999ZM46 5.09999L45.4118 5.90875L45.4176 5.91291L46 5.09999ZM56.5 18.6L55.5836 19.0003L55.5853 19.0042L56.5 18.6ZM56.5 58.9L55.5836 58.4997L55.5814 58.5048L56.5 58.9ZM46.1 72.4L46.6824 73.213L46.6903 73.2072L46.1 72.4ZM39.2 61.7L39.8525 62.4578L39.8585 62.4526L39.8644 62.4474L39.2 61.7ZM44.7 52.7L43.7529 52.3789L43.7497 52.3887L44.7 52.7ZM44.7 24.8L43.7481 25.1065L43.7513 25.1163L43.7546 25.126L44.7 24.8ZM39.1 15.8L38.4474 16.5578L38.4578 16.5665L39.1 15.8ZM21.7 15.8L21.0475 15.0422L21.7 15.8ZM16.1 24.8L15.1529 24.4789L15.1497 24.4887L16.1 24.8ZM16.1 52.6L15.1481 52.9065L15.1513 52.9163L15.1546 52.926L16.1 52.6ZM21.7 61.6L21.0356 62.3475L21.0459 62.3564L21.7 61.6ZM30.4 76.2C24.658 76.2 19.6655 74.6556 15.3824 71.5871L14.2176 73.2129C18.8679 76.5444 24.2754 78.2 30.4 78.2V76.2ZM15.3824 71.5871C11.0833 68.5071 7.68874 64.1601 5.2164 58.4997L3.3836 59.3003C5.97793 65.2399 9.5834 69.8929 14.2176 73.2129L15.3824 71.5871ZM5.22024 58.5086C2.81628 52.8561 1.6 46.2606 1.6 38.7H-0.4C-0.4 46.4728 0.850385 53.3439 3.37976 59.2914L5.22024 58.5086ZM1.6 38.7C1.6 31.071 2.81683 24.4777 5.21859 18.8952L3.38141 18.1048C0.849836 23.989 -0.4 30.8623 -0.4 38.7H1.6ZM5.21859 18.8952C7.6233 13.3059 10.983 8.99306 15.2824 5.91291L14.1176 4.28708C9.48366 7.60693 5.91004 12.2274 3.38141 18.1048L5.21859 18.8952ZM15.2824 5.91291C19.5655 2.84444 24.558 1.3 30.3 1.3V-0.700003C24.1754 -0.700003 18.7679 0.955557 14.1176 4.28708L15.2824 5.91291ZM30.3 1.3C36.1808 1.3 41.2023 2.84723 45.4118 5.90873L46.5882 4.29126C41.9977 0.952764 36.5525 -0.700003 30.3 -0.700003V1.3ZM45.4176 5.91291C49.7167 8.99287 53.1113 13.3399 55.5836 19.0003L57.4164 18.1997C54.8221 12.2601 51.2166 7.60712 46.5824 4.28708L45.4176 5.91291ZM55.5853 19.0042C58.0513 24.5851 59.3 31.1422 59.3 38.7H61.3C61.3 30.9244 60.0154 24.0816 57.4147 18.1958L55.5853 19.0042ZM59.3 38.7C59.3 46.2574 58.0514 52.8497 55.5836 58.4997L57.4164 59.3003C60.0152 53.3503 61.3 46.4759 61.3 38.7H59.3ZM55.5814 58.5048C53.1762 64.0954 49.8143 68.4447 45.5097 71.5928L46.6903 73.2072C51.319 69.822 54.8905 65.1713 57.4186 59.2952L55.5814 58.5048ZM45.5176 71.5871C41.2365 74.6542 36.2113 76.2 30.4 76.2V78.2C36.5887 78.2 42.0302 76.5458 46.6824 73.2129L45.5176 71.5871ZM30.5 65.8C34.1205 65.8 37.2571 64.6927 39.8525 62.4578L38.5475 60.9422C36.3429 62.8406 33.6796 63.8 30.5 63.8V65.8ZM39.8644 62.4474C42.4275 60.1691 44.3431 57.0019 45.6503 53.0113L43.7497 52.3887C42.5236 56.1315 40.7725 58.9642 38.5356 60.9526L39.8644 62.4474ZM45.6471 53.021C47.0242 48.9586 47.7 44.1782 47.7 38.7H45.7C45.7 44.0218 45.0425 48.5748 43.7529 52.379L45.6471 53.021ZM47.7 38.7C47.7 33.2225 47.0244 28.4731 45.6454 24.474L43.7546 25.126C45.0423 28.8603 45.7 33.3775 45.7 38.7H47.7ZM45.6519 24.4935C44.3436 20.431 42.3892 17.2512 39.7422 15.0335L38.4578 16.5665C40.7442 18.4821 42.5231 21.3023 43.7481 25.1065L45.6519 24.4935ZM39.7525 15.0422C37.1534 12.8041 33.9818 11.7 30.3 11.7V13.7C33.5515 13.7 36.2466 14.6626 38.4475 16.5578L39.7525 15.0422ZM30.3 11.7C26.7408 11.7 23.6391 12.8106 21.0475 15.0422L22.3525 16.5578C24.5609 14.6561 27.1925 13.7 30.3 13.7V11.7ZM21.0475 15.0422C18.4761 17.2564 16.5262 20.4277 15.1529 24.479L17.0471 25.121C18.3404 21.3056 20.1239 18.4769 22.3525 16.5578L21.0475 15.0422ZM15.1497 24.4887C13.8413 28.4826 13.2 33.2267 13.2 38.7H15.2C15.2 33.3733 15.8253 28.8507 17.0503 25.1113L15.1497 24.4887ZM13.2 38.7C13.2 44.1088 13.8419 48.8502 15.1481 52.9065L17.0519 52.2935C15.8248 48.4832 15.2 43.9579 15.2 38.7H13.2ZM15.1546 52.926C16.5289 56.9114 18.4769 60.0729 21.0356 62.3474L22.3644 60.8526C20.1231 58.8604 18.3378 56.0219 17.0454 52.274L15.1546 52.926ZM21.0459 62.3564C23.7025 64.654 26.8709 65.8 30.5 65.8V63.8C27.3291 63.8 24.6309 62.8127 22.3542 60.8436L21.0459 62.3564ZM83.1008 76H82.1008V77H83.1008V76ZM83.1008 13.1H84.1008V12.1H83.1008V13.1ZM68.7008 13.1H67.7008V14.1H68.7008V13.1ZM68.7008 1.49999V0.499993H67.7008V1.49999H68.7008ZM96.7008 1.49999H97.7008V0.499993H96.7008V1.49999ZM96.7008 76V77H97.7008V76H96.7008ZM84.1008 76V13.1H82.1008V76H84.1008ZM83.1008 12.1H68.7008V14.1H83.1008V12.1ZM69.7008 13.1V1.49999H67.7008V13.1H69.7008ZM68.7008 2.49999H96.7008V0.499993H68.7008V2.49999ZM95.7008 1.49999V76H97.7008V1.49999H95.7008ZM96.7008 75H83.1008V77H96.7008V75Z" fill="white" mask="url(#path-1-outside-1_1906_1397)"/>
</svg>
