<?xml version="1.0" encoding="UTF-8"?>
<svg id="Layer_2" data-name="Layer 2" xmlns="http://www.w3.org/2000/svg" viewBox="0 0 1197.9 776.38">
  <defs>
    <style>
      .cls-1 {
        fill: #775ba6;
        stroke-width: 0px;
      }
    </style>
  </defs>
  <g id="Layer_1-2" data-name="Layer 1">
    <g>
      <rect class="cls-1" y="168" width="9.82" height="54.75"/>
      <path class="cls-1" d="m1048.88,196.36v26.12h-54.43v-26.12h54.43Z"/>
      <path class="cls-1" d="m151.34,26.81h-27.16V0h26.72v27.25l.44-.44Z"/>
      <path class="cls-1" d="m150.89,27.25h27.24v26.87h-26.8c0-9.13,0-18.22,0-27.32,0,0-.44.44-.44.44Z"/>
      <path class="cls-1" d="m909.03,54.87v27.24h-26.87v-26.8c9.13,0,18.22,0,27.32,0,0,0-.44-.44-.44-.44Z"/>
      <path class="cls-1" d="m178.53,84.06v26.11h-26.38v-26.11h26.38Z"/>
      <path class="cls-1" d="m234.64,84.22v26.34h-26.18v-26.34h26.18Z"/>
      <path class="cls-1" d="m796.64,83.4h27.26v27.62h-27.18l.44.44c-.03-9.5-.06-19-.09-28.5,0,0-.44.44-.44.44Z"/>
      <path class="cls-1" d="m95.77,138.36v-26.34h26.18v26.34h-26.18Z"/>
      <path class="cls-1" d="m318.54,138.69h-26.18v-26.18h26.18v26.18Z"/>
      <path class="cls-1" d="m487.48,112.45v26.02h-26.73v-26.02h26.73Z"/>
      <path class="cls-1" d="m796.72,111.02v27.24h-26.87v-26.8c9.13,0,18.22,0,27.32,0,0,0-.44-.44-.44-.44Z"/>
      <path class="cls-1" d="m1188.73,138.81h-25.86v-26.69h25.86v26.69Z"/>
      <path class="cls-1" d="m544.4,167.18h-27.16v-26.81h26.72v27.25l.44-.44Z"/>
      <path class="cls-1" d="m236.66,167.74h25.63v26.73h-25.63v-26.73Z"/>
      <path class="cls-1" d="m543.95,167.63h27.24v26.87h-26.8c0-9.13,0-18.22,0-27.32,0,0-.44.44-.44.44Z"/>
      <path class="cls-1" d="m1133.26,168.69v25.86h-26.69v-25.86h26.69Z"/>
      <path class="cls-1" d="m94.3,196.37v26.1h-26.38v-26.1h26.38Z"/>
      <path class="cls-1" d="m178.97,195.7h27.24v26.87h-26.8c0-9.13,0-18.22,0-27.32,0,0-.44.44-.44.44Z"/>
      <path class="cls-1" d="m712.5,195.25v27.24h-26.87v-26.8c9.13,0,18.22,0,27.32,0,0,0-.44-.44-.44-.44Z"/>
      <path class="cls-1" d="m882.41,195.82h25.63v26.73h-25.63v-26.73Z"/>
      <path class="cls-1" d="m964.2,223h-26.02v-26.73h26.02v26.73Z"/>
      <path class="cls-1" d="m292.79,224.15h25.86v26.69h-25.86v-26.69Z"/>
      <path class="cls-1" d="m515.14,250.92h-26.34v-26.18h26.34v26.18Z"/>
      <rect class="cls-1" x="1191.06" y="224.61" width="6.85" height="26.81"/>
      <path class="cls-1" d="m262.38,279.07h-26.18v-26.18h26.18v26.18Z"/>
      <rect class="cls-1" y="280.89" width="9.78" height="26.18"/>
      <path class="cls-1" d="m938,306.98v-26.11h26.38v26.11h-26.38Z"/>
      <path class="cls-1" d="m938.22,420.41h25.95v26.73h-25.95v-26.73Z"/>
      <rect class="cls-1" y="525.33" width="9.82" height="54.75"/>
      <path class="cls-1" d="m1048.88,553.7v26.12h-54.43v-26.12h54.43Z"/>
      <path class="cls-1" d="m599.35,692.5h-26.29v-54.22h26.29v54.22Z"/>
      <path class="cls-1" d="m795.72,748.77h-54.07v-26.71h54.07v26.71Z"/>
      <rect class="cls-1" y="441.67" width="9.8" height="26.1"/>
      <path class="cls-1" d="m216.5,333.76v26.34h-26.18v-26.34h26.18Z"/>
      <path class="cls-1" d="m77.62,387.9v-26.34h26.18v26.34h-26.18Z"/>
      <path class="cls-1" d="m318.54,496.03h-26.18v-26.18h26.18v26.18Z"/>
      <path class="cls-1" d="m1188.73,496.15h-25.86v-26.69h25.86v26.69Z"/>
      <path class="cls-1" d="m66.3,497.47v26.26h-26.53v-26.26h26.53Z"/>
      <path class="cls-1" d="m218.52,417.28h25.63v26.73h-25.63v-26.73Z"/>
      <path class="cls-1" d="m543.95,524.96h27.24v26.87h-26.8c0-9.13,0-18.22,0-27.32,0,0-.44.44-.44.44Z"/>
      <path class="cls-1" d="m1133.26,526.02v25.86h-26.69v-25.86h26.69Z"/>
      <path class="cls-1" d="m94.3,553.7v26.1h-26.38v-26.1h26.38Z"/>
      <path class="cls-1" d="m160.82,445.24h27.24v26.87h-26.8c0-9.13,0-18.22,0-27.32,0,0-.44.44-.44.44Z"/>
      <path class="cls-1" d="m882.41,553.15h25.63v26.73h-25.63v-26.73Z"/>
      <path class="cls-1" d="m964.2,580.34h-26.02v-26.73h26.02v26.73Z"/>
      <path class="cls-1" d="m292.79,581.49h25.86v26.69h-25.86v-26.69Z"/>
      <path class="cls-1" d="m515.14,608.25h-26.34v-26.18h26.34v26.18Z"/>
      <rect class="cls-1" x="1191.06" y="581.94" width="6.85" height="26.81"/>
      <path class="cls-1" d="m262.38,636.41h-26.18v-26.18h26.18v26.18Z"/>
      <rect class="cls-1" y="638.23" width="9.78" height="26.18"/>
      <path class="cls-1" d="m515.4,638.09v26.34h-26.18v-26.34h26.18Z"/>
      <path class="cls-1" d="m938,664.31v-26.11h26.38v26.11h-26.38Z"/>
      <path class="cls-1" d="m656.23,694.5v25.63h-26.73v-25.63h26.73Z"/>
      <path class="cls-1" d="m264.02,776.22v-25.86h26.69v25.86h-26.69Z"/>
      <path class="cls-1" d="m376.44,776.38v-26.18h26.18v26.18h-26.18Z"/>
      <path class="cls-1" d="m1025.18,710.77h25.95v26.73h-25.95v-26.73Z"/>
      <path class="cls-1" d="m769.85,86.18v26.34h-26.18v-26.34h26.18Z"/>
    </g>
  </g>
</svg>